G75*
%MOIN*%
%OFA0B0*%
%FSLAX25Y25*%
%IPPOS*%
%LPD*%
%AMOC8*
5,1,8,0,0,1.08239X$1,22.5*
%
%ADD10R,0.04724X0.04724*%
%ADD11R,0.05118X0.05906*%
%ADD12R,0.05906X0.05118*%
%ADD13R,0.07677X0.05906*%
%ADD14R,0.02600X0.08000*%
%ADD15R,0.05512X0.04331*%
%ADD16R,0.04528X0.01378*%
%ADD17R,0.05906X0.06299*%
%ADD18R,0.07480X0.05512*%
%ADD19R,0.05512X0.07087*%
%ADD20R,0.05906X0.02756*%
D10*
X0030833Y0086335D03*
X0030833Y0094602D03*
X0030203Y0148146D03*
X0030203Y0156413D03*
X0072999Y0158343D03*
X0072999Y0150469D03*
X0128274Y0044720D03*
X0128274Y0036453D03*
D11*
X0080715Y0142634D03*
X0073235Y0142634D03*
X0082723Y0165232D03*
X0090203Y0165232D03*
X0092054Y0182791D03*
X0084573Y0182791D03*
X0075833Y0182949D03*
X0074062Y0172713D03*
X0068353Y0182949D03*
X0066581Y0172713D03*
X0057447Y0172949D03*
X0057723Y0182949D03*
X0050243Y0182949D03*
X0049967Y0172949D03*
X0101109Y0171768D03*
X0102369Y0182594D03*
X0108589Y0171768D03*
X0109849Y0182594D03*
D12*
X0106621Y0162122D03*
X0106621Y0154642D03*
X0096896Y0154957D03*
X0096896Y0147476D03*
X0059770Y0149917D03*
X0059770Y0142437D03*
D13*
X0048255Y0067909D03*
X0037428Y0067909D03*
D14*
X0066325Y0081046D03*
X0071325Y0081046D03*
X0076325Y0081046D03*
X0081325Y0081046D03*
X0086325Y0081046D03*
X0091325Y0081046D03*
X0096325Y0081046D03*
X0101325Y0081046D03*
X0101325Y0105246D03*
X0096325Y0105246D03*
X0091325Y0105246D03*
X0086325Y0105246D03*
X0081325Y0105246D03*
X0076325Y0105246D03*
X0071325Y0105246D03*
X0066325Y0105246D03*
D15*
X0030558Y0103461D03*
X0030558Y0111335D03*
X0030164Y0131413D03*
X0030164Y0139287D03*
X0128550Y0029012D03*
X0128550Y0021138D03*
D16*
X0059534Y0157831D03*
X0059534Y0162949D03*
X0052841Y0162949D03*
X0052841Y0160390D03*
X0052841Y0157831D03*
D17*
X0085794Y0154406D03*
D18*
X0025518Y0005075D03*
X0029062Y0057043D03*
D19*
X0080636Y0050744D03*
X0080636Y0027122D03*
D20*
X0042054Y0027516D03*
X0040479Y0031846D03*
X0038904Y0036177D03*
X0040479Y0040508D03*
X0038904Y0044839D03*
X0040479Y0049169D03*
X0040479Y0053500D03*
X0040479Y0023185D03*
M02*
