G75*
%MOIN*%
%OFA0B0*%
%FSLAX25Y25*%
%IPPOS*%
%LPD*%
%AMOC8*
5,1,8,0,0,1.08239X$1,22.5*
%
%ADD10C,0.00000*%
%ADD11R,0.04724X0.04724*%
%ADD12R,0.05118X0.05906*%
%ADD13R,0.05906X0.05118*%
%ADD14R,0.07677X0.05906*%
%ADD15R,0.02600X0.08000*%
%ADD16C,0.06600*%
%ADD17C,0.07000*%
%ADD18R,0.05512X0.04331*%
%ADD19R,0.04528X0.01378*%
%ADD20R,0.05906X0.06299*%
%ADD21R,0.07480X0.05512*%
%ADD22R,0.05512X0.07087*%
%ADD23R,0.05906X0.02756*%
%ADD24C,0.00984*%
%ADD25C,0.04000*%
%ADD26C,0.01600*%
D10*
X0019534Y0001886D02*
X0019928Y0230823D01*
X0139849Y0230823D01*
X0139455Y0001886D01*
X0019534Y0001886D01*
D11*
X0030833Y0086335D03*
X0030833Y0094602D03*
X0030203Y0148146D03*
X0030203Y0156413D03*
X0072999Y0158343D03*
X0072999Y0150469D03*
X0128274Y0044720D03*
X0128274Y0036453D03*
D12*
X0080715Y0142634D03*
X0073235Y0142634D03*
X0082723Y0165232D03*
X0090203Y0165232D03*
X0092054Y0182791D03*
X0084573Y0182791D03*
X0075833Y0182949D03*
X0074062Y0172713D03*
X0068353Y0182949D03*
X0066581Y0172713D03*
X0057447Y0172949D03*
X0057723Y0182949D03*
X0050243Y0182949D03*
X0049967Y0172949D03*
X0101109Y0171768D03*
X0102369Y0182594D03*
X0108589Y0171768D03*
X0109849Y0182594D03*
D13*
X0106621Y0162122D03*
X0106621Y0154642D03*
X0096896Y0154957D03*
X0096896Y0147476D03*
X0059770Y0149917D03*
X0059770Y0142437D03*
D14*
X0048255Y0067909D03*
X0037428Y0067909D03*
D15*
X0066325Y0081046D03*
X0071325Y0081046D03*
X0076325Y0081046D03*
X0081325Y0081046D03*
X0086325Y0081046D03*
X0091325Y0081046D03*
X0096325Y0081046D03*
X0101325Y0081046D03*
X0101325Y0105246D03*
X0096325Y0105246D03*
X0091325Y0105246D03*
X0086325Y0105246D03*
X0081325Y0105246D03*
X0076325Y0105246D03*
X0071325Y0105246D03*
X0066325Y0105246D03*
D16*
X0039101Y0101374D03*
X0039101Y0111374D03*
X0039101Y0121374D03*
X0039101Y0131374D03*
X0039101Y0141374D03*
X0039101Y0151374D03*
X0039101Y0161374D03*
X0039101Y0171374D03*
X0039101Y0181374D03*
X0039101Y0191374D03*
X0039101Y0091374D03*
X0039101Y0081374D03*
X0117762Y0081217D03*
X0117762Y0091217D03*
X0117762Y0101217D03*
X0117762Y0111217D03*
X0117762Y0121217D03*
X0117762Y0131217D03*
X0117762Y0141217D03*
X0117762Y0151217D03*
X0117762Y0161217D03*
X0117762Y0171217D03*
X0117762Y0181217D03*
X0117762Y0191217D03*
X0117762Y0071217D03*
X0117762Y0061217D03*
X0117762Y0051217D03*
X0117762Y0041217D03*
D17*
X0092723Y0173972D03*
X0082487Y0173972D03*
D18*
X0030164Y0139287D03*
X0030164Y0131413D03*
X0030558Y0111335D03*
X0030558Y0103461D03*
X0128550Y0029012D03*
X0128550Y0021138D03*
D19*
X0059534Y0157831D03*
X0059534Y0162949D03*
X0052841Y0162949D03*
X0052841Y0160390D03*
X0052841Y0157831D03*
D20*
X0085794Y0154406D03*
D21*
X0029062Y0057043D03*
X0025518Y0005075D03*
D22*
X0080636Y0027122D03*
X0080636Y0050744D03*
D23*
X0042054Y0027516D03*
X0040479Y0031846D03*
X0038904Y0036177D03*
X0040479Y0040508D03*
X0038904Y0044839D03*
X0040479Y0049169D03*
X0040479Y0053500D03*
X0040479Y0023185D03*
D24*
X0042054Y0027516D02*
X0064022Y0027476D01*
X0064810Y0026295D01*
X0071503Y0017240D01*
X0090794Y0017240D01*
X0094731Y0021177D01*
X0095125Y0021177D01*
X0095125Y0020390D01*
X0094731Y0021177D02*
X0101424Y0027870D01*
X0101424Y0062516D01*
X0098274Y0065665D01*
X0092369Y0065665D01*
X0091325Y0066709D01*
X0091325Y0081046D01*
X0093884Y0075264D02*
X0094169Y0074979D01*
X0098482Y0074979D01*
X0099265Y0075762D01*
X0099449Y0075655D01*
X0099829Y0075554D01*
X0101168Y0075554D01*
X0101168Y0080888D01*
X0101483Y0080888D01*
X0101483Y0075554D01*
X0102822Y0075554D01*
X0103201Y0075655D01*
X0103542Y0075852D01*
X0103819Y0076129D01*
X0104016Y0076470D01*
X0104118Y0076849D01*
X0104118Y0080888D01*
X0101483Y0080888D01*
X0101483Y0081204D01*
X0101168Y0081204D01*
X0101168Y0086538D01*
X0099829Y0086538D01*
X0099449Y0086436D01*
X0099265Y0086329D01*
X0098865Y0086729D01*
X0098865Y0086834D01*
X0098894Y0087252D01*
X0098865Y0087340D01*
X0098865Y0087434D01*
X0098705Y0087821D01*
X0098573Y0088217D01*
X0098511Y0088288D01*
X0098475Y0088375D01*
X0098179Y0088670D01*
X0097905Y0088986D01*
X0097822Y0089028D01*
X0097755Y0089095D01*
X0097369Y0089255D01*
X0093086Y0091396D01*
X0093011Y0091470D01*
X0092634Y0091622D01*
X0092270Y0091804D01*
X0092165Y0091811D01*
X0092066Y0091851D01*
X0091660Y0091847D01*
X0091255Y0091876D01*
X0091154Y0091843D01*
X0052052Y0091477D01*
X0052352Y0112136D01*
X0052663Y0111824D01*
X0054158Y0111205D01*
X0055776Y0111205D01*
X0057271Y0111824D01*
X0058415Y0112968D01*
X0058753Y0113783D01*
X0062751Y0115046D01*
X0083571Y0113532D01*
X0091483Y0110724D01*
X0091483Y0105404D01*
X0091168Y0105404D01*
X0091168Y0110738D01*
X0089829Y0110738D01*
X0089449Y0110636D01*
X0089265Y0110529D01*
X0088482Y0111313D01*
X0084169Y0111313D01*
X0083825Y0110969D01*
X0083482Y0111313D01*
X0079169Y0111313D01*
X0078386Y0110529D01*
X0078201Y0110636D01*
X0077822Y0110738D01*
X0076483Y0110738D01*
X0076483Y0105404D01*
X0076168Y0105404D01*
X0076168Y0110738D01*
X0074829Y0110738D01*
X0074449Y0110636D01*
X0074265Y0110529D01*
X0073482Y0111313D01*
X0069169Y0111313D01*
X0068825Y0110969D01*
X0068482Y0111313D01*
X0064169Y0111313D01*
X0062959Y0110102D01*
X0062959Y0101071D01*
X0062624Y0101209D01*
X0062182Y0101209D01*
X0061602Y0101790D01*
X0060107Y0102409D01*
X0058489Y0102409D01*
X0056994Y0101790D01*
X0055850Y0100646D01*
X0055231Y0099151D01*
X0055231Y0097534D01*
X0055850Y0096039D01*
X0056994Y0094895D01*
X0058489Y0094276D01*
X0060107Y0094276D01*
X0061602Y0094895D01*
X0061789Y0095082D01*
X0062624Y0095082D01*
X0063367Y0095390D01*
X0109025Y0095390D01*
X0109491Y0094924D01*
X0110210Y0094205D01*
X0111151Y0093815D01*
X0113030Y0093815D01*
X0112396Y0092284D01*
X0112396Y0090149D01*
X0113213Y0088176D01*
X0114722Y0086667D01*
X0115809Y0086217D01*
X0114722Y0085766D01*
X0113213Y0084257D01*
X0112396Y0082284D01*
X0112396Y0080149D01*
X0113213Y0078176D01*
X0114722Y0076667D01*
X0116615Y0075883D01*
X0115923Y0075658D01*
X0115251Y0075315D01*
X0114641Y0074872D01*
X0114107Y0074338D01*
X0113664Y0073728D01*
X0113321Y0073056D01*
X0113088Y0072339D01*
X0112989Y0071709D01*
X0117270Y0071709D01*
X0117270Y0070724D01*
X0112989Y0070724D01*
X0113088Y0070094D01*
X0113321Y0069377D01*
X0113664Y0068705D01*
X0114107Y0068095D01*
X0114641Y0067561D01*
X0115251Y0067118D01*
X0115923Y0066775D01*
X0116615Y0066551D01*
X0114722Y0065766D01*
X0113213Y0064257D01*
X0112396Y0062284D01*
X0112396Y0060149D01*
X0113213Y0058176D01*
X0114722Y0056667D01*
X0115809Y0056217D01*
X0114722Y0055766D01*
X0113213Y0054257D01*
X0112396Y0052284D01*
X0112396Y0050149D01*
X0113213Y0048176D01*
X0114722Y0046667D01*
X0115809Y0046217D01*
X0114722Y0045766D01*
X0113213Y0044257D01*
X0112396Y0042284D01*
X0112396Y0040149D01*
X0113213Y0038176D01*
X0114722Y0036667D01*
X0116695Y0035850D01*
X0118830Y0035850D01*
X0120803Y0036667D01*
X0122312Y0038176D01*
X0123129Y0040149D01*
X0123129Y0042284D01*
X0122312Y0044257D01*
X0120803Y0045766D01*
X0119716Y0046217D01*
X0120803Y0046667D01*
X0122312Y0048176D01*
X0123129Y0050149D01*
X0123129Y0052284D01*
X0122312Y0054257D01*
X0120803Y0055766D01*
X0119716Y0056217D01*
X0120803Y0056667D01*
X0122312Y0058176D01*
X0123129Y0060149D01*
X0123129Y0062284D01*
X0122312Y0064257D01*
X0120803Y0065766D01*
X0118909Y0066551D01*
X0119602Y0066775D01*
X0120274Y0067118D01*
X0120884Y0067561D01*
X0121418Y0068095D01*
X0121861Y0068705D01*
X0122203Y0069377D01*
X0122437Y0070094D01*
X0122536Y0070724D01*
X0118255Y0070724D01*
X0118255Y0071709D01*
X0122536Y0071709D01*
X0122437Y0072339D01*
X0122203Y0073056D01*
X0121861Y0073728D01*
X0121418Y0074338D01*
X0120884Y0074872D01*
X0120274Y0075315D01*
X0119602Y0075658D01*
X0118910Y0075883D01*
X0120803Y0076667D01*
X0122312Y0078176D01*
X0122512Y0078657D01*
X0122838Y0078657D01*
X0123923Y0077572D01*
X0125418Y0076953D01*
X0127036Y0076953D01*
X0128531Y0077572D01*
X0129223Y0078264D01*
X0129492Y0078264D01*
X0130432Y0078653D01*
X0131152Y0079373D01*
X0131542Y0080314D01*
X0131542Y0081332D01*
X0131152Y0082272D01*
X0130039Y0083386D01*
X0129311Y0083688D01*
X0128531Y0084467D01*
X0127036Y0085087D01*
X0125418Y0085087D01*
X0123923Y0084467D01*
X0123231Y0083776D01*
X0122512Y0083776D01*
X0122312Y0084257D01*
X0120803Y0085766D01*
X0119716Y0086217D01*
X0120803Y0086667D01*
X0122312Y0088176D01*
X0123129Y0090149D01*
X0123129Y0092284D01*
X0122495Y0093815D01*
X0124768Y0093815D01*
X0125708Y0094205D01*
X0126428Y0094924D01*
X0126818Y0095865D01*
X0126818Y0155230D01*
X0126428Y0156170D01*
X0122930Y0159668D01*
X0123129Y0160149D01*
X0123129Y0162284D01*
X0122312Y0164257D01*
X0120803Y0165766D01*
X0119716Y0166217D01*
X0120803Y0166667D01*
X0122312Y0168176D01*
X0123129Y0170149D01*
X0123129Y0172284D01*
X0122312Y0174257D01*
X0120803Y0175766D01*
X0119716Y0176217D01*
X0120803Y0176667D01*
X0122312Y0178176D01*
X0123129Y0180149D01*
X0123129Y0182284D01*
X0122312Y0184257D01*
X0120803Y0185766D01*
X0119716Y0186217D01*
X0120803Y0186667D01*
X0122312Y0188176D01*
X0123129Y0190149D01*
X0123129Y0192284D01*
X0122312Y0194257D01*
X0120803Y0195766D01*
X0118830Y0196583D01*
X0116695Y0196583D01*
X0114722Y0195766D01*
X0113213Y0194257D01*
X0112396Y0192284D01*
X0112396Y0190149D01*
X0113213Y0188176D01*
X0114722Y0186667D01*
X0115809Y0186217D01*
X0114722Y0185766D01*
X0113900Y0184944D01*
X0113900Y0185744D01*
X0113799Y0186123D01*
X0113602Y0186463D01*
X0113324Y0186741D01*
X0112984Y0186938D01*
X0112605Y0187039D01*
X0110341Y0187039D01*
X0110341Y0183087D01*
X0109357Y0183087D01*
X0109357Y0187039D01*
X0107094Y0187039D01*
X0106714Y0186938D01*
X0106553Y0186845D01*
X0105955Y0187443D01*
X0109173Y0190661D01*
X0109893Y0191381D01*
X0110282Y0192322D01*
X0110282Y0196889D01*
X0110286Y0196893D01*
X0110676Y0197833D01*
X0110676Y0198070D01*
X0116979Y0204373D01*
X0117369Y0205314D01*
X0117369Y0216968D01*
X0121310Y0220909D01*
X0121699Y0221849D01*
X0121699Y0224284D01*
X0122194Y0224779D01*
X0122814Y0226274D01*
X0122814Y0226331D01*
X0135349Y0226331D01*
X0135045Y0049654D01*
X0133686Y0049654D01*
X0132191Y0049034D01*
X0131899Y0048743D01*
X0131493Y0049150D01*
X0125056Y0049150D01*
X0123845Y0047939D01*
X0123845Y0041502D01*
X0124761Y0040587D01*
X0123845Y0039671D01*
X0123845Y0033234D01*
X0124387Y0032693D01*
X0123727Y0032033D01*
X0123727Y0025990D01*
X0124643Y0025075D01*
X0123727Y0024159D01*
X0123727Y0018116D01*
X0124938Y0016906D01*
X0125836Y0016906D01*
X0125754Y0014645D01*
X0124748Y0013638D01*
X0124129Y0012144D01*
X0124129Y0010526D01*
X0124748Y0009031D01*
X0125892Y0007887D01*
X0127387Y0007268D01*
X0129004Y0007268D01*
X0130499Y0007887D01*
X0131643Y0009031D01*
X0132262Y0010526D01*
X0132262Y0012144D01*
X0131643Y0013638D01*
X0130868Y0014414D01*
X0130958Y0016906D01*
X0132162Y0016906D01*
X0133373Y0018116D01*
X0133373Y0024159D01*
X0132457Y0025075D01*
X0133373Y0025990D01*
X0133373Y0032033D01*
X0132437Y0032969D01*
X0132703Y0033234D01*
X0132703Y0039671D01*
X0131788Y0040587D01*
X0132703Y0041502D01*
X0132703Y0041927D01*
X0133686Y0041520D01*
X0135031Y0041520D01*
X0134971Y0006378D01*
X0030751Y0006378D01*
X0030751Y0008027D01*
X0030649Y0008407D01*
X0030452Y0008747D01*
X0030175Y0009025D01*
X0029834Y0009221D01*
X0029455Y0009323D01*
X0026010Y0009323D01*
X0026010Y0006378D01*
X0025026Y0006378D01*
X0025026Y0009323D01*
X0024039Y0009323D01*
X0024115Y0053393D01*
X0024127Y0053371D01*
X0024405Y0053093D01*
X0024746Y0052897D01*
X0025125Y0052795D01*
X0028570Y0052795D01*
X0028570Y0056551D01*
X0029554Y0056551D01*
X0029554Y0057535D01*
X0034294Y0057535D01*
X0034294Y0059996D01*
X0034192Y0060375D01*
X0033996Y0060715D01*
X0033718Y0060993D01*
X0033378Y0061190D01*
X0032998Y0061291D01*
X0029554Y0061291D01*
X0029554Y0057535D01*
X0028570Y0057535D01*
X0028570Y0061291D01*
X0025125Y0061291D01*
X0024746Y0061190D01*
X0024405Y0060993D01*
X0024127Y0060715D01*
X0024412Y0226331D01*
X0065073Y0226331D01*
X0065073Y0225093D01*
X0065693Y0223598D01*
X0066837Y0222454D01*
X0068331Y0221835D01*
X0069717Y0221835D01*
X0086727Y0205752D01*
X0086727Y0204226D01*
X0087346Y0202732D01*
X0087995Y0202083D01*
X0087523Y0202083D01*
X0082007Y0207599D01*
X0081067Y0207988D01*
X0063278Y0207988D01*
X0062389Y0208877D01*
X0060894Y0209496D01*
X0059276Y0209496D01*
X0057782Y0208877D01*
X0056637Y0207733D01*
X0056018Y0206238D01*
X0056018Y0204620D01*
X0056637Y0203125D01*
X0057782Y0201981D01*
X0059276Y0201362D01*
X0060894Y0201362D01*
X0061474Y0201602D01*
X0066188Y0196889D01*
X0066188Y0196647D01*
X0064479Y0194938D01*
X0062312Y0194817D01*
X0062352Y0194858D01*
X0062971Y0196352D01*
X0062971Y0197970D01*
X0062352Y0199465D01*
X0061208Y0200609D01*
X0059713Y0201228D01*
X0058095Y0201228D01*
X0056600Y0200609D01*
X0055456Y0199465D01*
X0054837Y0197970D01*
X0054837Y0196714D01*
X0052057Y0193933D01*
X0046190Y0193933D01*
X0045250Y0193543D01*
X0044374Y0192668D01*
X0043651Y0194414D01*
X0042141Y0195924D01*
X0040645Y0196543D01*
X0042637Y0198535D01*
X0043357Y0199255D01*
X0043747Y0200196D01*
X0043747Y0201214D01*
X0043522Y0201757D01*
X0043562Y0205595D01*
X0044242Y0206275D01*
X0044861Y0207770D01*
X0044861Y0209388D01*
X0044242Y0210882D01*
X0043098Y0212027D01*
X0041603Y0212646D01*
X0039985Y0212646D01*
X0038490Y0212027D01*
X0037346Y0210882D01*
X0036727Y0209388D01*
X0036727Y0207770D01*
X0037346Y0206275D01*
X0038439Y0205182D01*
X0038401Y0201537D01*
X0026813Y0189950D01*
X0026424Y0189009D01*
X0026424Y0169487D01*
X0026813Y0168546D01*
X0027533Y0167827D01*
X0033734Y0161626D01*
X0033734Y0160306D01*
X0034551Y0158334D01*
X0036061Y0156824D01*
X0037148Y0156374D01*
X0036061Y0155924D01*
X0034551Y0154414D01*
X0033734Y0152442D01*
X0033734Y0152262D01*
X0033422Y0152575D01*
X0032821Y0152575D01*
X0033142Y0152661D01*
X0033482Y0152857D01*
X0033760Y0153135D01*
X0033956Y0153475D01*
X0034058Y0153855D01*
X0034058Y0155921D01*
X0030696Y0155921D01*
X0030696Y0156905D01*
X0034058Y0156905D01*
X0034058Y0158972D01*
X0033956Y0159352D01*
X0033760Y0159692D01*
X0033482Y0159970D01*
X0033142Y0160166D01*
X0032762Y0160268D01*
X0030695Y0160268D01*
X0030695Y0156906D01*
X0029711Y0156906D01*
X0029711Y0160268D01*
X0027645Y0160268D01*
X0027265Y0160166D01*
X0026925Y0159970D01*
X0026647Y0159692D01*
X0026451Y0159352D01*
X0026349Y0158972D01*
X0026349Y0156905D01*
X0029711Y0156905D01*
X0029711Y0155921D01*
X0026349Y0155921D01*
X0026349Y0153855D01*
X0026451Y0153475D01*
X0026647Y0153135D01*
X0026925Y0152857D01*
X0027265Y0152661D01*
X0027586Y0152575D01*
X0026985Y0152575D01*
X0025774Y0151364D01*
X0025774Y0144927D01*
X0026985Y0143717D01*
X0027625Y0143717D01*
X0027624Y0143520D01*
X0026552Y0143520D01*
X0025341Y0142309D01*
X0025341Y0136266D01*
X0026257Y0135350D01*
X0025341Y0134435D01*
X0025341Y0128392D01*
X0026552Y0127181D01*
X0033776Y0127181D01*
X0034740Y0128145D01*
X0036061Y0126824D01*
X0037148Y0126374D01*
X0036061Y0125924D01*
X0034551Y0124414D01*
X0033970Y0123010D01*
X0033612Y0123875D01*
X0032468Y0125019D01*
X0030973Y0125638D01*
X0029355Y0125638D01*
X0027860Y0125019D01*
X0026716Y0123875D01*
X0026097Y0122380D01*
X0026097Y0120762D01*
X0026716Y0119267D01*
X0027860Y0118123D01*
X0029355Y0117504D01*
X0030218Y0117504D01*
X0032155Y0115567D01*
X0026946Y0115567D01*
X0025735Y0114356D01*
X0025735Y0108313D01*
X0026650Y0107398D01*
X0025735Y0106482D01*
X0025735Y0100439D01*
X0026946Y0099228D01*
X0028129Y0099228D01*
X0028135Y0099031D01*
X0027615Y0099031D01*
X0026404Y0097821D01*
X0026404Y0091384D01*
X0027615Y0090173D01*
X0028216Y0090173D01*
X0027895Y0090087D01*
X0027555Y0089891D01*
X0027277Y0089613D01*
X0027081Y0089273D01*
X0026979Y0088893D01*
X0026979Y0086827D01*
X0030341Y0086827D01*
X0030341Y0085843D01*
X0026979Y0085843D01*
X0026979Y0083776D01*
X0027081Y0083396D01*
X0027277Y0083056D01*
X0027555Y0082778D01*
X0027895Y0082582D01*
X0028275Y0082480D01*
X0030341Y0082480D01*
X0030341Y0085842D01*
X0031325Y0085842D01*
X0031325Y0082480D01*
X0033392Y0082480D01*
X0033771Y0082582D01*
X0033799Y0082598D01*
X0033734Y0082442D01*
X0033734Y0080306D01*
X0034551Y0078334D01*
X0036061Y0076824D01*
X0038033Y0076007D01*
X0040169Y0076007D01*
X0042141Y0076824D01*
X0043651Y0078334D01*
X0044468Y0080306D01*
X0044468Y0082442D01*
X0043651Y0084414D01*
X0042141Y0085924D01*
X0041054Y0086374D01*
X0042141Y0086824D01*
X0043177Y0087860D01*
X0043349Y0087444D01*
X0044069Y0086724D01*
X0054127Y0076666D01*
X0053656Y0075529D01*
X0053656Y0073912D01*
X0053987Y0073113D01*
X0053376Y0072503D01*
X0052949Y0072929D01*
X0043560Y0072929D01*
X0042435Y0071804D01*
X0042183Y0072056D01*
X0041842Y0072253D01*
X0041463Y0072354D01*
X0037920Y0072354D01*
X0037920Y0068402D01*
X0036936Y0068402D01*
X0036936Y0072354D01*
X0033393Y0072354D01*
X0033013Y0072253D01*
X0032673Y0072056D01*
X0032395Y0071778D01*
X0032199Y0071438D01*
X0032097Y0071059D01*
X0032097Y0068402D01*
X0036936Y0068402D01*
X0036936Y0067417D01*
X0037920Y0067417D01*
X0037920Y0063465D01*
X0041463Y0063465D01*
X0041842Y0063566D01*
X0042183Y0063763D01*
X0042435Y0064015D01*
X0043560Y0062890D01*
X0052949Y0062890D01*
X0054160Y0064101D01*
X0054160Y0066049D01*
X0054571Y0066460D01*
X0058930Y0070818D01*
X0060027Y0071273D01*
X0061171Y0072417D01*
X0061522Y0073266D01*
X0063814Y0075334D01*
X0064169Y0074979D01*
X0065386Y0074979D01*
X0062640Y0072233D01*
X0062251Y0071292D01*
X0062251Y0068858D01*
X0061995Y0069113D01*
X0060501Y0069732D01*
X0058883Y0069732D01*
X0057388Y0069113D01*
X0056244Y0067969D01*
X0055625Y0066474D01*
X0055625Y0064856D01*
X0056244Y0063362D01*
X0056521Y0063084D01*
X0054985Y0055917D01*
X0050797Y0051728D01*
X0045499Y0051728D01*
X0045499Y0055734D01*
X0044288Y0056945D01*
X0036670Y0056945D01*
X0035459Y0055734D01*
X0035459Y0047629D01*
X0035375Y0047607D01*
X0035035Y0047411D01*
X0034757Y0047133D01*
X0034561Y0046792D01*
X0034459Y0046413D01*
X0034459Y0045035D01*
X0038707Y0045035D01*
X0038707Y0044642D01*
X0034459Y0044642D01*
X0034459Y0043264D01*
X0034561Y0042885D01*
X0034757Y0042544D01*
X0035035Y0042267D01*
X0035375Y0042070D01*
X0035459Y0042048D01*
X0035459Y0039622D01*
X0035095Y0039622D01*
X0033884Y0038411D01*
X0033884Y0033943D01*
X0035095Y0032732D01*
X0035459Y0032732D01*
X0035459Y0029612D01*
X0036670Y0028402D01*
X0037034Y0028402D01*
X0037034Y0026630D01*
X0036670Y0026630D01*
X0035459Y0025419D01*
X0035459Y0020951D01*
X0036670Y0019740D01*
X0044288Y0019740D01*
X0045499Y0020951D01*
X0045499Y0024071D01*
X0045863Y0024071D01*
X0046740Y0024948D01*
X0062644Y0024920D01*
X0062715Y0024824D01*
X0062963Y0024452D01*
X0063016Y0024416D01*
X0069258Y0015971D01*
X0069333Y0015791D01*
X0069558Y0015566D01*
X0069747Y0015310D01*
X0069915Y0015209D01*
X0070053Y0015071D01*
X0070347Y0014949D01*
X0070620Y0014785D01*
X0070813Y0014756D01*
X0070994Y0014681D01*
X0071312Y0014681D01*
X0071626Y0014634D01*
X0071816Y0014681D01*
X0091303Y0014681D01*
X0092244Y0015071D01*
X0093736Y0016563D01*
X0094316Y0016323D01*
X0095934Y0016323D01*
X0097428Y0016942D01*
X0098572Y0018086D01*
X0099192Y0019581D01*
X0099192Y0021199D01*
X0098951Y0021779D01*
X0102873Y0025701D01*
X0103593Y0026420D01*
X0103983Y0027361D01*
X0103983Y0063025D01*
X0103593Y0063965D01*
X0100444Y0067115D01*
X0099724Y0067835D01*
X0098783Y0068224D01*
X0093884Y0068224D01*
X0093884Y0075264D01*
X0093884Y0074610D02*
X0114379Y0074610D01*
X0113613Y0073628D02*
X0093884Y0073628D01*
X0093884Y0072645D02*
X0113188Y0072645D01*
X0112996Y0070679D02*
X0093884Y0070679D01*
X0093884Y0069696D02*
X0113218Y0069696D01*
X0113659Y0068714D02*
X0093884Y0068714D01*
X0093884Y0071662D02*
X0117270Y0071662D01*
X0118255Y0071662D02*
X0135083Y0071662D01*
X0135082Y0070679D02*
X0122529Y0070679D01*
X0122307Y0069696D02*
X0135080Y0069696D01*
X0135078Y0068714D02*
X0121866Y0068714D01*
X0121054Y0067731D02*
X0135076Y0067731D01*
X0135075Y0066748D02*
X0119518Y0066748D01*
X0120803Y0065765D02*
X0135073Y0065765D01*
X0135071Y0064783D02*
X0121786Y0064783D01*
X0122501Y0063800D02*
X0135070Y0063800D01*
X0135068Y0062817D02*
X0122909Y0062817D01*
X0123129Y0061834D02*
X0135066Y0061834D01*
X0135065Y0060852D02*
X0123129Y0060852D01*
X0123013Y0059869D02*
X0135063Y0059869D01*
X0135061Y0058886D02*
X0122606Y0058886D01*
X0122039Y0057903D02*
X0135060Y0057903D01*
X0135058Y0056921D02*
X0121056Y0056921D01*
X0120389Y0055938D02*
X0135056Y0055938D01*
X0135055Y0054955D02*
X0121614Y0054955D01*
X0122430Y0053972D02*
X0135053Y0053972D01*
X0135051Y0052990D02*
X0122837Y0052990D01*
X0123129Y0052007D02*
X0135049Y0052007D01*
X0135048Y0051024D02*
X0123129Y0051024D01*
X0123085Y0050041D02*
X0135046Y0050041D01*
X0132249Y0049058D02*
X0131584Y0049058D01*
X0134495Y0045587D02*
X0133629Y0044720D01*
X0128274Y0044720D01*
X0124965Y0049058D02*
X0122678Y0049058D01*
X0122212Y0048076D02*
X0123982Y0048076D01*
X0123845Y0047093D02*
X0121229Y0047093D01*
X0119973Y0046110D02*
X0123845Y0046110D01*
X0123845Y0045127D02*
X0121442Y0045127D01*
X0122359Y0044145D02*
X0123845Y0044145D01*
X0123845Y0043162D02*
X0122766Y0043162D01*
X0123129Y0042179D02*
X0123845Y0042179D01*
X0124151Y0041196D02*
X0123129Y0041196D01*
X0123129Y0040214D02*
X0124388Y0040214D01*
X0123845Y0039231D02*
X0122749Y0039231D01*
X0122342Y0038248D02*
X0123845Y0038248D01*
X0123845Y0037265D02*
X0121401Y0037265D01*
X0119875Y0036283D02*
X0123845Y0036283D01*
X0123845Y0035300D02*
X0103983Y0035300D01*
X0103983Y0036283D02*
X0115650Y0036283D01*
X0114124Y0037265D02*
X0103983Y0037265D01*
X0103983Y0038248D02*
X0113183Y0038248D01*
X0112776Y0039231D02*
X0103983Y0039231D01*
X0103983Y0040214D02*
X0112396Y0040214D01*
X0112396Y0041196D02*
X0103983Y0041196D01*
X0103983Y0042179D02*
X0112396Y0042179D01*
X0112759Y0043162D02*
X0103983Y0043162D01*
X0103983Y0044145D02*
X0113166Y0044145D01*
X0114083Y0045127D02*
X0103983Y0045127D01*
X0103983Y0046110D02*
X0115552Y0046110D01*
X0114296Y0047093D02*
X0103983Y0047093D01*
X0103983Y0048076D02*
X0113313Y0048076D01*
X0112847Y0049058D02*
X0103983Y0049058D01*
X0103983Y0050041D02*
X0112440Y0050041D01*
X0112396Y0051024D02*
X0103983Y0051024D01*
X0103983Y0052007D02*
X0112396Y0052007D01*
X0112688Y0052990D02*
X0103983Y0052990D01*
X0103983Y0053972D02*
X0113095Y0053972D01*
X0113911Y0054955D02*
X0103983Y0054955D01*
X0103983Y0055938D02*
X0115136Y0055938D01*
X0114468Y0056921D02*
X0103983Y0056921D01*
X0103983Y0057903D02*
X0113486Y0057903D01*
X0112919Y0058886D02*
X0103983Y0058886D01*
X0103983Y0059869D02*
X0112512Y0059869D01*
X0112396Y0060852D02*
X0103983Y0060852D01*
X0103983Y0061834D02*
X0112396Y0061834D01*
X0112616Y0062817D02*
X0103983Y0062817D01*
X0103662Y0063800D02*
X0113023Y0063800D01*
X0113739Y0064783D02*
X0102776Y0064783D01*
X0101793Y0065765D02*
X0114721Y0065765D01*
X0116007Y0066748D02*
X0100810Y0066748D01*
X0099828Y0067731D02*
X0114471Y0067731D01*
X0115796Y0075593D02*
X0102969Y0075593D01*
X0104044Y0076576D02*
X0114942Y0076576D01*
X0113830Y0077559D02*
X0104118Y0077559D01*
X0104118Y0078541D02*
X0113061Y0078541D01*
X0112654Y0079524D02*
X0104118Y0079524D01*
X0104118Y0080507D02*
X0112396Y0080507D01*
X0112396Y0081490D02*
X0104118Y0081490D01*
X0104118Y0081204D02*
X0104118Y0085242D01*
X0104016Y0085622D01*
X0103819Y0085962D01*
X0103542Y0086240D01*
X0103201Y0086436D01*
X0102822Y0086538D01*
X0101483Y0086538D01*
X0101483Y0081204D01*
X0104118Y0081204D01*
X0104118Y0082472D02*
X0112474Y0082472D01*
X0112881Y0083455D02*
X0104118Y0083455D01*
X0104118Y0084438D02*
X0113394Y0084438D01*
X0114377Y0085421D02*
X0104070Y0085421D01*
X0103258Y0086403D02*
X0115358Y0086403D01*
X0114003Y0087386D02*
X0098865Y0087386D01*
X0099191Y0086403D02*
X0099393Y0086403D01*
X0101168Y0086403D02*
X0101483Y0086403D01*
X0101483Y0085421D02*
X0101168Y0085421D01*
X0101168Y0084438D02*
X0101483Y0084438D01*
X0101483Y0083455D02*
X0101168Y0083455D01*
X0101168Y0082472D02*
X0101483Y0082472D01*
X0101483Y0081490D02*
X0101168Y0081490D01*
X0101168Y0080507D02*
X0101483Y0080507D01*
X0101483Y0079524D02*
X0101168Y0079524D01*
X0101168Y0078541D02*
X0101483Y0078541D01*
X0101483Y0077559D02*
X0101168Y0077559D01*
X0101168Y0076576D02*
X0101483Y0076576D01*
X0101483Y0075593D02*
X0101168Y0075593D01*
X0099681Y0075593D02*
X0099096Y0075593D01*
X0096325Y0081046D02*
X0096306Y0081853D01*
X0096306Y0086925D01*
X0091581Y0089287D01*
X0049455Y0088894D01*
X0049849Y0116059D01*
X0044731Y0120783D01*
X0045203Y0120783D01*
X0039101Y0121374D01*
X0035851Y0125714D02*
X0024239Y0125714D01*
X0024241Y0126697D02*
X0036368Y0126697D01*
X0035206Y0127680D02*
X0034274Y0127680D01*
X0034868Y0124731D02*
X0032755Y0124731D01*
X0033664Y0123748D02*
X0034275Y0123748D01*
X0030164Y0121571D02*
X0030164Y0121177D01*
X0034888Y0116453D01*
X0043944Y0116453D01*
X0044731Y0115665D01*
X0045518Y0115665D01*
X0045518Y0105823D01*
X0045518Y0106610D01*
X0045518Y0105823D02*
X0045518Y0088894D01*
X0057723Y0076689D01*
X0057723Y0074720D01*
X0057723Y0074327D01*
X0058271Y0073779D01*
X0052402Y0067909D01*
X0048255Y0067909D01*
X0053234Y0072645D02*
X0053518Y0072645D01*
X0053774Y0073628D02*
X0024150Y0073628D01*
X0024151Y0074610D02*
X0053656Y0074610D01*
X0053683Y0075593D02*
X0024153Y0075593D01*
X0024155Y0076576D02*
X0036660Y0076576D01*
X0035326Y0077559D02*
X0024156Y0077559D01*
X0024158Y0078541D02*
X0034465Y0078541D01*
X0034058Y0079524D02*
X0024160Y0079524D01*
X0024161Y0080507D02*
X0033734Y0080507D01*
X0033734Y0081490D02*
X0024163Y0081490D01*
X0024165Y0082472D02*
X0033747Y0082472D01*
X0034688Y0084551D02*
X0034688Y0085843D01*
X0031325Y0085843D01*
X0031325Y0086827D01*
X0034688Y0086827D01*
X0034688Y0088197D01*
X0036061Y0086824D01*
X0037148Y0086374D01*
X0036061Y0085924D01*
X0034688Y0084551D01*
X0034688Y0085421D02*
X0035558Y0085421D01*
X0037077Y0086403D02*
X0031325Y0086403D01*
X0031325Y0085421D02*
X0030341Y0085421D01*
X0030341Y0086403D02*
X0024172Y0086403D01*
X0024170Y0085421D02*
X0026979Y0085421D01*
X0026979Y0084438D02*
X0024168Y0084438D01*
X0024166Y0083455D02*
X0027065Y0083455D01*
X0030341Y0083455D02*
X0031325Y0083455D01*
X0031325Y0084438D02*
X0030341Y0084438D01*
X0026979Y0087386D02*
X0024173Y0087386D01*
X0024175Y0088369D02*
X0026979Y0088369D01*
X0027126Y0089352D02*
X0024177Y0089352D01*
X0024178Y0090335D02*
X0027454Y0090335D01*
X0026471Y0091317D02*
X0024180Y0091317D01*
X0024182Y0092300D02*
X0026404Y0092300D01*
X0026404Y0093283D02*
X0024183Y0093283D01*
X0024185Y0094266D02*
X0026404Y0094266D01*
X0026404Y0095248D02*
X0024187Y0095248D01*
X0024188Y0096231D02*
X0026404Y0096231D01*
X0026404Y0097214D02*
X0024190Y0097214D01*
X0024192Y0098197D02*
X0026780Y0098197D01*
X0028131Y0099179D02*
X0024194Y0099179D01*
X0024195Y0100162D02*
X0026012Y0100162D01*
X0025735Y0101145D02*
X0024197Y0101145D01*
X0024199Y0102128D02*
X0025735Y0102128D01*
X0025735Y0103110D02*
X0024200Y0103110D01*
X0024202Y0104093D02*
X0025735Y0104093D01*
X0025735Y0105076D02*
X0024204Y0105076D01*
X0024205Y0106059D02*
X0025735Y0106059D01*
X0026294Y0107041D02*
X0024207Y0107041D01*
X0024209Y0108024D02*
X0026024Y0108024D01*
X0025735Y0109007D02*
X0024210Y0109007D01*
X0024212Y0109990D02*
X0025735Y0109990D01*
X0025735Y0110973D02*
X0024214Y0110973D01*
X0024215Y0111955D02*
X0025735Y0111955D01*
X0025735Y0112938D02*
X0024217Y0112938D01*
X0024219Y0113921D02*
X0025735Y0113921D01*
X0026282Y0114904D02*
X0024221Y0114904D01*
X0024222Y0115886D02*
X0031836Y0115886D01*
X0030853Y0116869D02*
X0024224Y0116869D01*
X0024226Y0117852D02*
X0028515Y0117852D01*
X0027149Y0118835D02*
X0024227Y0118835D01*
X0024229Y0119817D02*
X0026488Y0119817D01*
X0026097Y0120800D02*
X0024231Y0120800D01*
X0024232Y0121783D02*
X0026097Y0121783D01*
X0026257Y0122766D02*
X0024234Y0122766D01*
X0024236Y0123748D02*
X0026664Y0123748D01*
X0027573Y0124731D02*
X0024237Y0124731D01*
X0024243Y0127680D02*
X0026054Y0127680D01*
X0025341Y0128662D02*
X0024244Y0128662D01*
X0024246Y0129645D02*
X0025341Y0129645D01*
X0025341Y0130628D02*
X0024248Y0130628D01*
X0024249Y0131611D02*
X0025341Y0131611D01*
X0025341Y0132593D02*
X0024251Y0132593D01*
X0024253Y0133576D02*
X0025341Y0133576D01*
X0025465Y0134559D02*
X0024254Y0134559D01*
X0024256Y0135542D02*
X0026065Y0135542D01*
X0025341Y0136524D02*
X0024258Y0136524D01*
X0024259Y0137507D02*
X0025341Y0137507D01*
X0025341Y0138490D02*
X0024261Y0138490D01*
X0024263Y0139473D02*
X0025341Y0139473D01*
X0025341Y0140455D02*
X0024264Y0140455D01*
X0024266Y0141438D02*
X0025341Y0141438D01*
X0025453Y0142421D02*
X0024268Y0142421D01*
X0024270Y0143404D02*
X0026436Y0143404D01*
X0026315Y0144387D02*
X0024271Y0144387D01*
X0024273Y0145369D02*
X0025774Y0145369D01*
X0025774Y0146352D02*
X0024275Y0146352D01*
X0024276Y0147335D02*
X0025774Y0147335D01*
X0025774Y0148318D02*
X0024278Y0148318D01*
X0024280Y0149300D02*
X0025774Y0149300D01*
X0025774Y0150283D02*
X0024281Y0150283D01*
X0024283Y0151266D02*
X0025774Y0151266D01*
X0026659Y0152249D02*
X0024285Y0152249D01*
X0024286Y0153231D02*
X0026592Y0153231D01*
X0026349Y0154214D02*
X0024288Y0154214D01*
X0024290Y0155197D02*
X0026349Y0155197D01*
X0026349Y0157162D02*
X0024293Y0157162D01*
X0024292Y0156180D02*
X0029711Y0156180D01*
X0029711Y0157162D02*
X0030695Y0157162D01*
X0030696Y0156180D02*
X0036678Y0156180D01*
X0035723Y0157162D02*
X0034058Y0157162D01*
X0034058Y0158145D02*
X0034740Y0158145D01*
X0034222Y0159128D02*
X0034016Y0159128D01*
X0033815Y0160111D02*
X0033237Y0160111D01*
X0033734Y0161093D02*
X0024300Y0161093D01*
X0024298Y0160111D02*
X0027169Y0160111D01*
X0026391Y0159128D02*
X0024297Y0159128D01*
X0024295Y0158145D02*
X0026349Y0158145D01*
X0024302Y0162076D02*
X0033284Y0162076D01*
X0032301Y0163059D02*
X0024303Y0163059D01*
X0024305Y0164042D02*
X0031318Y0164042D01*
X0030335Y0165025D02*
X0024307Y0165025D01*
X0024308Y0166007D02*
X0029353Y0166007D01*
X0028370Y0166990D02*
X0024310Y0166990D01*
X0024312Y0167973D02*
X0027387Y0167973D01*
X0026644Y0168956D02*
X0024314Y0168956D01*
X0024315Y0169938D02*
X0026424Y0169938D01*
X0026424Y0170921D02*
X0024317Y0170921D01*
X0024319Y0171904D02*
X0026424Y0171904D01*
X0026424Y0172887D02*
X0024320Y0172887D01*
X0024322Y0173869D02*
X0026424Y0173869D01*
X0026424Y0174852D02*
X0024324Y0174852D01*
X0024325Y0175835D02*
X0026424Y0175835D01*
X0026424Y0176818D02*
X0024327Y0176818D01*
X0024329Y0177800D02*
X0026424Y0177800D01*
X0026424Y0178783D02*
X0024330Y0178783D01*
X0024332Y0179766D02*
X0026424Y0179766D01*
X0026424Y0180749D02*
X0024334Y0180749D01*
X0024335Y0181732D02*
X0026424Y0181732D01*
X0026424Y0182714D02*
X0024337Y0182714D01*
X0024339Y0183697D02*
X0026424Y0183697D01*
X0026424Y0184680D02*
X0024341Y0184680D01*
X0024342Y0185663D02*
X0026424Y0185663D01*
X0026424Y0186645D02*
X0024344Y0186645D01*
X0024346Y0187628D02*
X0026424Y0187628D01*
X0026424Y0188611D02*
X0024347Y0188611D01*
X0024349Y0189594D02*
X0026666Y0189594D01*
X0027440Y0190576D02*
X0024351Y0190576D01*
X0024352Y0191559D02*
X0028423Y0191559D01*
X0029406Y0192542D02*
X0024354Y0192542D01*
X0024356Y0193525D02*
X0030389Y0193525D01*
X0031371Y0194507D02*
X0024357Y0194507D01*
X0024359Y0195490D02*
X0032354Y0195490D01*
X0033337Y0196473D02*
X0024361Y0196473D01*
X0024363Y0197456D02*
X0034320Y0197456D01*
X0035302Y0198438D02*
X0024364Y0198438D01*
X0024366Y0199421D02*
X0036285Y0199421D01*
X0037268Y0200404D02*
X0024368Y0200404D01*
X0024369Y0201387D02*
X0038251Y0201387D01*
X0038410Y0202370D02*
X0024371Y0202370D01*
X0024373Y0203352D02*
X0038420Y0203352D01*
X0038430Y0204335D02*
X0024374Y0204335D01*
X0024376Y0205318D02*
X0038303Y0205318D01*
X0037336Y0206301D02*
X0024378Y0206301D01*
X0024379Y0207283D02*
X0036928Y0207283D01*
X0036727Y0208266D02*
X0024381Y0208266D01*
X0024383Y0209249D02*
X0036727Y0209249D01*
X0037077Y0210232D02*
X0024384Y0210232D01*
X0024386Y0211214D02*
X0037678Y0211214D01*
X0038902Y0212197D02*
X0024388Y0212197D01*
X0024390Y0213180D02*
X0078871Y0213180D01*
X0077832Y0214163D02*
X0024391Y0214163D01*
X0024393Y0215145D02*
X0076792Y0215145D01*
X0075753Y0216128D02*
X0024395Y0216128D01*
X0024396Y0217111D02*
X0074713Y0217111D01*
X0073674Y0218094D02*
X0037909Y0218094D01*
X0037980Y0218123D02*
X0039124Y0219267D01*
X0039743Y0220762D01*
X0039743Y0222380D01*
X0039124Y0223875D01*
X0037980Y0225019D01*
X0036485Y0225638D01*
X0034867Y0225638D01*
X0033372Y0225019D01*
X0032228Y0223875D01*
X0031609Y0222380D01*
X0031609Y0220762D01*
X0032228Y0219267D01*
X0033372Y0218123D01*
X0034867Y0217504D01*
X0036485Y0217504D01*
X0037980Y0218123D01*
X0038933Y0219077D02*
X0072634Y0219077D01*
X0071595Y0220059D02*
X0039452Y0220059D01*
X0039743Y0221042D02*
X0070555Y0221042D01*
X0067872Y0222025D02*
X0039743Y0222025D01*
X0039483Y0223008D02*
X0066283Y0223008D01*
X0065530Y0223990D02*
X0039008Y0223990D01*
X0038025Y0224973D02*
X0065123Y0224973D01*
X0065073Y0225956D02*
X0024412Y0225956D01*
X0024410Y0224973D02*
X0033327Y0224973D01*
X0032344Y0223990D02*
X0024408Y0223990D01*
X0024406Y0223008D02*
X0031869Y0223008D01*
X0031609Y0222025D02*
X0024405Y0222025D01*
X0024403Y0221042D02*
X0031609Y0221042D01*
X0031900Y0220059D02*
X0024401Y0220059D01*
X0024400Y0219077D02*
X0032419Y0219077D01*
X0033443Y0218094D02*
X0024398Y0218094D01*
X0041030Y0208264D02*
X0040951Y0200705D01*
X0041188Y0200705D01*
X0028983Y0188500D01*
X0028983Y0169996D01*
X0037605Y0161374D01*
X0039101Y0161374D01*
X0035334Y0155197D02*
X0034058Y0155197D01*
X0034058Y0154214D02*
X0034468Y0154214D01*
X0034061Y0153231D02*
X0033815Y0153231D01*
X0030695Y0158145D02*
X0029711Y0158145D01*
X0029711Y0159128D02*
X0030695Y0159128D01*
X0030695Y0160111D02*
X0029711Y0160111D01*
X0030203Y0148146D02*
X0030164Y0139287D01*
X0030164Y0131413D02*
X0039101Y0131374D01*
X0039101Y0141374D02*
X0050243Y0130232D01*
X0052999Y0130232D01*
X0056148Y0127083D01*
X0067172Y0127083D01*
X0062447Y0117634D02*
X0084101Y0116059D01*
X0096306Y0111728D01*
X0096306Y0106053D01*
X0096325Y0105246D01*
X0101325Y0105246D02*
X0101325Y0112417D01*
X0101818Y0112909D01*
X0108510Y0112909D01*
X0111660Y0116059D01*
X0111660Y0134169D01*
X0117762Y0140272D01*
X0117762Y0141217D01*
X0117408Y0140862D01*
X0112447Y0149524D02*
X0112447Y0160154D01*
X0112054Y0160547D01*
X0108196Y0160547D01*
X0106621Y0162122D01*
X0108589Y0171768D01*
X0108589Y0173461D01*
X0104967Y0177083D01*
X0102605Y0177083D01*
X0101818Y0177870D01*
X0101818Y0182043D01*
X0102369Y0182594D01*
X0101424Y0182594D01*
X0093156Y0174327D01*
X0093156Y0172043D01*
X0092723Y0173972D01*
X0092054Y0182791D02*
X0102172Y0182791D01*
X0102369Y0182594D01*
X0102133Y0182594D01*
X0103392Y0188500D02*
X0098668Y0188500D01*
X0097112Y0190316D01*
X0094990Y0192437D01*
X0085282Y0192437D01*
X0086463Y0199524D02*
X0080558Y0205429D01*
X0060085Y0205429D01*
X0061266Y0205429D01*
X0068747Y0197949D01*
X0068747Y0195587D01*
X0065597Y0192437D01*
X0058510Y0192043D01*
X0055755Y0189287D01*
X0053786Y0189287D01*
X0053392Y0188894D01*
X0051818Y0188894D01*
X0050636Y0187713D01*
X0050636Y0183343D01*
X0050243Y0182949D01*
X0051030Y0177870D02*
X0050243Y0177083D01*
X0050243Y0173224D01*
X0049967Y0172949D01*
X0051030Y0177870D02*
X0056936Y0177870D01*
X0057723Y0178657D01*
X0057723Y0182949D01*
X0062841Y0182555D01*
X0068353Y0182949D01*
X0066778Y0177476D02*
X0065597Y0176295D01*
X0065597Y0173697D01*
X0066581Y0172713D01*
X0066778Y0177476D02*
X0072684Y0177476D01*
X0074259Y0179051D01*
X0075833Y0182949D01*
X0084416Y0182949D01*
X0084573Y0182791D01*
X0082487Y0173972D02*
X0090203Y0166256D01*
X0090203Y0165232D01*
X0091975Y0159760D02*
X0094731Y0159760D01*
X0098668Y0163697D01*
X0098668Y0169327D01*
X0101109Y0171768D01*
X0101424Y0171768D01*
X0107519Y0178150D02*
X0109357Y0178150D01*
X0109357Y0182102D01*
X0110341Y0182102D01*
X0110341Y0178150D01*
X0112605Y0178150D01*
X0112984Y0178251D01*
X0113143Y0178343D01*
X0113213Y0178176D01*
X0114722Y0176667D01*
X0115809Y0176217D01*
X0114722Y0175766D01*
X0113215Y0174259D01*
X0113215Y0175577D01*
X0112004Y0176787D01*
X0108881Y0176787D01*
X0107519Y0178150D01*
X0107868Y0177800D02*
X0113589Y0177800D01*
X0114571Y0176818D02*
X0108851Y0176818D01*
X0109357Y0178783D02*
X0110341Y0178783D01*
X0110341Y0179766D02*
X0109357Y0179766D01*
X0109357Y0180749D02*
X0110341Y0180749D01*
X0110341Y0181732D02*
X0109357Y0181732D01*
X0109357Y0183697D02*
X0110341Y0183697D01*
X0110341Y0184680D02*
X0109357Y0184680D01*
X0109357Y0185663D02*
X0110341Y0185663D01*
X0110341Y0186645D02*
X0109357Y0186645D01*
X0108105Y0189594D02*
X0112626Y0189594D01*
X0112396Y0190576D02*
X0109088Y0190576D01*
X0109966Y0191559D02*
X0112396Y0191559D01*
X0112502Y0192542D02*
X0110282Y0192542D01*
X0110282Y0193525D02*
X0112909Y0193525D01*
X0113463Y0194507D02*
X0110282Y0194507D01*
X0110282Y0195490D02*
X0114446Y0195490D01*
X0112027Y0199421D02*
X0135303Y0199421D01*
X0135301Y0198438D02*
X0111044Y0198438D01*
X0110519Y0197456D02*
X0135300Y0197456D01*
X0135298Y0196473D02*
X0119097Y0196473D01*
X0121079Y0195490D02*
X0135296Y0195490D01*
X0135294Y0194507D02*
X0122062Y0194507D01*
X0122615Y0193525D02*
X0135293Y0193525D01*
X0135291Y0192542D02*
X0123023Y0192542D01*
X0123129Y0191559D02*
X0135289Y0191559D01*
X0135288Y0190576D02*
X0123129Y0190576D01*
X0122899Y0189594D02*
X0135286Y0189594D01*
X0135284Y0188611D02*
X0122492Y0188611D01*
X0121764Y0187628D02*
X0135283Y0187628D01*
X0135281Y0186645D02*
X0120751Y0186645D01*
X0120906Y0185663D02*
X0135279Y0185663D01*
X0135278Y0184680D02*
X0121889Y0184680D01*
X0122544Y0183697D02*
X0135276Y0183697D01*
X0135274Y0182714D02*
X0122951Y0182714D01*
X0123129Y0181732D02*
X0135273Y0181732D01*
X0135271Y0180749D02*
X0123129Y0180749D01*
X0122971Y0179766D02*
X0135269Y0179766D01*
X0135267Y0178783D02*
X0122564Y0178783D01*
X0121936Y0177800D02*
X0135266Y0177800D01*
X0135264Y0176818D02*
X0120954Y0176818D01*
X0120637Y0175835D02*
X0135262Y0175835D01*
X0135261Y0174852D02*
X0121717Y0174852D01*
X0122473Y0173869D02*
X0135259Y0173869D01*
X0135257Y0172887D02*
X0122880Y0172887D01*
X0123129Y0171904D02*
X0135256Y0171904D01*
X0135254Y0170921D02*
X0123129Y0170921D01*
X0123042Y0169938D02*
X0135252Y0169938D01*
X0135251Y0168956D02*
X0122635Y0168956D01*
X0122109Y0167973D02*
X0135249Y0167973D01*
X0135247Y0166990D02*
X0121126Y0166990D01*
X0120221Y0166007D02*
X0135245Y0166007D01*
X0135244Y0165025D02*
X0121544Y0165025D01*
X0122401Y0164042D02*
X0135242Y0164042D01*
X0135240Y0163059D02*
X0122808Y0163059D01*
X0123129Y0162076D02*
X0135239Y0162076D01*
X0135237Y0161093D02*
X0123129Y0161093D01*
X0123113Y0160111D02*
X0135235Y0160111D01*
X0135234Y0159128D02*
X0123470Y0159128D01*
X0124453Y0158145D02*
X0135232Y0158145D01*
X0135230Y0157162D02*
X0125436Y0157162D01*
X0126418Y0156180D02*
X0135229Y0156180D01*
X0135227Y0155197D02*
X0126818Y0155197D01*
X0126818Y0154214D02*
X0135225Y0154214D01*
X0135223Y0153231D02*
X0126818Y0153231D01*
X0126818Y0152249D02*
X0135222Y0152249D01*
X0135220Y0151266D02*
X0126818Y0151266D01*
X0126818Y0150283D02*
X0135218Y0150283D01*
X0135217Y0149300D02*
X0126818Y0149300D01*
X0126818Y0148318D02*
X0135215Y0148318D01*
X0135213Y0147335D02*
X0126818Y0147335D01*
X0126818Y0146352D02*
X0135212Y0146352D01*
X0135210Y0145369D02*
X0126818Y0145369D01*
X0126818Y0144387D02*
X0135208Y0144387D01*
X0135207Y0143404D02*
X0126818Y0143404D01*
X0126818Y0142421D02*
X0135205Y0142421D01*
X0135203Y0141438D02*
X0126818Y0141438D01*
X0126818Y0140455D02*
X0135202Y0140455D01*
X0135200Y0139473D02*
X0126818Y0139473D01*
X0126818Y0138490D02*
X0135198Y0138490D01*
X0135196Y0137507D02*
X0126818Y0137507D01*
X0126818Y0136524D02*
X0135195Y0136524D01*
X0135193Y0135542D02*
X0126818Y0135542D01*
X0126818Y0134559D02*
X0135191Y0134559D01*
X0135190Y0133576D02*
X0126818Y0133576D01*
X0126818Y0132593D02*
X0135188Y0132593D01*
X0135186Y0131611D02*
X0126818Y0131611D01*
X0126818Y0130628D02*
X0135185Y0130628D01*
X0135183Y0129645D02*
X0126818Y0129645D01*
X0126818Y0128662D02*
X0135181Y0128662D01*
X0135180Y0127680D02*
X0126818Y0127680D01*
X0126818Y0126697D02*
X0135178Y0126697D01*
X0135176Y0125714D02*
X0126818Y0125714D01*
X0126818Y0124731D02*
X0135174Y0124731D01*
X0135173Y0123748D02*
X0126818Y0123748D01*
X0126818Y0122766D02*
X0135171Y0122766D01*
X0135169Y0121783D02*
X0126818Y0121783D01*
X0126818Y0120800D02*
X0135168Y0120800D01*
X0135166Y0119817D02*
X0126818Y0119817D01*
X0126818Y0118835D02*
X0135164Y0118835D01*
X0135163Y0117852D02*
X0126818Y0117852D01*
X0126818Y0116869D02*
X0135161Y0116869D01*
X0135159Y0115886D02*
X0126818Y0115886D01*
X0126818Y0114904D02*
X0135158Y0114904D01*
X0135156Y0113921D02*
X0126818Y0113921D01*
X0126818Y0112938D02*
X0135154Y0112938D01*
X0135153Y0111955D02*
X0126818Y0111955D01*
X0126818Y0110973D02*
X0135151Y0110973D01*
X0135149Y0109990D02*
X0126818Y0109990D01*
X0126818Y0109007D02*
X0135147Y0109007D01*
X0135146Y0108024D02*
X0126818Y0108024D01*
X0126818Y0107041D02*
X0135144Y0107041D01*
X0135142Y0106059D02*
X0126818Y0106059D01*
X0126818Y0105076D02*
X0135141Y0105076D01*
X0135139Y0104093D02*
X0126818Y0104093D01*
X0126818Y0103110D02*
X0135137Y0103110D01*
X0135136Y0102128D02*
X0126818Y0102128D01*
X0126818Y0101145D02*
X0135134Y0101145D01*
X0135132Y0100162D02*
X0126818Y0100162D01*
X0126818Y0099179D02*
X0135131Y0099179D01*
X0135129Y0098197D02*
X0126818Y0098197D01*
X0126818Y0097214D02*
X0135127Y0097214D01*
X0135125Y0096231D02*
X0126818Y0096231D01*
X0126562Y0095248D02*
X0135124Y0095248D01*
X0135122Y0094266D02*
X0125769Y0094266D01*
X0124259Y0096374D02*
X0124259Y0154720D01*
X0117762Y0161217D01*
X0112447Y0149524D02*
X0094731Y0131807D01*
X0094731Y0131020D01*
X0057723Y0131020D01*
X0047487Y0141256D01*
X0047487Y0157398D01*
X0047093Y0157004D01*
X0047487Y0156610D01*
X0047487Y0157398D02*
X0047487Y0158185D01*
X0049455Y0160154D01*
X0052605Y0160154D01*
X0052841Y0160390D01*
X0052841Y0162949D02*
X0052211Y0163579D01*
X0052211Y0164878D01*
X0055164Y0167831D01*
X0060282Y0167831D01*
X0057447Y0170665D01*
X0057447Y0172949D01*
X0060282Y0167831D02*
X0061266Y0166846D01*
X0072054Y0166846D01*
X0082723Y0165232D01*
X0082723Y0161531D01*
X0084101Y0160154D01*
X0086070Y0160154D01*
X0087251Y0158972D01*
X0091188Y0158972D01*
X0091975Y0159760D01*
X0096896Y0154957D02*
X0097211Y0154642D01*
X0106621Y0154642D01*
X0096896Y0147476D02*
X0095912Y0146492D01*
X0095912Y0139287D01*
X0091581Y0134957D01*
X0091188Y0135350D01*
X0057723Y0135350D01*
X0052841Y0140232D01*
X0052841Y0148106D01*
X0058904Y0142043D01*
X0061739Y0142043D01*
X0059770Y0142437D01*
X0062329Y0142240D01*
X0073235Y0142634D01*
X0072999Y0150469D02*
X0062369Y0149681D01*
X0059770Y0149917D01*
X0061148Y0156217D02*
X0067566Y0156217D01*
X0067566Y0155429D01*
X0066778Y0154642D01*
X0067566Y0156217D02*
X0070321Y0156217D01*
X0071660Y0157555D01*
X0072999Y0158343D01*
X0075912Y0157004D01*
X0081739Y0157004D01*
X0085125Y0153618D01*
X0085794Y0154406D01*
X0085794Y0149130D01*
X0086070Y0149130D01*
X0085046Y0144957D01*
X0080715Y0142634D01*
X0090400Y0119996D02*
X0091188Y0119209D01*
X0090400Y0119996D02*
X0105361Y0119996D01*
X0101424Y0106033D02*
X0101325Y0105246D01*
X0110085Y0097949D02*
X0111660Y0096374D01*
X0124259Y0096374D01*
X0122716Y0093283D02*
X0135120Y0093283D01*
X0135119Y0092300D02*
X0123123Y0092300D01*
X0123129Y0091317D02*
X0135117Y0091317D01*
X0135115Y0090335D02*
X0123129Y0090335D01*
X0122799Y0089352D02*
X0135114Y0089352D01*
X0135112Y0088369D02*
X0122392Y0088369D01*
X0121522Y0087386D02*
X0135110Y0087386D01*
X0135109Y0086403D02*
X0120167Y0086403D01*
X0121148Y0085421D02*
X0135107Y0085421D01*
X0135105Y0084438D02*
X0128560Y0084438D01*
X0129872Y0083455D02*
X0135104Y0083455D01*
X0135102Y0082472D02*
X0130952Y0082472D01*
X0131477Y0081490D02*
X0135100Y0081490D01*
X0135098Y0080507D02*
X0131542Y0080507D01*
X0131215Y0079524D02*
X0135097Y0079524D01*
X0135095Y0078541D02*
X0130162Y0078541D01*
X0128499Y0077559D02*
X0135093Y0077559D01*
X0135092Y0076576D02*
X0120583Y0076576D01*
X0119729Y0075593D02*
X0135090Y0075593D01*
X0135088Y0074610D02*
X0121146Y0074610D01*
X0121912Y0073628D02*
X0135087Y0073628D01*
X0135085Y0072645D02*
X0122337Y0072645D01*
X0121694Y0077559D02*
X0123955Y0077559D01*
X0122954Y0078541D02*
X0122463Y0078541D01*
X0122131Y0084438D02*
X0123894Y0084438D01*
X0128589Y0081217D02*
X0128983Y0080823D01*
X0128589Y0081217D02*
X0117762Y0081217D01*
X0113133Y0088369D02*
X0098478Y0088369D01*
X0097175Y0089352D02*
X0112726Y0089352D01*
X0112396Y0090335D02*
X0095209Y0090335D01*
X0093244Y0091317D02*
X0112396Y0091317D01*
X0112402Y0092300D02*
X0052064Y0092300D01*
X0052078Y0093283D02*
X0112809Y0093283D01*
X0110149Y0094266D02*
X0052093Y0094266D01*
X0052107Y0095248D02*
X0056641Y0095248D01*
X0055770Y0096231D02*
X0052121Y0096231D01*
X0052135Y0097214D02*
X0055363Y0097214D01*
X0055231Y0098197D02*
X0052149Y0098197D01*
X0052164Y0099179D02*
X0055243Y0099179D01*
X0055650Y0100162D02*
X0052178Y0100162D01*
X0052192Y0101145D02*
X0056349Y0101145D01*
X0057809Y0102128D02*
X0052206Y0102128D01*
X0052221Y0103110D02*
X0062959Y0103110D01*
X0062959Y0102128D02*
X0060787Y0102128D01*
X0062780Y0101145D02*
X0062959Y0101145D01*
X0062959Y0104093D02*
X0052235Y0104093D01*
X0052249Y0105076D02*
X0062959Y0105076D01*
X0062959Y0106059D02*
X0052263Y0106059D01*
X0052278Y0107041D02*
X0062959Y0107041D01*
X0062959Y0108024D02*
X0052292Y0108024D01*
X0052306Y0109007D02*
X0062959Y0109007D01*
X0062959Y0109990D02*
X0052320Y0109990D01*
X0052335Y0110973D02*
X0063829Y0110973D01*
X0064708Y0114904D02*
X0062300Y0114904D01*
X0062447Y0117634D02*
X0054967Y0115272D01*
X0052532Y0111955D02*
X0052349Y0111955D01*
X0057402Y0111955D02*
X0088014Y0111955D01*
X0088822Y0110973D02*
X0090783Y0110973D01*
X0091168Y0109990D02*
X0091483Y0109990D01*
X0091483Y0109007D02*
X0091168Y0109007D01*
X0091168Y0108024D02*
X0091483Y0108024D01*
X0091483Y0107041D02*
X0091168Y0107041D01*
X0091168Y0106059D02*
X0091483Y0106059D01*
X0085244Y0112938D02*
X0058385Y0112938D01*
X0059188Y0113921D02*
X0078222Y0113921D01*
X0078829Y0110973D02*
X0073822Y0110973D01*
X0076168Y0109990D02*
X0076483Y0109990D01*
X0076483Y0109007D02*
X0076168Y0109007D01*
X0076168Y0108024D02*
X0076483Y0108024D01*
X0076483Y0107041D02*
X0076168Y0107041D01*
X0076168Y0106059D02*
X0076483Y0106059D01*
X0083822Y0110973D02*
X0083829Y0110973D01*
X0068829Y0110973D02*
X0068822Y0110973D01*
X0062054Y0097949D02*
X0110085Y0097949D01*
X0109167Y0095248D02*
X0063026Y0095248D01*
X0066325Y0081046D02*
X0058271Y0073779D01*
X0060416Y0071662D02*
X0062404Y0071662D01*
X0062251Y0070679D02*
X0058791Y0070679D01*
X0058796Y0069696D02*
X0057808Y0069696D01*
X0056988Y0068714D02*
X0056825Y0068714D01*
X0056145Y0067731D02*
X0055842Y0067731D01*
X0055738Y0066748D02*
X0054860Y0066748D01*
X0054160Y0065765D02*
X0055625Y0065765D01*
X0055655Y0064783D02*
X0054160Y0064783D01*
X0053859Y0063800D02*
X0056062Y0063800D01*
X0056464Y0062817D02*
X0024131Y0062817D01*
X0024129Y0061834D02*
X0056254Y0061834D01*
X0056043Y0060852D02*
X0033860Y0060852D01*
X0034294Y0059869D02*
X0055832Y0059869D01*
X0055622Y0058886D02*
X0034294Y0058886D01*
X0034294Y0057903D02*
X0055411Y0057903D01*
X0055201Y0056921D02*
X0044312Y0056921D01*
X0045295Y0055938D02*
X0054990Y0055938D01*
X0054024Y0054955D02*
X0045499Y0054955D01*
X0045499Y0053972D02*
X0053041Y0053972D01*
X0052058Y0052990D02*
X0045499Y0052990D01*
X0045499Y0052007D02*
X0051075Y0052007D01*
X0051857Y0049169D02*
X0057329Y0054642D01*
X0059692Y0065665D01*
X0061528Y0062024D02*
X0061995Y0062218D01*
X0062251Y0062473D01*
X0062251Y0049403D01*
X0055915Y0043067D01*
X0045174Y0043067D01*
X0044288Y0043953D01*
X0043349Y0043953D01*
X0043349Y0044642D01*
X0039101Y0044642D01*
X0039101Y0045035D01*
X0043349Y0045035D01*
X0043349Y0045724D01*
X0044288Y0045724D01*
X0045174Y0046610D01*
X0052366Y0046610D01*
X0053307Y0047000D01*
X0058947Y0052640D01*
X0059147Y0052770D01*
X0059304Y0052997D01*
X0059499Y0053192D01*
X0059590Y0053412D01*
X0059725Y0053608D01*
X0059783Y0053878D01*
X0059888Y0054133D01*
X0059888Y0054371D01*
X0061528Y0062024D01*
X0061488Y0061834D02*
X0062251Y0061834D01*
X0062251Y0060852D02*
X0061277Y0060852D01*
X0061067Y0059869D02*
X0062251Y0059869D01*
X0062251Y0058886D02*
X0060856Y0058886D01*
X0060645Y0057903D02*
X0062251Y0057903D01*
X0062251Y0056921D02*
X0060435Y0056921D01*
X0060224Y0055938D02*
X0062251Y0055938D01*
X0062251Y0054955D02*
X0060014Y0054955D01*
X0059822Y0053972D02*
X0062251Y0053972D01*
X0062251Y0052990D02*
X0059299Y0052990D01*
X0058313Y0052007D02*
X0062251Y0052007D01*
X0062251Y0051024D02*
X0057331Y0051024D01*
X0056348Y0050041D02*
X0062251Y0050041D01*
X0061907Y0049058D02*
X0055365Y0049058D01*
X0054382Y0048076D02*
X0060924Y0048076D01*
X0059941Y0047093D02*
X0053400Y0047093D01*
X0051857Y0049169D02*
X0040479Y0049169D01*
X0038904Y0044839D02*
X0031384Y0044839D01*
X0031345Y0044799D01*
X0031345Y0051492D01*
X0034888Y0054642D01*
X0035676Y0055429D01*
X0035676Y0057004D01*
X0037644Y0058972D01*
X0037644Y0059366D01*
X0037428Y0059583D01*
X0037428Y0067909D01*
X0036936Y0067731D02*
X0024139Y0067731D01*
X0024141Y0068714D02*
X0032097Y0068714D01*
X0032097Y0069696D02*
X0024143Y0069696D01*
X0024145Y0070679D02*
X0032097Y0070679D01*
X0032328Y0071662D02*
X0024146Y0071662D01*
X0024148Y0072645D02*
X0043276Y0072645D01*
X0041542Y0076576D02*
X0054090Y0076576D01*
X0053234Y0077559D02*
X0042876Y0077559D01*
X0043737Y0078541D02*
X0052252Y0078541D01*
X0051269Y0079524D02*
X0044144Y0079524D01*
X0044468Y0080507D02*
X0050286Y0080507D01*
X0049303Y0081490D02*
X0044468Y0081490D01*
X0044455Y0082472D02*
X0048321Y0082472D01*
X0047338Y0083455D02*
X0044048Y0083455D01*
X0043627Y0084438D02*
X0046355Y0084438D01*
X0045372Y0085421D02*
X0042644Y0085421D01*
X0041126Y0086403D02*
X0044390Y0086403D01*
X0043407Y0087386D02*
X0042703Y0087386D01*
X0035499Y0087386D02*
X0034688Y0087386D01*
X0030833Y0094602D02*
X0030558Y0103461D01*
X0030558Y0111335D02*
X0028629Y0111374D01*
X0039101Y0111374D01*
X0052841Y0148106D02*
X0052841Y0157831D01*
X0046699Y0164484D02*
X0044337Y0166846D01*
X0044337Y0189012D01*
X0046699Y0191374D01*
X0053117Y0191374D01*
X0058904Y0197161D01*
X0056395Y0200404D02*
X0043747Y0200404D01*
X0043675Y0201387D02*
X0059217Y0201387D01*
X0057393Y0202370D02*
X0043528Y0202370D01*
X0043538Y0203352D02*
X0056544Y0203352D01*
X0056136Y0204335D02*
X0043548Y0204335D01*
X0043559Y0205318D02*
X0056018Y0205318D01*
X0056044Y0206301D02*
X0044252Y0206301D01*
X0044659Y0207283D02*
X0056451Y0207283D01*
X0057171Y0208266D02*
X0044861Y0208266D01*
X0044861Y0209249D02*
X0058680Y0209249D01*
X0061491Y0209249D02*
X0083029Y0209249D01*
X0081989Y0210232D02*
X0044511Y0210232D01*
X0043910Y0211214D02*
X0080950Y0211214D01*
X0079911Y0212197D02*
X0042686Y0212197D01*
X0043426Y0199421D02*
X0055438Y0199421D01*
X0055031Y0198438D02*
X0042540Y0198438D01*
X0041558Y0197456D02*
X0054837Y0197456D01*
X0054597Y0196473D02*
X0040816Y0196473D01*
X0042575Y0195490D02*
X0053614Y0195490D01*
X0052631Y0194507D02*
X0043558Y0194507D01*
X0044019Y0193525D02*
X0045231Y0193525D01*
X0060954Y0201387D02*
X0061690Y0201387D01*
X0061413Y0200404D02*
X0062672Y0200404D01*
X0062370Y0199421D02*
X0063655Y0199421D01*
X0062777Y0198438D02*
X0064638Y0198438D01*
X0065621Y0197456D02*
X0062971Y0197456D01*
X0062971Y0196473D02*
X0066014Y0196473D01*
X0065031Y0195490D02*
X0062614Y0195490D01*
X0063000Y0208266D02*
X0084068Y0208266D01*
X0085108Y0207283D02*
X0082323Y0207283D01*
X0083305Y0206301D02*
X0086147Y0206301D01*
X0086727Y0205318D02*
X0084288Y0205318D01*
X0085271Y0204335D02*
X0086727Y0204335D01*
X0087089Y0203352D02*
X0086254Y0203352D01*
X0087236Y0202370D02*
X0087708Y0202370D01*
X0086463Y0199524D02*
X0097987Y0199524D01*
X0098599Y0198912D01*
X0104967Y0210941D01*
X0099849Y0210941D01*
X0099849Y0213697D01*
X0086070Y0223146D01*
X0069140Y0225902D02*
X0090794Y0205429D01*
X0090794Y0205035D01*
X0096306Y0191256D02*
X0097112Y0190316D01*
X0100847Y0193618D02*
X0100847Y0196191D01*
X0110085Y0205429D01*
X0110085Y0221177D01*
X0112054Y0223146D01*
X0114810Y0218028D02*
X0114810Y0205823D01*
X0108117Y0199130D01*
X0108117Y0198343D01*
X0107723Y0197949D01*
X0107723Y0192831D01*
X0103392Y0188500D01*
X0106139Y0187628D02*
X0113761Y0187628D01*
X0113420Y0186645D02*
X0114774Y0186645D01*
X0114619Y0185663D02*
X0113900Y0185663D01*
X0113033Y0188611D02*
X0107122Y0188611D01*
X0110282Y0196473D02*
X0116428Y0196473D01*
X0113993Y0201387D02*
X0135306Y0201387D01*
X0135308Y0202370D02*
X0114975Y0202370D01*
X0115958Y0203352D02*
X0135310Y0203352D01*
X0135311Y0204335D02*
X0116941Y0204335D01*
X0117369Y0205318D02*
X0135313Y0205318D01*
X0135315Y0206301D02*
X0117369Y0206301D01*
X0117369Y0207283D02*
X0135316Y0207283D01*
X0135318Y0208266D02*
X0117369Y0208266D01*
X0117369Y0209249D02*
X0135320Y0209249D01*
X0135322Y0210232D02*
X0117369Y0210232D01*
X0117369Y0211214D02*
X0135323Y0211214D01*
X0135325Y0212197D02*
X0117369Y0212197D01*
X0117369Y0213180D02*
X0135327Y0213180D01*
X0135328Y0214163D02*
X0117369Y0214163D01*
X0117369Y0215145D02*
X0135330Y0215145D01*
X0135332Y0216128D02*
X0117369Y0216128D01*
X0117512Y0217111D02*
X0135333Y0217111D01*
X0135335Y0218094D02*
X0118495Y0218094D01*
X0119478Y0219077D02*
X0135337Y0219077D01*
X0135338Y0220059D02*
X0120460Y0220059D01*
X0121365Y0221042D02*
X0135340Y0221042D01*
X0135342Y0222025D02*
X0121699Y0222025D01*
X0121699Y0223008D02*
X0135343Y0223008D01*
X0135345Y0223990D02*
X0121699Y0223990D01*
X0122275Y0224973D02*
X0135347Y0224973D01*
X0135349Y0225956D02*
X0122682Y0225956D01*
X0119928Y0226295D02*
X0118747Y0227083D01*
X0119140Y0226331D02*
X0119140Y0222358D01*
X0114810Y0218028D01*
X0113010Y0200404D02*
X0135305Y0200404D01*
X0114888Y0175835D02*
X0112957Y0175835D01*
X0113215Y0174852D02*
X0113808Y0174852D01*
X0082487Y0173972D02*
X0074770Y0172004D01*
X0074062Y0172713D01*
X0065991Y0162122D02*
X0060361Y0162122D01*
X0059534Y0162949D01*
X0059534Y0157831D02*
X0061148Y0156217D01*
X0071109Y0081617D02*
X0071109Y0077083D01*
X0064810Y0070783D01*
X0064810Y0048343D01*
X0056975Y0040508D01*
X0040479Y0040508D01*
X0038904Y0036177D02*
X0039337Y0035744D01*
X0051030Y0035744D01*
X0051818Y0036531D01*
X0059692Y0036531D01*
X0060479Y0037319D01*
X0060873Y0037319D01*
X0064022Y0040469D01*
X0066384Y0040469D01*
X0066384Y0040862D01*
X0090400Y0040862D01*
X0090400Y0042437D01*
X0091581Y0050311D02*
X0093944Y0050311D01*
X0098274Y0045980D01*
X0098274Y0038500D01*
X0094337Y0034563D01*
X0065203Y0034563D01*
X0062487Y0031846D01*
X0040479Y0031846D01*
X0037034Y0027438D02*
X0024070Y0027438D01*
X0024072Y0028420D02*
X0036651Y0028420D01*
X0035668Y0029403D02*
X0024074Y0029403D01*
X0024075Y0030386D02*
X0035459Y0030386D01*
X0035459Y0031369D02*
X0024077Y0031369D01*
X0024079Y0032351D02*
X0035459Y0032351D01*
X0034493Y0033334D02*
X0024080Y0033334D01*
X0024082Y0034317D02*
X0033884Y0034317D01*
X0033884Y0035300D02*
X0024084Y0035300D01*
X0024085Y0036283D02*
X0033884Y0036283D01*
X0033884Y0037265D02*
X0024087Y0037265D01*
X0024089Y0038248D02*
X0033884Y0038248D01*
X0034704Y0039231D02*
X0024090Y0039231D01*
X0024092Y0040214D02*
X0035459Y0040214D01*
X0035459Y0041196D02*
X0024094Y0041196D01*
X0024095Y0042179D02*
X0035187Y0042179D01*
X0034487Y0043162D02*
X0024097Y0043162D01*
X0024099Y0044145D02*
X0034459Y0044145D01*
X0034459Y0045127D02*
X0024101Y0045127D01*
X0024102Y0046110D02*
X0034459Y0046110D01*
X0034734Y0047093D02*
X0024104Y0047093D01*
X0024106Y0048076D02*
X0035459Y0048076D01*
X0035459Y0049058D02*
X0024107Y0049058D01*
X0024109Y0050041D02*
X0035459Y0050041D01*
X0035459Y0051024D02*
X0024111Y0051024D01*
X0024112Y0052007D02*
X0035459Y0052007D01*
X0035459Y0052990D02*
X0033538Y0052990D01*
X0033378Y0052897D02*
X0033718Y0053093D01*
X0033996Y0053371D01*
X0034192Y0053711D01*
X0034294Y0054091D01*
X0034294Y0056551D01*
X0029554Y0056551D01*
X0029554Y0052795D01*
X0032998Y0052795D01*
X0033378Y0052897D01*
X0034262Y0053972D02*
X0035459Y0053972D01*
X0035459Y0054955D02*
X0034294Y0054955D01*
X0034294Y0055938D02*
X0035663Y0055938D01*
X0036646Y0056921D02*
X0029554Y0056921D01*
X0029554Y0057903D02*
X0028570Y0057903D01*
X0028570Y0058886D02*
X0029554Y0058886D01*
X0029554Y0059869D02*
X0028570Y0059869D01*
X0028570Y0060852D02*
X0029554Y0060852D01*
X0032673Y0063763D02*
X0032395Y0064041D01*
X0032199Y0064381D01*
X0032097Y0064760D01*
X0032097Y0067417D01*
X0036936Y0067417D01*
X0036936Y0063465D01*
X0033393Y0063465D01*
X0033013Y0063566D01*
X0032673Y0063763D01*
X0032636Y0063800D02*
X0024133Y0063800D01*
X0024134Y0064783D02*
X0032097Y0064783D01*
X0032097Y0065765D02*
X0024136Y0065765D01*
X0024138Y0066748D02*
X0032097Y0066748D01*
X0036936Y0066748D02*
X0037920Y0066748D01*
X0037920Y0065765D02*
X0036936Y0065765D01*
X0036936Y0064783D02*
X0037920Y0064783D01*
X0037920Y0063800D02*
X0036936Y0063800D01*
X0036936Y0068714D02*
X0037920Y0068714D01*
X0037920Y0069696D02*
X0036936Y0069696D01*
X0036936Y0070679D02*
X0037920Y0070679D01*
X0037920Y0071662D02*
X0036936Y0071662D01*
X0042220Y0063800D02*
X0042650Y0063800D01*
X0044674Y0046110D02*
X0058958Y0046110D01*
X0057976Y0045127D02*
X0043349Y0045127D01*
X0043349Y0044145D02*
X0056993Y0044145D01*
X0056010Y0043162D02*
X0045079Y0043162D01*
X0036495Y0026455D02*
X0024068Y0026455D01*
X0024067Y0025472D02*
X0035512Y0025472D01*
X0035459Y0024489D02*
X0024065Y0024489D01*
X0024063Y0023507D02*
X0035459Y0023507D01*
X0035459Y0022524D02*
X0024062Y0022524D01*
X0024060Y0021541D02*
X0035459Y0021541D01*
X0035852Y0020558D02*
X0024058Y0020558D01*
X0024057Y0019576D02*
X0066594Y0019576D01*
X0065868Y0020558D02*
X0045106Y0020558D01*
X0045499Y0021541D02*
X0065141Y0021541D01*
X0064415Y0022524D02*
X0045499Y0022524D01*
X0045499Y0023507D02*
X0063689Y0023507D01*
X0062938Y0024489D02*
X0046281Y0024489D01*
X0030434Y0008765D02*
X0125013Y0008765D01*
X0124451Y0009748D02*
X0024040Y0009748D01*
X0024041Y0010731D02*
X0124129Y0010731D01*
X0124129Y0011713D02*
X0024043Y0011713D01*
X0024045Y0012696D02*
X0124357Y0012696D01*
X0124788Y0013679D02*
X0024046Y0013679D01*
X0024048Y0014662D02*
X0071441Y0014662D01*
X0071738Y0014662D02*
X0125755Y0014662D01*
X0125791Y0015645D02*
X0092817Y0015645D01*
X0096669Y0016627D02*
X0125826Y0016627D01*
X0124233Y0017610D02*
X0098096Y0017610D01*
X0098782Y0018593D02*
X0123727Y0018593D01*
X0123727Y0019576D02*
X0099189Y0019576D01*
X0099192Y0020558D02*
X0123727Y0020558D01*
X0123727Y0021541D02*
X0099050Y0021541D01*
X0099697Y0022524D02*
X0123727Y0022524D01*
X0123727Y0023507D02*
X0100679Y0023507D01*
X0101662Y0024489D02*
X0124057Y0024489D01*
X0124245Y0025472D02*
X0102645Y0025472D01*
X0103608Y0026455D02*
X0123727Y0026455D01*
X0123727Y0027438D02*
X0103983Y0027438D01*
X0103983Y0028420D02*
X0123727Y0028420D01*
X0123727Y0029403D02*
X0103983Y0029403D01*
X0103983Y0030386D02*
X0123727Y0030386D01*
X0123727Y0031369D02*
X0103983Y0031369D01*
X0103983Y0032351D02*
X0124045Y0032351D01*
X0123845Y0033334D02*
X0103983Y0033334D01*
X0103983Y0034317D02*
X0123845Y0034317D01*
X0128274Y0036453D02*
X0128550Y0036177D01*
X0128550Y0029012D01*
X0132855Y0025472D02*
X0135004Y0025472D01*
X0135002Y0024489D02*
X0133043Y0024489D01*
X0133373Y0023507D02*
X0135000Y0023507D01*
X0134999Y0022524D02*
X0133373Y0022524D01*
X0133373Y0021541D02*
X0134997Y0021541D01*
X0134995Y0020558D02*
X0133373Y0020558D01*
X0133373Y0019576D02*
X0134994Y0019576D01*
X0134992Y0018593D02*
X0133373Y0018593D01*
X0132866Y0017610D02*
X0134990Y0017610D01*
X0134989Y0016627D02*
X0130948Y0016627D01*
X0130912Y0015645D02*
X0134987Y0015645D01*
X0134985Y0014662D02*
X0130876Y0014662D01*
X0131603Y0013679D02*
X0134984Y0013679D01*
X0134982Y0012696D02*
X0132034Y0012696D01*
X0132262Y0011713D02*
X0134980Y0011713D01*
X0134978Y0010731D02*
X0132262Y0010731D01*
X0131940Y0009748D02*
X0134977Y0009748D01*
X0134975Y0008765D02*
X0131378Y0008765D01*
X0130247Y0007782D02*
X0134973Y0007782D01*
X0134972Y0006800D02*
X0030751Y0006800D01*
X0030751Y0007782D02*
X0126144Y0007782D01*
X0128196Y0011335D02*
X0128550Y0021138D01*
X0133373Y0026455D02*
X0135005Y0026455D01*
X0135007Y0027438D02*
X0133373Y0027438D01*
X0133373Y0028420D02*
X0135009Y0028420D01*
X0135011Y0029403D02*
X0133373Y0029403D01*
X0133373Y0030386D02*
X0135012Y0030386D01*
X0135014Y0031369D02*
X0133373Y0031369D01*
X0133054Y0032351D02*
X0135016Y0032351D01*
X0135017Y0033334D02*
X0132703Y0033334D01*
X0132703Y0034317D02*
X0135019Y0034317D01*
X0135021Y0035300D02*
X0132703Y0035300D01*
X0132703Y0036283D02*
X0135022Y0036283D01*
X0135024Y0037265D02*
X0132703Y0037265D01*
X0132703Y0038248D02*
X0135026Y0038248D01*
X0135027Y0039231D02*
X0132703Y0039231D01*
X0132161Y0040214D02*
X0135029Y0040214D01*
X0135031Y0041196D02*
X0132398Y0041196D01*
X0091581Y0050311D02*
X0077014Y0064878D01*
X0077014Y0071177D01*
X0077408Y0071571D01*
X0077408Y0071965D01*
X0080951Y0075508D01*
X0080951Y0081459D01*
X0081325Y0081046D01*
X0076325Y0081046D02*
X0076325Y0077476D01*
X0076227Y0077476D01*
X0076227Y0076689D01*
X0071503Y0071965D01*
X0071503Y0071177D01*
X0071896Y0069996D01*
X0065017Y0074610D02*
X0063013Y0074610D01*
X0064035Y0073628D02*
X0061924Y0073628D01*
X0061265Y0072645D02*
X0063052Y0072645D01*
X0062251Y0069696D02*
X0060587Y0069696D01*
X0071325Y0081046D02*
X0071109Y0081617D01*
X0083707Y0069996D02*
X0083707Y0069602D01*
X0083707Y0069996D02*
X0086325Y0072614D01*
X0086325Y0081046D01*
X0067321Y0018593D02*
X0024055Y0018593D01*
X0024053Y0017610D02*
X0068047Y0017610D01*
X0068773Y0016627D02*
X0024052Y0016627D01*
X0024050Y0015645D02*
X0069479Y0015645D01*
X0029554Y0052990D02*
X0028570Y0052990D01*
X0028570Y0053972D02*
X0029554Y0053972D01*
X0029554Y0054955D02*
X0028570Y0054955D01*
X0028570Y0055938D02*
X0029554Y0055938D01*
X0024585Y0052990D02*
X0024114Y0052990D01*
X0024127Y0060715D02*
X0024127Y0060715D01*
X0024128Y0060852D02*
X0024264Y0060852D01*
X0025026Y0008765D02*
X0026010Y0008765D01*
X0026010Y0007782D02*
X0025026Y0007782D01*
X0025026Y0006800D02*
X0026010Y0006800D01*
D25*
X0059692Y0065665D03*
X0057723Y0074720D03*
X0071896Y0069996D03*
X0083707Y0069602D03*
X0090400Y0042437D03*
X0095125Y0020390D03*
X0128196Y0011335D03*
X0134495Y0045587D03*
X0126227Y0081020D03*
X0105361Y0119996D03*
X0101818Y0112909D03*
X0091188Y0119209D03*
X0067172Y0127083D03*
X0054967Y0115272D03*
X0059298Y0098343D03*
X0030164Y0121571D03*
X0046699Y0164484D03*
X0062841Y0182555D03*
X0058904Y0197161D03*
X0060085Y0205429D03*
X0069140Y0225902D03*
X0086070Y0223146D03*
X0090794Y0205035D03*
X0085282Y0192437D03*
X0100847Y0193618D03*
X0104967Y0210941D03*
X0112054Y0223146D03*
X0118747Y0227083D03*
X0066778Y0154642D03*
X0065991Y0162122D03*
X0040794Y0208579D03*
X0035676Y0221571D03*
D26*
X0059298Y0098343D02*
X0062054Y0098343D01*
X0062054Y0097949D01*
M02*
