%
M48
M72
T01C0.01969
T02C0.02362
T03C0.03937
%
T01
X57723Y74720
X59692Y65665
X71896Y69996
X83707Y69602
X90400Y42437
X95125Y20390
X128196Y11335
X134495Y45587
X126227Y81020
X105361Y119996
X101818Y112909
X91188Y119209
X67172Y127083
X54967Y115272
X59298Y98343
X30164Y121571
X46699Y164484
X62841Y182555
X58904Y197161
X60085Y205429
X69140Y225902
X86070Y223146
X90794Y205035
X85282Y192437
X100847Y193618
X104967Y210941
X112054Y223146
X118747Y227083
X66778Y154642
X65991Y162122
X40794Y208579
X35676Y221571
T02
X82487Y173972
X92723Y173972
T03
X39101Y81374
X39101Y91374
X39101Y101374
X39101Y111374
X39101Y121374
X39101Y131374
X39101Y141374
X39101Y151374
X39101Y161374
X39101Y171374
X39101Y181374
X39101Y191374
X117762Y191217
X117762Y181217
X117762Y171217
X117762Y161217
X117762Y151217
X117762Y141217
X117762Y131217
X117762Y121217
X117762Y111217
X117762Y101217
X117762Y91217
X117762Y81217
X117762Y71217
X117762Y61217
X117762Y51217
X117762Y41217
M30
