G75*
%MOIN*%
%OFA0B0*%
%FSLAX25Y25*%
%IPPOS*%
%LPD*%
%AMOC8*
5,1,8,0,0,1.08239X$1,22.5*
%
%ADD10R,0.05118X0.05906*%
%ADD11R,0.05906X0.05118*%
%ADD12C,0.06600*%
%ADD13R,0.04724X0.04724*%
%ADD14C,0.07000*%
%ADD15R,0.05512X0.04331*%
%ADD16R,0.01575X0.01969*%
%ADD17R,0.01969X0.01575*%
%ADD18C,0.00126*%
%ADD19C,0.00100*%
%ADD20R,0.04724X0.01969*%
%ADD21R,0.01969X0.04724*%
%ADD22C,0.00984*%
%ADD23C,0.04000*%
%ADD24C,0.01600*%
D10*
X0118904Y0210272D03*
X0126384Y0210272D03*
D11*
X0099062Y0133579D03*
X0099062Y0126886D03*
D12*
X0117762Y0131217D03*
X0117762Y0121217D03*
X0117762Y0111217D03*
X0117762Y0101217D03*
X0117762Y0091217D03*
X0117762Y0081217D03*
X0117762Y0071217D03*
X0117762Y0061217D03*
X0117762Y0051217D03*
X0117762Y0041217D03*
X0117762Y0141217D03*
X0117762Y0151217D03*
X0117762Y0161217D03*
X0117762Y0171217D03*
X0117762Y0181217D03*
X0117762Y0191217D03*
X0039101Y0191374D03*
X0039101Y0181374D03*
X0039101Y0171374D03*
X0039101Y0161374D03*
X0039101Y0151374D03*
X0039101Y0141374D03*
X0039101Y0131374D03*
X0039101Y0121374D03*
X0039101Y0111374D03*
X0039101Y0101374D03*
X0039101Y0091374D03*
X0039101Y0081374D03*
D13*
X0067999Y0210626D03*
X0067999Y0218894D03*
X0097133Y0219130D03*
X0097133Y0210862D03*
D14*
X0092723Y0173972D03*
X0082487Y0173972D03*
D15*
X0058117Y0133618D03*
X0058117Y0125744D03*
X0049495Y0174602D03*
X0049495Y0182476D03*
X0049455Y0192122D03*
X0049455Y0199996D03*
D16*
X0082054Y0209878D03*
X0082054Y0217752D03*
D17*
X0078117Y0217949D03*
X0078117Y0215193D03*
X0078117Y0212437D03*
X0078117Y0209681D03*
X0085991Y0209681D03*
X0085991Y0212437D03*
X0085991Y0215193D03*
D18*
X0086912Y0217225D02*
X0085070Y0217225D01*
X0085070Y0218673D01*
X0086912Y0218673D01*
X0086912Y0217225D01*
X0086912Y0217350D02*
X0085070Y0217350D01*
X0085070Y0217475D02*
X0086912Y0217475D01*
X0086912Y0217600D02*
X0085070Y0217600D01*
X0085070Y0217725D02*
X0086912Y0217725D01*
X0086912Y0217850D02*
X0085070Y0217850D01*
X0085070Y0217975D02*
X0086912Y0217975D01*
X0086912Y0218100D02*
X0085070Y0218100D01*
X0085070Y0218225D02*
X0086912Y0218225D01*
X0086912Y0218350D02*
X0085070Y0218350D01*
X0085070Y0218475D02*
X0086912Y0218475D01*
X0086912Y0218600D02*
X0085070Y0218600D01*
D19*
X0084940Y0220361D02*
X0085541Y0220361D01*
X0085240Y0220361D02*
X0085240Y0221262D01*
X0085541Y0220962D01*
X0085861Y0221112D02*
X0086011Y0221262D01*
X0086311Y0221262D01*
X0086461Y0221112D01*
X0086461Y0220511D01*
X0086311Y0220361D01*
X0086011Y0220361D01*
X0085861Y0220511D01*
X0086782Y0220361D02*
X0086782Y0221262D01*
X0086782Y0220811D02*
X0087382Y0220811D01*
X0087702Y0220661D02*
X0087702Y0220511D01*
X0087853Y0220361D01*
X0088303Y0220361D01*
X0088303Y0221262D01*
X0087853Y0221262D01*
X0087702Y0221112D01*
X0087702Y0220962D01*
X0087853Y0220811D01*
X0088303Y0220811D01*
X0087853Y0220811D02*
X0087702Y0220661D01*
X0087382Y0220361D02*
X0087382Y0221262D01*
X0084620Y0221262D02*
X0084019Y0221262D01*
X0084019Y0221112D01*
X0084620Y0220511D01*
X0084620Y0220361D01*
X0083699Y0220511D02*
X0083549Y0220361D01*
X0083249Y0220361D01*
X0083099Y0220511D01*
X0083099Y0221112D01*
X0083249Y0221262D01*
X0083549Y0221262D01*
X0083699Y0221112D01*
X0083699Y0220962D01*
X0083549Y0220811D01*
X0083099Y0220811D01*
X0082778Y0220511D02*
X0082178Y0221112D01*
X0082178Y0220511D01*
X0082328Y0220361D01*
X0082628Y0220361D01*
X0082778Y0220511D01*
X0082778Y0221112D01*
X0082628Y0221262D01*
X0082328Y0221262D01*
X0082178Y0221112D01*
D20*
X0084219Y0136413D03*
X0084219Y0133264D03*
X0084219Y0130114D03*
X0084219Y0126965D03*
X0084219Y0123815D03*
X0084219Y0120665D03*
X0075558Y0120665D03*
X0075558Y0123815D03*
X0075558Y0126965D03*
X0075558Y0130114D03*
X0075558Y0133264D03*
X0075558Y0136413D03*
D21*
X0079888Y0136807D03*
X0079888Y0120272D03*
D22*
X0030951Y0062516D02*
X0033707Y0039681D01*
X0077014Y0026295D01*
X0134495Y0031413D01*
X0134495Y0045587D01*
X0131936Y0042394D02*
X0131936Y0033755D01*
X0077289Y0028889D01*
X0036049Y0041636D01*
X0033510Y0062670D01*
X0033510Y0063025D01*
X0033450Y0063171D01*
X0033431Y0063328D01*
X0033257Y0063637D01*
X0033121Y0063965D01*
X0033009Y0064077D01*
X0032932Y0064215D01*
X0032652Y0064434D01*
X0031148Y0065938D01*
X0031148Y0090590D01*
X0034253Y0093694D01*
X0033734Y0092442D01*
X0033734Y0090306D01*
X0034551Y0088334D01*
X0036061Y0086824D01*
X0037148Y0086374D01*
X0036061Y0085924D01*
X0034551Y0084414D01*
X0033734Y0082442D01*
X0033734Y0080306D01*
X0034551Y0078334D01*
X0036061Y0076824D01*
X0038033Y0076007D01*
X0040169Y0076007D01*
X0042141Y0076824D01*
X0043651Y0078334D01*
X0044468Y0080306D01*
X0044468Y0082442D01*
X0043651Y0084414D01*
X0042141Y0085924D01*
X0041054Y0086374D01*
X0042141Y0086824D01*
X0043651Y0088334D01*
X0044468Y0090306D01*
X0044468Y0092442D01*
X0043899Y0093815D01*
X0046027Y0093815D01*
X0046968Y0094205D01*
X0047688Y0094924D01*
X0048081Y0095318D01*
X0048471Y0096259D01*
X0048471Y0097277D01*
X0048383Y0097489D01*
X0055698Y0111205D01*
X0055776Y0111205D01*
X0057271Y0111824D01*
X0058415Y0112968D01*
X0059034Y0114463D01*
X0059034Y0116081D01*
X0058415Y0117575D01*
X0057271Y0118719D01*
X0055776Y0119339D01*
X0054158Y0119339D01*
X0052663Y0118719D01*
X0051519Y0117575D01*
X0050900Y0116081D01*
X0050900Y0114463D01*
X0051222Y0113687D01*
X0044468Y0101024D01*
X0044468Y0102442D01*
X0043651Y0104414D01*
X0042141Y0105924D01*
X0041054Y0106374D01*
X0042141Y0106824D01*
X0043651Y0108334D01*
X0044468Y0110306D01*
X0044468Y0112442D01*
X0043651Y0114414D01*
X0042141Y0115924D01*
X0041054Y0116374D01*
X0042141Y0116824D01*
X0043651Y0118334D01*
X0044468Y0120306D01*
X0044468Y0122442D01*
X0043651Y0124414D01*
X0042141Y0125924D01*
X0041054Y0126374D01*
X0042141Y0126824D01*
X0043651Y0128334D01*
X0044468Y0130306D01*
X0044468Y0132442D01*
X0043651Y0134414D01*
X0042141Y0135924D01*
X0041054Y0136374D01*
X0042141Y0136824D01*
X0043651Y0138334D01*
X0044468Y0140306D01*
X0044468Y0142442D01*
X0043651Y0144414D01*
X0042141Y0145924D01*
X0041054Y0146374D01*
X0042141Y0146824D01*
X0043651Y0148334D01*
X0044468Y0150306D01*
X0044468Y0152442D01*
X0043651Y0154414D01*
X0042141Y0155924D01*
X0041054Y0156374D01*
X0042141Y0156824D01*
X0043651Y0158334D01*
X0044363Y0160052D01*
X0049259Y0155157D01*
X0049259Y0148227D01*
X0049648Y0147287D01*
X0050368Y0146567D01*
X0056667Y0140268D01*
X0057608Y0139878D01*
X0065718Y0139878D01*
X0069419Y0136177D01*
X0062940Y0136177D01*
X0062940Y0136640D01*
X0061729Y0137850D01*
X0054505Y0137850D01*
X0053294Y0136640D01*
X0053294Y0130597D01*
X0054505Y0129386D01*
X0055106Y0129386D01*
X0054785Y0129300D01*
X0054445Y0129103D01*
X0054167Y0128826D01*
X0053970Y0128485D01*
X0053869Y0128106D01*
X0053869Y0126236D01*
X0057625Y0126236D01*
X0057625Y0125252D01*
X0058609Y0125252D01*
X0058609Y0126236D01*
X0062365Y0126236D01*
X0062365Y0128106D01*
X0062263Y0128485D01*
X0062067Y0128826D01*
X0061789Y0129103D01*
X0061449Y0129300D01*
X0061128Y0129386D01*
X0061729Y0129386D01*
X0062940Y0130597D01*
X0062940Y0131059D01*
X0066144Y0131059D01*
X0064868Y0130530D01*
X0063724Y0129386D01*
X0063105Y0127892D01*
X0063105Y0126274D01*
X0063724Y0124779D01*
X0064613Y0123890D01*
X0064613Y0123262D01*
X0064577Y0122870D01*
X0064613Y0122756D01*
X0064613Y0122637D01*
X0064763Y0122274D01*
X0064880Y0121898D01*
X0064957Y0121807D01*
X0065002Y0121696D01*
X0065280Y0121418D01*
X0066925Y0119444D01*
X0066971Y0119334D01*
X0067249Y0119056D01*
X0067500Y0118754D01*
X0067606Y0118699D01*
X0067691Y0118614D01*
X0068054Y0118464D01*
X0068402Y0118281D01*
X0068521Y0118270D01*
X0068631Y0118224D01*
X0069024Y0118224D01*
X0069416Y0118189D01*
X0069530Y0118224D01*
X0071729Y0118224D01*
X0072339Y0117614D01*
X0074045Y0117614D01*
X0074108Y0117551D01*
X0075049Y0117161D01*
X0076067Y0117161D01*
X0076837Y0117481D01*
X0076837Y0117053D01*
X0078048Y0115843D01*
X0081729Y0115843D01*
X0082940Y0117053D01*
X0082940Y0117614D01*
X0083651Y0117614D01*
X0084226Y0117039D01*
X0085167Y0116650D01*
X0087995Y0116650D01*
X0088884Y0115761D01*
X0090379Y0115142D01*
X0091997Y0115142D01*
X0093491Y0115761D01*
X0094635Y0116905D01*
X0095255Y0118400D01*
X0095255Y0120018D01*
X0094635Y0121512D01*
X0093491Y0122656D01*
X0091997Y0123276D01*
X0090379Y0123276D01*
X0088884Y0122656D01*
X0088648Y0122421D01*
X0088648Y0122506D01*
X0088073Y0123081D01*
X0088073Y0123815D01*
X0088073Y0124996D01*
X0087972Y0125375D01*
X0087963Y0125390D01*
X0087972Y0125404D01*
X0088073Y0125784D01*
X0088073Y0126964D01*
X0084219Y0126964D01*
X0084219Y0126964D01*
X0084219Y0123815D01*
X0084219Y0123815D01*
X0090007Y0123933D01*
X0090794Y0126965D01*
X0091581Y0126965D01*
X0090007Y0132988D01*
X0084219Y0133264D01*
X0088073Y0133264D01*
X0088073Y0133854D01*
X0094042Y0133854D01*
X0094042Y0130164D01*
X0094617Y0129589D01*
X0094617Y0127378D01*
X0098569Y0127378D01*
X0098569Y0126394D01*
X0094617Y0126394D01*
X0094617Y0124130D01*
X0094718Y0123751D01*
X0094915Y0123411D01*
X0095193Y0123133D01*
X0095533Y0122936D01*
X0095912Y0122835D01*
X0098570Y0122835D01*
X0098570Y0126394D01*
X0099554Y0126394D01*
X0099554Y0127378D01*
X0103507Y0127378D01*
X0103507Y0129589D01*
X0103733Y0129816D01*
X0104699Y0128850D01*
X0105164Y0128657D01*
X0105164Y0124063D01*
X0104552Y0124063D01*
X0103281Y0123537D01*
X0103405Y0123751D01*
X0103507Y0124130D01*
X0103507Y0126394D01*
X0099554Y0126394D01*
X0099554Y0122835D01*
X0102211Y0122835D01*
X0102535Y0122921D01*
X0101913Y0122300D01*
X0101294Y0120805D01*
X0101294Y0119187D01*
X0101913Y0117692D01*
X0102631Y0116975D01*
X0102627Y0116976D01*
X0101009Y0116976D01*
X0099514Y0116357D01*
X0098370Y0115213D01*
X0097751Y0113718D01*
X0097751Y0112100D01*
X0098370Y0110606D01*
X0099259Y0109717D01*
X0099259Y0106095D01*
X0087254Y0094091D01*
X0087106Y0094006D01*
X0086898Y0093735D01*
X0086656Y0093493D01*
X0086590Y0093334D01*
X0071793Y0074063D01*
X0071087Y0074063D01*
X0069593Y0073444D01*
X0068449Y0072300D01*
X0067829Y0070805D01*
X0067829Y0069187D01*
X0068449Y0067692D01*
X0069593Y0066548D01*
X0071087Y0065929D01*
X0072705Y0065929D01*
X0074200Y0066548D01*
X0074849Y0067197D01*
X0074849Y0061214D01*
X0061790Y0074273D01*
X0061790Y0075529D01*
X0061171Y0077024D01*
X0060027Y0078168D01*
X0058532Y0078787D01*
X0056914Y0078787D01*
X0055419Y0078168D01*
X0055164Y0077913D01*
X0055164Y0081141D01*
X0055168Y0081145D01*
X0055446Y0081817D01*
X0059399Y0085770D01*
X0059657Y0085961D01*
X0059756Y0086126D01*
X0059893Y0086263D01*
X0060015Y0086559D01*
X0060180Y0086834D01*
X0060208Y0087025D01*
X0060282Y0087204D01*
X0060282Y0087524D01*
X0061359Y0094794D01*
X0061602Y0094895D01*
X0062746Y0096039D01*
X0063365Y0097534D01*
X0063365Y0099151D01*
X0062746Y0100646D01*
X0061602Y0101790D01*
X0060107Y0102409D01*
X0058489Y0102409D01*
X0056994Y0101790D01*
X0055850Y0100646D01*
X0055231Y0099151D01*
X0055231Y0097534D01*
X0055850Y0096039D01*
X0056303Y0095586D01*
X0055316Y0088924D01*
X0050829Y0084438D01*
X0050551Y0083766D01*
X0050435Y0083650D01*
X0050046Y0082710D01*
X0050046Y0073812D01*
X0050042Y0073808D01*
X0049652Y0072867D01*
X0049652Y0071849D01*
X0050042Y0070909D01*
X0050435Y0070515D01*
X0051155Y0069795D01*
X0055343Y0065608D01*
X0055486Y0065393D01*
X0055625Y0065301D01*
X0055625Y0064856D01*
X0056244Y0063362D01*
X0057388Y0062218D01*
X0058883Y0061598D01*
X0060501Y0061598D01*
X0061995Y0062218D01*
X0063139Y0063362D01*
X0063758Y0064856D01*
X0063758Y0065066D01*
X0075239Y0053586D01*
X0086333Y0042491D01*
X0086333Y0041628D01*
X0086952Y0040133D01*
X0088096Y0038989D01*
X0089591Y0038370D01*
X0091209Y0038370D01*
X0092704Y0038989D01*
X0093848Y0040133D01*
X0094467Y0041628D01*
X0094467Y0042885D01*
X0100240Y0048657D01*
X0113013Y0048657D01*
X0113213Y0048176D01*
X0114722Y0046667D01*
X0115809Y0046217D01*
X0114722Y0045766D01*
X0113213Y0044257D01*
X0112396Y0042284D01*
X0112396Y0040149D01*
X0113213Y0038176D01*
X0114722Y0036667D01*
X0116695Y0035850D01*
X0118830Y0035850D01*
X0120803Y0036667D01*
X0122312Y0038176D01*
X0123129Y0040149D01*
X0123129Y0042284D01*
X0122312Y0044257D01*
X0120803Y0045766D01*
X0119716Y0046217D01*
X0120803Y0046667D01*
X0122312Y0048176D01*
X0123129Y0050149D01*
X0123129Y0052284D01*
X0122312Y0054257D01*
X0120803Y0055766D01*
X0119716Y0056217D01*
X0120803Y0056667D01*
X0122312Y0058176D01*
X0123129Y0060149D01*
X0123129Y0062284D01*
X0122312Y0064257D01*
X0120803Y0065766D01*
X0118910Y0066551D01*
X0119602Y0066775D01*
X0120274Y0067118D01*
X0120884Y0067561D01*
X0121418Y0068095D01*
X0121861Y0068705D01*
X0122203Y0069377D01*
X0122437Y0070094D01*
X0122536Y0070724D01*
X0118255Y0070724D01*
X0118255Y0071709D01*
X0122536Y0071709D01*
X0122437Y0072339D01*
X0122203Y0073056D01*
X0121861Y0073728D01*
X0121418Y0074338D01*
X0120884Y0074872D01*
X0120274Y0075315D01*
X0119602Y0075658D01*
X0118910Y0075883D01*
X0120803Y0076667D01*
X0122312Y0078176D01*
X0122658Y0079010D01*
X0122779Y0078716D01*
X0123923Y0077572D01*
X0125418Y0076953D01*
X0127036Y0076953D01*
X0128531Y0077572D01*
X0129675Y0078716D01*
X0130294Y0080211D01*
X0130294Y0081829D01*
X0129675Y0083323D01*
X0128531Y0084467D01*
X0127036Y0085087D01*
X0125418Y0085087D01*
X0123923Y0084467D01*
X0122779Y0083323D01*
X0122739Y0083226D01*
X0122312Y0084257D01*
X0120803Y0085766D01*
X0119716Y0086217D01*
X0120803Y0086667D01*
X0122312Y0088176D01*
X0123129Y0090149D01*
X0123129Y0092284D01*
X0122658Y0093421D01*
X0124374Y0093421D01*
X0125314Y0093811D01*
X0126034Y0094531D01*
X0126428Y0094924D01*
X0126818Y0095865D01*
X0126818Y0096883D01*
X0126428Y0097824D01*
X0126424Y0097828D01*
X0126424Y0146883D01*
X0126034Y0147824D01*
X0125314Y0148543D01*
X0124374Y0148933D01*
X0123665Y0148933D01*
X0122930Y0149668D01*
X0123129Y0150149D01*
X0123129Y0152284D01*
X0122312Y0154257D01*
X0120803Y0155766D01*
X0119716Y0156217D01*
X0120803Y0156667D01*
X0122312Y0158176D01*
X0123129Y0160149D01*
X0123129Y0162284D01*
X0122312Y0164257D01*
X0120803Y0165766D01*
X0119716Y0166217D01*
X0120803Y0166667D01*
X0122312Y0168176D01*
X0123129Y0170149D01*
X0123129Y0172284D01*
X0122312Y0174257D01*
X0120803Y0175766D01*
X0119716Y0176217D01*
X0120803Y0176667D01*
X0122312Y0178176D01*
X0123129Y0180149D01*
X0123129Y0182284D01*
X0122312Y0184257D01*
X0120803Y0185766D01*
X0119716Y0186217D01*
X0120803Y0186667D01*
X0122312Y0188176D01*
X0123129Y0190149D01*
X0123129Y0192284D01*
X0122312Y0194257D01*
X0120803Y0195766D01*
X0118830Y0196583D01*
X0116695Y0196583D01*
X0114722Y0195766D01*
X0113213Y0194257D01*
X0112396Y0192284D01*
X0112396Y0190149D01*
X0113213Y0188176D01*
X0114722Y0186667D01*
X0115809Y0186217D01*
X0114722Y0185766D01*
X0113213Y0184257D01*
X0112396Y0182284D01*
X0112396Y0180149D01*
X0113213Y0178176D01*
X0114722Y0176667D01*
X0115809Y0176217D01*
X0114722Y0175766D01*
X0113213Y0174257D01*
X0112396Y0172284D01*
X0112396Y0170149D01*
X0113213Y0168176D01*
X0114722Y0166667D01*
X0115809Y0166217D01*
X0114722Y0165766D01*
X0113213Y0164257D01*
X0112396Y0162284D01*
X0112396Y0160149D01*
X0113213Y0158176D01*
X0114722Y0156667D01*
X0115809Y0156217D01*
X0114722Y0155766D01*
X0113213Y0154257D01*
X0112396Y0152284D01*
X0112396Y0150149D01*
X0113213Y0148176D01*
X0114722Y0146667D01*
X0115809Y0146217D01*
X0114722Y0145766D01*
X0113213Y0144257D01*
X0112396Y0142284D01*
X0112396Y0140149D01*
X0113213Y0138176D01*
X0114722Y0136667D01*
X0115809Y0136217D01*
X0114722Y0135766D01*
X0114219Y0135263D01*
X0114219Y0135466D01*
X0113830Y0136406D01*
X0113110Y0137126D01*
X0093425Y0156811D01*
X0092484Y0157201D01*
X0069971Y0157201D01*
X0069082Y0158089D01*
X0067982Y0158545D01*
X0068295Y0158674D01*
X0069439Y0159818D01*
X0070058Y0161313D01*
X0070058Y0162931D01*
X0069439Y0164426D01*
X0068295Y0165570D01*
X0066800Y0166189D01*
X0065543Y0166189D01*
X0064298Y0167434D01*
X0065155Y0179117D01*
X0066289Y0180251D01*
X0066908Y0181746D01*
X0066908Y0183364D01*
X0066289Y0184859D01*
X0065145Y0186003D01*
X0063752Y0186580D01*
X0063901Y0186728D01*
X0066506Y0186728D01*
X0068084Y0185149D01*
X0069025Y0184760D01*
X0093271Y0184760D01*
X0094212Y0185149D01*
X0099031Y0189968D01*
X0100038Y0189551D01*
X0101656Y0189551D01*
X0103150Y0190170D01*
X0104294Y0191314D01*
X0104914Y0192809D01*
X0104914Y0194427D01*
X0104294Y0195922D01*
X0103150Y0197066D01*
X0101656Y0197685D01*
X0100038Y0197685D01*
X0098543Y0197066D01*
X0097399Y0195922D01*
X0097153Y0195329D01*
X0091702Y0189878D01*
X0088475Y0189878D01*
X0088730Y0190133D01*
X0089349Y0191628D01*
X0089349Y0193246D01*
X0088730Y0194741D01*
X0087586Y0195885D01*
X0086091Y0196504D01*
X0084834Y0196504D01*
X0082007Y0199331D01*
X0081067Y0199720D01*
X0062097Y0199720D01*
X0061208Y0200609D01*
X0059713Y0201228D01*
X0058095Y0201228D01*
X0056600Y0200609D01*
X0055456Y0199465D01*
X0054837Y0197970D01*
X0054837Y0196528D01*
X0053904Y0195518D01*
X0053363Y0196059D01*
X0054278Y0196975D01*
X0054278Y0201121D01*
X0055633Y0202476D01*
X0057287Y0202476D01*
X0057782Y0201981D01*
X0059276Y0201362D01*
X0060894Y0201362D01*
X0062389Y0201981D01*
X0063278Y0202870D01*
X0063311Y0202870D01*
X0064251Y0203260D01*
X0067189Y0206197D01*
X0071217Y0206197D01*
X0072428Y0207408D01*
X0072428Y0208067D01*
X0072484Y0208067D01*
X0073425Y0208457D01*
X0074531Y0209563D01*
X0075066Y0209563D01*
X0075066Y0208038D01*
X0076276Y0206827D01*
X0079957Y0206827D01*
X0080654Y0207524D01*
X0080690Y0207503D01*
X0081070Y0207402D01*
X0082054Y0207402D01*
X0083038Y0207402D01*
X0083417Y0207503D01*
X0083453Y0207524D01*
X0084150Y0206827D01*
X0085261Y0206827D01*
X0086727Y0205409D01*
X0086727Y0204226D01*
X0087346Y0202732D01*
X0088490Y0201588D01*
X0089985Y0200969D01*
X0091603Y0200969D01*
X0093098Y0201588D01*
X0094242Y0202732D01*
X0094861Y0204226D01*
X0094861Y0205844D01*
X0094617Y0206433D01*
X0100351Y0206433D01*
X0101562Y0207644D01*
X0101562Y0208303D01*
X0101853Y0208303D01*
X0102663Y0207493D01*
X0104158Y0206874D01*
X0105776Y0206874D01*
X0106912Y0207345D01*
X0114278Y0207570D01*
X0114278Y0206463D01*
X0115489Y0205252D01*
X0122319Y0205252D01*
X0123089Y0206021D01*
X0123249Y0205928D01*
X0123629Y0205827D01*
X0125892Y0205827D01*
X0125892Y0209779D01*
X0126877Y0209779D01*
X0126877Y0209780D02*
X0126877Y0210764D01*
X0130436Y0210764D01*
X0130436Y0213421D01*
X0130334Y0213800D01*
X0130138Y0214141D01*
X0129860Y0214418D01*
X0129519Y0214615D01*
X0129140Y0214717D01*
X0126877Y0214717D01*
X0126877Y0210764D01*
X0125892Y0210764D01*
X0125892Y0214717D01*
X0123629Y0214717D01*
X0123249Y0214615D01*
X0123089Y0214522D01*
X0122319Y0215291D01*
X0115489Y0215291D01*
X0114278Y0214081D01*
X0114278Y0212690D01*
X0108715Y0212520D01*
X0108415Y0213245D01*
X0107271Y0214389D01*
X0105776Y0215008D01*
X0104158Y0215008D01*
X0102663Y0214389D01*
X0101696Y0213421D01*
X0101562Y0213421D01*
X0101562Y0214081D01*
X0100646Y0214996D01*
X0101562Y0215912D01*
X0101562Y0222348D01*
X0100351Y0223559D01*
X0093914Y0223559D01*
X0092703Y0222348D01*
X0092703Y0218900D01*
X0090276Y0216989D01*
X0090132Y0216929D01*
X0089879Y0216677D01*
X0089598Y0216456D01*
X0089522Y0216320D01*
X0089412Y0216209D01*
X0089275Y0215879D01*
X0089170Y0215692D01*
X0088474Y0214996D01*
X0088467Y0214996D01*
X0088467Y0215193D01*
X0088467Y0215767D01*
X0089042Y0216342D01*
X0089042Y0218084D01*
X0089056Y0218127D01*
X0089046Y0218244D01*
X0089180Y0218244D01*
X0090420Y0219484D01*
X0090420Y0222139D01*
X0090136Y0222422D01*
X0090136Y0223955D01*
X0089901Y0224524D01*
X0100208Y0224524D01*
X0108226Y0221759D01*
X0108606Y0220842D01*
X0109750Y0219698D01*
X0111245Y0219079D01*
X0112863Y0219079D01*
X0114358Y0219698D01*
X0115502Y0220842D01*
X0116121Y0222337D01*
X0116121Y0223955D01*
X0116119Y0223959D01*
X0116443Y0223635D01*
X0117938Y0223016D01*
X0119556Y0223016D01*
X0121050Y0223635D01*
X0122194Y0224779D01*
X0122814Y0226274D01*
X0122814Y0226331D01*
X0135349Y0226331D01*
X0135045Y0049654D01*
X0133686Y0049654D01*
X0132191Y0049034D01*
X0131047Y0047890D01*
X0130428Y0046396D01*
X0130428Y0044778D01*
X0131047Y0043283D01*
X0131936Y0042394D01*
X0131936Y0042179D02*
X0123129Y0042179D01*
X0123129Y0041196D02*
X0131936Y0041196D01*
X0131936Y0040214D02*
X0123129Y0040214D01*
X0122749Y0039231D02*
X0131936Y0039231D01*
X0131936Y0038248D02*
X0122342Y0038248D01*
X0121401Y0037265D02*
X0131936Y0037265D01*
X0131936Y0036283D02*
X0119875Y0036283D01*
X0116177Y0032351D02*
X0066087Y0032351D01*
X0069266Y0031369D02*
X0105139Y0031369D01*
X0113183Y0038248D02*
X0047009Y0038248D01*
X0050189Y0037265D02*
X0114124Y0037265D01*
X0115650Y0036283D02*
X0053368Y0036283D01*
X0056548Y0035300D02*
X0131936Y0035300D01*
X0131936Y0034317D02*
X0059727Y0034317D01*
X0062907Y0033334D02*
X0127214Y0033334D01*
X0131168Y0043162D02*
X0122766Y0043162D01*
X0122359Y0044145D02*
X0130690Y0044145D01*
X0130428Y0045127D02*
X0121442Y0045127D01*
X0119973Y0046110D02*
X0130428Y0046110D01*
X0130717Y0047093D02*
X0121229Y0047093D01*
X0122212Y0048076D02*
X0131232Y0048076D01*
X0132249Y0049058D02*
X0122678Y0049058D01*
X0123085Y0050041D02*
X0135046Y0050041D01*
X0135048Y0051024D02*
X0123129Y0051024D01*
X0123129Y0052007D02*
X0135049Y0052007D01*
X0135051Y0052990D02*
X0122837Y0052990D01*
X0122430Y0053972D02*
X0135053Y0053972D01*
X0135055Y0054955D02*
X0121614Y0054955D01*
X0120389Y0055938D02*
X0135056Y0055938D01*
X0135058Y0056921D02*
X0121056Y0056921D01*
X0122039Y0057903D02*
X0135060Y0057903D01*
X0135061Y0058886D02*
X0122606Y0058886D01*
X0123013Y0059869D02*
X0135063Y0059869D01*
X0135065Y0060852D02*
X0123129Y0060852D01*
X0123129Y0061834D02*
X0135066Y0061834D01*
X0135068Y0062817D02*
X0122909Y0062817D01*
X0122501Y0063800D02*
X0135070Y0063800D01*
X0135071Y0064783D02*
X0121786Y0064783D01*
X0120803Y0065765D02*
X0135073Y0065765D01*
X0135075Y0066748D02*
X0119518Y0066748D01*
X0121054Y0067731D02*
X0135076Y0067731D01*
X0135078Y0068714D02*
X0121866Y0068714D01*
X0122307Y0069696D02*
X0135080Y0069696D01*
X0135082Y0070679D02*
X0122529Y0070679D01*
X0122337Y0072645D02*
X0135085Y0072645D01*
X0135087Y0073628D02*
X0121912Y0073628D01*
X0121146Y0074610D02*
X0135088Y0074610D01*
X0135090Y0075593D02*
X0119729Y0075593D01*
X0120583Y0076576D02*
X0135092Y0076576D01*
X0135093Y0077559D02*
X0128499Y0077559D01*
X0129500Y0078541D02*
X0135095Y0078541D01*
X0135097Y0079524D02*
X0130010Y0079524D01*
X0130294Y0080507D02*
X0135098Y0080507D01*
X0135100Y0081490D02*
X0130294Y0081490D01*
X0130027Y0082472D02*
X0135102Y0082472D01*
X0135104Y0083455D02*
X0129543Y0083455D01*
X0128560Y0084438D02*
X0135105Y0084438D01*
X0135107Y0085421D02*
X0121148Y0085421D01*
X0120167Y0086403D02*
X0135109Y0086403D01*
X0135110Y0087386D02*
X0121522Y0087386D01*
X0122392Y0088369D02*
X0135112Y0088369D01*
X0135114Y0089352D02*
X0122799Y0089352D01*
X0123129Y0090335D02*
X0135115Y0090335D01*
X0135117Y0091317D02*
X0123129Y0091317D01*
X0123123Y0092300D02*
X0135119Y0092300D01*
X0135120Y0093283D02*
X0122716Y0093283D01*
X0123865Y0095980D02*
X0123865Y0146374D01*
X0122605Y0146374D01*
X0117762Y0151217D01*
X0115720Y0156180D02*
X0094056Y0156180D01*
X0095039Y0155197D02*
X0114153Y0155197D01*
X0113195Y0154214D02*
X0096022Y0154214D01*
X0097004Y0153231D02*
X0112788Y0153231D01*
X0112396Y0152249D02*
X0097987Y0152249D01*
X0098970Y0151266D02*
X0112396Y0151266D01*
X0112396Y0150283D02*
X0099953Y0150283D01*
X0100935Y0149300D02*
X0112747Y0149300D01*
X0113154Y0148318D02*
X0101918Y0148318D01*
X0102901Y0147335D02*
X0114054Y0147335D01*
X0115482Y0146352D02*
X0103884Y0146352D01*
X0104867Y0145369D02*
X0114325Y0145369D01*
X0113342Y0144387D02*
X0105849Y0144387D01*
X0106832Y0143404D02*
X0112859Y0143404D01*
X0112452Y0142421D02*
X0107815Y0142421D01*
X0108798Y0141438D02*
X0112396Y0141438D01*
X0112396Y0140455D02*
X0109780Y0140455D01*
X0110763Y0139473D02*
X0112676Y0139473D01*
X0113083Y0138490D02*
X0111746Y0138490D01*
X0112729Y0137507D02*
X0113882Y0137507D01*
X0113711Y0136524D02*
X0115066Y0136524D01*
X0114498Y0135542D02*
X0114188Y0135542D01*
X0111660Y0134957D02*
X0111660Y0117319D01*
X0117762Y0111217D01*
X0126424Y0110973D02*
X0135151Y0110973D01*
X0135153Y0111955D02*
X0126424Y0111955D01*
X0126424Y0112938D02*
X0135154Y0112938D01*
X0135156Y0113921D02*
X0126424Y0113921D01*
X0126424Y0114904D02*
X0135158Y0114904D01*
X0135159Y0115886D02*
X0126424Y0115886D01*
X0126424Y0116869D02*
X0135161Y0116869D01*
X0135163Y0117852D02*
X0126424Y0117852D01*
X0126424Y0118835D02*
X0135164Y0118835D01*
X0135166Y0119817D02*
X0126424Y0119817D01*
X0126424Y0120800D02*
X0135168Y0120800D01*
X0135169Y0121783D02*
X0126424Y0121783D01*
X0126424Y0122766D02*
X0135171Y0122766D01*
X0135173Y0123748D02*
X0126424Y0123748D01*
X0126424Y0124731D02*
X0135174Y0124731D01*
X0135176Y0125714D02*
X0126424Y0125714D01*
X0126424Y0126697D02*
X0135178Y0126697D01*
X0135180Y0127680D02*
X0126424Y0127680D01*
X0126424Y0128662D02*
X0135181Y0128662D01*
X0135183Y0129645D02*
X0126424Y0129645D01*
X0126424Y0130628D02*
X0135185Y0130628D01*
X0135186Y0131611D02*
X0126424Y0131611D01*
X0126424Y0132593D02*
X0135188Y0132593D01*
X0135190Y0133576D02*
X0126424Y0133576D01*
X0126424Y0134559D02*
X0135191Y0134559D01*
X0135193Y0135542D02*
X0126424Y0135542D01*
X0126424Y0136524D02*
X0135195Y0136524D01*
X0135196Y0137507D02*
X0126424Y0137507D01*
X0126424Y0138490D02*
X0135198Y0138490D01*
X0135200Y0139473D02*
X0126424Y0139473D01*
X0126424Y0140455D02*
X0135202Y0140455D01*
X0135203Y0141438D02*
X0126424Y0141438D01*
X0126424Y0142421D02*
X0135205Y0142421D01*
X0135207Y0143404D02*
X0126424Y0143404D01*
X0126424Y0144387D02*
X0135208Y0144387D01*
X0135210Y0145369D02*
X0126424Y0145369D01*
X0126424Y0146352D02*
X0135212Y0146352D01*
X0135213Y0147335D02*
X0126237Y0147335D01*
X0125540Y0148318D02*
X0135215Y0148318D01*
X0135217Y0149300D02*
X0123298Y0149300D01*
X0123129Y0150283D02*
X0135218Y0150283D01*
X0135220Y0151266D02*
X0123129Y0151266D01*
X0123129Y0152249D02*
X0135222Y0152249D01*
X0135223Y0153231D02*
X0122737Y0153231D01*
X0122330Y0154214D02*
X0135225Y0154214D01*
X0135227Y0155197D02*
X0121372Y0155197D01*
X0119805Y0156180D02*
X0135229Y0156180D01*
X0135230Y0157162D02*
X0121298Y0157162D01*
X0122281Y0158145D02*
X0135232Y0158145D01*
X0135234Y0159128D02*
X0122706Y0159128D01*
X0123113Y0160111D02*
X0135235Y0160111D01*
X0135237Y0161093D02*
X0123129Y0161093D01*
X0123129Y0162076D02*
X0135239Y0162076D01*
X0135240Y0163059D02*
X0122808Y0163059D01*
X0122401Y0164042D02*
X0135242Y0164042D01*
X0135244Y0165025D02*
X0121544Y0165025D01*
X0120221Y0166007D02*
X0135245Y0166007D01*
X0135247Y0166990D02*
X0121126Y0166990D01*
X0122109Y0167973D02*
X0135249Y0167973D01*
X0135251Y0168956D02*
X0122635Y0168956D01*
X0123042Y0169938D02*
X0135252Y0169938D01*
X0135254Y0170921D02*
X0123129Y0170921D01*
X0123129Y0171904D02*
X0135256Y0171904D01*
X0135257Y0172887D02*
X0122880Y0172887D01*
X0122473Y0173869D02*
X0135259Y0173869D01*
X0135261Y0174852D02*
X0121717Y0174852D01*
X0120637Y0175835D02*
X0135262Y0175835D01*
X0135264Y0176818D02*
X0120954Y0176818D01*
X0121936Y0177800D02*
X0135266Y0177800D01*
X0135267Y0178783D02*
X0122564Y0178783D01*
X0122971Y0179766D02*
X0135269Y0179766D01*
X0135271Y0180749D02*
X0123129Y0180749D01*
X0123129Y0181732D02*
X0135273Y0181732D01*
X0135274Y0182714D02*
X0122951Y0182714D01*
X0122544Y0183697D02*
X0135276Y0183697D01*
X0135278Y0184680D02*
X0121889Y0184680D01*
X0120906Y0185663D02*
X0135279Y0185663D01*
X0135281Y0186645D02*
X0120751Y0186645D01*
X0121764Y0187628D02*
X0135283Y0187628D01*
X0135284Y0188611D02*
X0122492Y0188611D01*
X0122899Y0189594D02*
X0135286Y0189594D01*
X0135288Y0190576D02*
X0123129Y0190576D01*
X0123129Y0191559D02*
X0135289Y0191559D01*
X0135291Y0192542D02*
X0123023Y0192542D01*
X0122615Y0193525D02*
X0135293Y0193525D01*
X0135294Y0194507D02*
X0122062Y0194507D01*
X0121079Y0195490D02*
X0135296Y0195490D01*
X0135298Y0196473D02*
X0119097Y0196473D01*
X0116428Y0196473D02*
X0103743Y0196473D01*
X0104473Y0195490D02*
X0114446Y0195490D01*
X0113463Y0194507D02*
X0104880Y0194507D01*
X0104914Y0193525D02*
X0112909Y0193525D01*
X0112502Y0192542D02*
X0104803Y0192542D01*
X0104396Y0191559D02*
X0112396Y0191559D01*
X0112396Y0190576D02*
X0103556Y0190576D01*
X0101758Y0189594D02*
X0112626Y0189594D01*
X0113033Y0188611D02*
X0097673Y0188611D01*
X0096691Y0187628D02*
X0113761Y0187628D01*
X0114774Y0186645D02*
X0095708Y0186645D01*
X0094725Y0185663D02*
X0114618Y0185663D01*
X0113636Y0184680D02*
X0066363Y0184680D01*
X0066770Y0183697D02*
X0112981Y0183697D01*
X0112574Y0182714D02*
X0066908Y0182714D01*
X0066902Y0181732D02*
X0112396Y0181732D01*
X0112396Y0180749D02*
X0066495Y0180749D01*
X0065804Y0179766D02*
X0112554Y0179766D01*
X0112961Y0178783D02*
X0095656Y0178783D01*
X0095876Y0178692D02*
X0093830Y0179539D01*
X0091616Y0179539D01*
X0089570Y0178692D01*
X0088004Y0177126D01*
X0087605Y0176163D01*
X0087206Y0177126D01*
X0085640Y0178692D01*
X0083594Y0179539D01*
X0081380Y0179539D01*
X0079333Y0178692D01*
X0077767Y0177126D01*
X0076920Y0175080D01*
X0076920Y0172865D01*
X0077767Y0170819D01*
X0079333Y0169253D01*
X0081380Y0168406D01*
X0083594Y0168406D01*
X0085640Y0169253D01*
X0087206Y0170819D01*
X0087605Y0171782D01*
X0088004Y0170819D01*
X0089570Y0169253D01*
X0091616Y0168406D01*
X0093830Y0168406D01*
X0095876Y0169253D01*
X0097442Y0170819D01*
X0098290Y0172865D01*
X0098290Y0175080D01*
X0097442Y0177126D01*
X0095876Y0178692D01*
X0096768Y0177800D02*
X0113589Y0177800D01*
X0114571Y0176818D02*
X0097570Y0176818D01*
X0097977Y0175835D02*
X0114888Y0175835D01*
X0113808Y0174852D02*
X0098290Y0174852D01*
X0098290Y0173869D02*
X0113052Y0173869D01*
X0112645Y0172887D02*
X0098290Y0172887D01*
X0097892Y0171904D02*
X0112396Y0171904D01*
X0112396Y0170921D02*
X0097485Y0170921D01*
X0096562Y0169938D02*
X0112483Y0169938D01*
X0112890Y0168956D02*
X0095158Y0168956D01*
X0090288Y0168956D02*
X0084922Y0168956D01*
X0086326Y0169938D02*
X0088884Y0169938D01*
X0087961Y0170921D02*
X0087249Y0170921D01*
X0087334Y0176818D02*
X0087876Y0176818D01*
X0088678Y0177800D02*
X0086532Y0177800D01*
X0085420Y0178783D02*
X0089790Y0178783D01*
X0092762Y0187319D02*
X0099849Y0194406D01*
X0100847Y0193618D01*
X0097950Y0196473D02*
X0086166Y0196473D01*
X0083882Y0197456D02*
X0099484Y0197456D01*
X0102209Y0197456D02*
X0135300Y0197456D01*
X0135301Y0198438D02*
X0082900Y0198438D01*
X0081789Y0199421D02*
X0135303Y0199421D01*
X0135305Y0200404D02*
X0061413Y0200404D01*
X0060954Y0201387D02*
X0088975Y0201387D01*
X0087708Y0202370D02*
X0062777Y0202370D01*
X0064344Y0203352D02*
X0087089Y0203352D01*
X0086727Y0204335D02*
X0065327Y0204335D01*
X0066310Y0205318D02*
X0086727Y0205318D01*
X0085805Y0206301D02*
X0071321Y0206301D01*
X0072304Y0207283D02*
X0075820Y0207283D01*
X0075066Y0208266D02*
X0072965Y0208266D01*
X0074217Y0209249D02*
X0075066Y0209249D01*
X0073471Y0212122D02*
X0077802Y0212122D01*
X0078117Y0212437D01*
X0077802Y0214878D02*
X0078117Y0215193D01*
X0077802Y0214878D02*
X0075440Y0214878D01*
X0073471Y0212909D01*
X0073471Y0212122D01*
X0071975Y0210626D01*
X0067999Y0210626D01*
X0062802Y0205429D01*
X0060085Y0205429D01*
X0059692Y0205035D01*
X0054573Y0205035D01*
X0049534Y0199996D01*
X0049455Y0199996D01*
X0049377Y0199917D01*
X0041581Y0199917D01*
X0039613Y0197949D01*
X0033314Y0197949D01*
X0031739Y0196374D01*
X0032133Y0195980D01*
X0032133Y0180232D01*
X0036070Y0176295D01*
X0043156Y0176295D01*
X0044849Y0174602D01*
X0049495Y0174602D01*
X0041345Y0166453D01*
X0036070Y0166453D01*
X0035676Y0166059D01*
X0032920Y0166059D01*
X0030164Y0163303D01*
X0030164Y0121571D01*
X0041834Y0126697D02*
X0053869Y0126697D01*
X0053869Y0127680D02*
X0042997Y0127680D01*
X0043787Y0128662D02*
X0054073Y0128662D01*
X0054245Y0129645D02*
X0044194Y0129645D01*
X0044468Y0130628D02*
X0053294Y0130628D01*
X0053294Y0131611D02*
X0044468Y0131611D01*
X0044405Y0132593D02*
X0053294Y0132593D01*
X0053294Y0133576D02*
X0043998Y0133576D01*
X0043506Y0134559D02*
X0053294Y0134559D01*
X0053294Y0135542D02*
X0042523Y0135542D01*
X0041417Y0136524D02*
X0053294Y0136524D01*
X0054161Y0137507D02*
X0042824Y0137507D01*
X0043716Y0138490D02*
X0067106Y0138490D01*
X0066123Y0139473D02*
X0044123Y0139473D01*
X0044468Y0140455D02*
X0056479Y0140455D01*
X0055497Y0141438D02*
X0044468Y0141438D01*
X0044468Y0142421D02*
X0054514Y0142421D01*
X0053531Y0143404D02*
X0044069Y0143404D01*
X0043662Y0144387D02*
X0052548Y0144387D01*
X0051565Y0145369D02*
X0042696Y0145369D01*
X0041107Y0146352D02*
X0050583Y0146352D01*
X0049628Y0147335D02*
X0042652Y0147335D01*
X0043635Y0148318D02*
X0049259Y0148318D01*
X0049259Y0149300D02*
X0044051Y0149300D01*
X0044458Y0150283D02*
X0049259Y0150283D01*
X0049259Y0151266D02*
X0044468Y0151266D01*
X0044468Y0152249D02*
X0049259Y0152249D01*
X0049259Y0153231D02*
X0044141Y0153231D01*
X0043734Y0154214D02*
X0049259Y0154214D01*
X0049218Y0155197D02*
X0042868Y0155197D01*
X0041524Y0156180D02*
X0048235Y0156180D01*
X0047253Y0157162D02*
X0042479Y0157162D01*
X0043462Y0158145D02*
X0046270Y0158145D01*
X0045287Y0159128D02*
X0043980Y0159128D01*
X0045518Y0162516D02*
X0045125Y0162909D01*
X0045518Y0162516D02*
X0045518Y0163303D01*
X0046699Y0164484D01*
X0045518Y0162516D02*
X0051818Y0156217D01*
X0051818Y0148736D01*
X0058117Y0142437D01*
X0066778Y0142437D01*
X0072802Y0136413D01*
X0075558Y0136413D01*
X0075203Y0133618D02*
X0075558Y0133264D01*
X0075203Y0133618D02*
X0058117Y0133618D01*
X0062072Y0137507D02*
X0068089Y0137507D01*
X0069072Y0136524D02*
X0062940Y0136524D01*
X0062940Y0130628D02*
X0065103Y0130628D01*
X0063983Y0129645D02*
X0061988Y0129645D01*
X0062161Y0128662D02*
X0063424Y0128662D01*
X0063105Y0127680D02*
X0062365Y0127680D01*
X0062365Y0126697D02*
X0063105Y0126697D01*
X0063337Y0125714D02*
X0058609Y0125714D01*
X0058609Y0125252D02*
X0062365Y0125252D01*
X0062365Y0123382D01*
X0062263Y0123003D01*
X0062067Y0122663D01*
X0061789Y0122385D01*
X0061449Y0122188D01*
X0061069Y0122087D01*
X0058609Y0122087D01*
X0058609Y0125252D01*
X0058609Y0124731D02*
X0057625Y0124731D01*
X0057625Y0125252D02*
X0057625Y0122087D01*
X0055164Y0122087D01*
X0054785Y0122188D01*
X0054445Y0122385D01*
X0054167Y0122663D01*
X0053970Y0123003D01*
X0053869Y0123382D01*
X0053869Y0125252D01*
X0057625Y0125252D01*
X0057625Y0125714D02*
X0042351Y0125714D01*
X0043334Y0124731D02*
X0053869Y0124731D01*
X0053869Y0123748D02*
X0043927Y0123748D01*
X0044334Y0122766D02*
X0054107Y0122766D01*
X0057625Y0122766D02*
X0058609Y0122766D01*
X0058609Y0123748D02*
X0057625Y0123748D01*
X0056993Y0118835D02*
X0067433Y0118835D01*
X0066614Y0119817D02*
X0044265Y0119817D01*
X0044468Y0120800D02*
X0065795Y0120800D01*
X0064966Y0121783D02*
X0044468Y0121783D01*
X0043858Y0118835D02*
X0052942Y0118835D01*
X0051796Y0117852D02*
X0043169Y0117852D01*
X0042186Y0116869D02*
X0051227Y0116869D01*
X0050900Y0115886D02*
X0042179Y0115886D01*
X0043161Y0114904D02*
X0050900Y0114904D01*
X0051125Y0113921D02*
X0043855Y0113921D01*
X0044262Y0112938D02*
X0050822Y0112938D01*
X0050298Y0111955D02*
X0044468Y0111955D01*
X0044468Y0110973D02*
X0049774Y0110973D01*
X0049250Y0109990D02*
X0044337Y0109990D01*
X0043930Y0109007D02*
X0048726Y0109007D01*
X0048202Y0108024D02*
X0043341Y0108024D01*
X0042358Y0107041D02*
X0047677Y0107041D01*
X0047153Y0106059D02*
X0041816Y0106059D01*
X0042989Y0105076D02*
X0046629Y0105076D01*
X0046105Y0104093D02*
X0043784Y0104093D01*
X0044191Y0103110D02*
X0045581Y0103110D01*
X0045057Y0102128D02*
X0044468Y0102128D01*
X0044468Y0101145D02*
X0044533Y0101145D01*
X0045518Y0097555D02*
X0054967Y0115272D01*
X0057402Y0111955D02*
X0097811Y0111955D01*
X0097751Y0112938D02*
X0058385Y0112938D01*
X0058810Y0113921D02*
X0097834Y0113921D01*
X0098242Y0114904D02*
X0059034Y0114904D01*
X0059034Y0115886D02*
X0078004Y0115886D01*
X0077021Y0116869D02*
X0058707Y0116869D01*
X0058138Y0117852D02*
X0072102Y0117852D01*
X0075046Y0120783D02*
X0069140Y0120783D01*
X0067172Y0123146D01*
X0067172Y0127083D01*
X0063772Y0124731D02*
X0062365Y0124731D01*
X0062365Y0123748D02*
X0064613Y0123748D01*
X0064610Y0122766D02*
X0062126Y0122766D01*
X0055575Y0110973D02*
X0098218Y0110973D01*
X0098986Y0109990D02*
X0055050Y0109990D01*
X0054526Y0109007D02*
X0099259Y0109007D01*
X0099259Y0108024D02*
X0054002Y0108024D01*
X0053478Y0107041D02*
X0099259Y0107041D01*
X0099222Y0106059D02*
X0052954Y0106059D01*
X0052430Y0105076D02*
X0098239Y0105076D01*
X0097256Y0104093D02*
X0051906Y0104093D01*
X0051381Y0103110D02*
X0096274Y0103110D01*
X0095291Y0102128D02*
X0060787Y0102128D01*
X0062247Y0101145D02*
X0094308Y0101145D01*
X0093325Y0100162D02*
X0062946Y0100162D01*
X0063353Y0099179D02*
X0092342Y0099179D01*
X0091360Y0098197D02*
X0063365Y0098197D01*
X0063232Y0097214D02*
X0090377Y0097214D01*
X0089394Y0096231D02*
X0062825Y0096231D01*
X0061955Y0095248D02*
X0088411Y0095248D01*
X0087429Y0094266D02*
X0061281Y0094266D01*
X0061135Y0093283D02*
X0086551Y0093283D01*
X0085796Y0092300D02*
X0060990Y0092300D01*
X0060844Y0091317D02*
X0085042Y0091317D01*
X0084287Y0090335D02*
X0060698Y0090335D01*
X0060553Y0089352D02*
X0083532Y0089352D01*
X0082778Y0088369D02*
X0060407Y0088369D01*
X0060282Y0087386D02*
X0082023Y0087386D01*
X0081268Y0086403D02*
X0059951Y0086403D01*
X0059050Y0085421D02*
X0080514Y0085421D01*
X0079759Y0084438D02*
X0058067Y0084438D01*
X0057085Y0083455D02*
X0079005Y0083455D01*
X0078250Y0082472D02*
X0056102Y0082472D01*
X0055311Y0081490D02*
X0077495Y0081490D01*
X0076741Y0080507D02*
X0055164Y0080507D01*
X0055164Y0079524D02*
X0075986Y0079524D01*
X0075231Y0078541D02*
X0059126Y0078541D01*
X0060636Y0077559D02*
X0074477Y0077559D01*
X0073722Y0076576D02*
X0061357Y0076576D01*
X0061764Y0075593D02*
X0072968Y0075593D01*
X0072213Y0074610D02*
X0061790Y0074610D01*
X0062435Y0073628D02*
X0070036Y0073628D01*
X0068794Y0072645D02*
X0063418Y0072645D01*
X0064401Y0071662D02*
X0068184Y0071662D01*
X0067829Y0070679D02*
X0065383Y0070679D01*
X0066366Y0069696D02*
X0067829Y0069696D01*
X0068025Y0068714D02*
X0067349Y0068714D01*
X0068332Y0067731D02*
X0068433Y0067731D01*
X0069314Y0066748D02*
X0069393Y0066748D01*
X0070297Y0065765D02*
X0074849Y0065765D01*
X0074849Y0064783D02*
X0071280Y0064783D01*
X0072263Y0063800D02*
X0074849Y0063800D01*
X0074849Y0062817D02*
X0073245Y0062817D01*
X0074228Y0061834D02*
X0074849Y0061834D01*
X0074849Y0066748D02*
X0074400Y0066748D01*
X0071896Y0069996D02*
X0088825Y0092043D01*
X0101818Y0105035D01*
X0101818Y0112909D01*
X0101673Y0112909D01*
X0100750Y0116869D02*
X0094600Y0116869D01*
X0095028Y0117852D02*
X0101847Y0117852D01*
X0101440Y0118835D02*
X0095255Y0118835D01*
X0095255Y0119817D02*
X0101294Y0119817D01*
X0101294Y0120800D02*
X0094930Y0120800D01*
X0094365Y0121783D02*
X0101699Y0121783D01*
X0102379Y0122766D02*
X0093228Y0122766D01*
X0094720Y0123748D02*
X0088073Y0123748D01*
X0088073Y0123815D02*
X0084219Y0123815D01*
X0084219Y0124488D01*
X0084219Y0126964D01*
X0080365Y0126964D01*
X0080365Y0125784D01*
X0080466Y0125404D01*
X0080475Y0125390D01*
X0080466Y0125375D01*
X0080365Y0124996D01*
X0080365Y0124701D01*
X0079987Y0124701D01*
X0079987Y0128077D01*
X0080365Y0127699D01*
X0080365Y0126965D01*
X0084219Y0126965D01*
X0084219Y0126964D01*
X0084219Y0126965D01*
X0090794Y0126965D01*
X0091581Y0126965D02*
X0098983Y0126965D01*
X0099062Y0126886D01*
X0099554Y0126697D02*
X0105164Y0126697D01*
X0105164Y0127680D02*
X0103507Y0127680D01*
X0103507Y0128662D02*
X0105152Y0128662D01*
X0103904Y0129645D02*
X0103563Y0129645D01*
X0106148Y0131020D02*
X0103786Y0133382D01*
X0099259Y0133382D01*
X0099062Y0133579D01*
X0096227Y0136413D01*
X0084219Y0136413D01*
X0084219Y0133264D02*
X0084219Y0133264D01*
X0088073Y0133264D01*
X0088073Y0132529D01*
X0088648Y0131955D01*
X0088648Y0128274D01*
X0088073Y0127699D01*
X0088073Y0126965D01*
X0084219Y0126965D01*
X0084219Y0126697D02*
X0084219Y0126697D01*
X0084219Y0125714D02*
X0084219Y0125714D01*
X0084219Y0124731D02*
X0084219Y0124731D01*
X0084219Y0123815D02*
X0088073Y0123815D01*
X0088073Y0124731D02*
X0094617Y0124731D01*
X0094617Y0125714D02*
X0088055Y0125714D01*
X0088073Y0126697D02*
X0098569Y0126697D01*
X0098570Y0125714D02*
X0099554Y0125714D01*
X0099554Y0124731D02*
X0098570Y0124731D01*
X0098570Y0123748D02*
X0099554Y0123748D01*
X0103403Y0123748D02*
X0103793Y0123748D01*
X0103507Y0124731D02*
X0105164Y0124731D01*
X0105164Y0125714D02*
X0103507Y0125714D01*
X0107723Y0129839D02*
X0106542Y0131020D01*
X0106148Y0131020D01*
X0107723Y0129839D02*
X0107723Y0121571D01*
X0107723Y0105429D01*
X0088099Y0085805D01*
X0078983Y0073933D01*
X0078196Y0073146D01*
X0078196Y0070390D01*
X0077408Y0069602D01*
X0077408Y0055035D01*
X0090400Y0042043D01*
X0090400Y0042437D01*
X0099180Y0051217D01*
X0117762Y0051217D01*
X0115809Y0056217D02*
X0114722Y0055766D01*
X0113213Y0054257D01*
X0113013Y0053776D01*
X0098671Y0053776D01*
X0097730Y0053386D01*
X0090848Y0046504D01*
X0089591Y0046504D01*
X0089568Y0046494D01*
X0079967Y0056095D01*
X0079967Y0068005D01*
X0080260Y0067299D01*
X0081404Y0066155D01*
X0082898Y0065535D01*
X0084516Y0065535D01*
X0086011Y0066155D01*
X0087155Y0067299D01*
X0087774Y0068793D01*
X0087774Y0070411D01*
X0087155Y0071906D01*
X0086266Y0072795D01*
X0086266Y0072873D01*
X0106815Y0093421D01*
X0112867Y0093421D01*
X0112396Y0092284D01*
X0112396Y0090149D01*
X0113213Y0088176D01*
X0114722Y0086667D01*
X0115809Y0086217D01*
X0114722Y0085766D01*
X0113213Y0084257D01*
X0112396Y0082284D01*
X0112396Y0080149D01*
X0113213Y0078176D01*
X0114722Y0076667D01*
X0116615Y0075883D01*
X0115923Y0075658D01*
X0115251Y0075315D01*
X0114641Y0074872D01*
X0114107Y0074338D01*
X0113664Y0073728D01*
X0113321Y0073056D01*
X0113088Y0072339D01*
X0112989Y0071709D01*
X0117270Y0071709D01*
X0117270Y0070724D01*
X0112989Y0070724D01*
X0113088Y0070094D01*
X0113321Y0069377D01*
X0113664Y0068705D01*
X0114107Y0068095D01*
X0114641Y0067561D01*
X0115251Y0067118D01*
X0115923Y0066775D01*
X0116615Y0066551D01*
X0114722Y0065766D01*
X0113213Y0064257D01*
X0112396Y0062284D01*
X0112396Y0060149D01*
X0113213Y0058176D01*
X0114722Y0056667D01*
X0115809Y0056217D01*
X0115136Y0055938D02*
X0080125Y0055938D01*
X0079967Y0056921D02*
X0114468Y0056921D01*
X0113486Y0057903D02*
X0079967Y0057903D01*
X0079967Y0058886D02*
X0112919Y0058886D01*
X0112512Y0059869D02*
X0079967Y0059869D01*
X0079967Y0060852D02*
X0112396Y0060852D01*
X0112396Y0061834D02*
X0079967Y0061834D01*
X0079967Y0062817D02*
X0112616Y0062817D01*
X0113023Y0063800D02*
X0079967Y0063800D01*
X0079967Y0064783D02*
X0113739Y0064783D01*
X0114721Y0065765D02*
X0085072Y0065765D01*
X0086605Y0066748D02*
X0116007Y0066748D01*
X0114471Y0067731D02*
X0087334Y0067731D01*
X0087741Y0068714D02*
X0113659Y0068714D01*
X0113218Y0069696D02*
X0087774Y0069696D01*
X0087663Y0070679D02*
X0112996Y0070679D01*
X0113188Y0072645D02*
X0086416Y0072645D01*
X0087021Y0073628D02*
X0113613Y0073628D01*
X0114379Y0074610D02*
X0088004Y0074610D01*
X0088986Y0075593D02*
X0115796Y0075593D01*
X0114942Y0076576D02*
X0089969Y0076576D01*
X0090952Y0077559D02*
X0113830Y0077559D01*
X0113061Y0078541D02*
X0091935Y0078541D01*
X0092917Y0079524D02*
X0112654Y0079524D01*
X0112396Y0080507D02*
X0093900Y0080507D01*
X0094883Y0081490D02*
X0112396Y0081490D01*
X0112474Y0082472D02*
X0095866Y0082472D01*
X0096848Y0083455D02*
X0112881Y0083455D01*
X0113394Y0084438D02*
X0097831Y0084438D01*
X0098814Y0085421D02*
X0114377Y0085421D01*
X0115358Y0086403D02*
X0099797Y0086403D01*
X0100780Y0087386D02*
X0114003Y0087386D01*
X0113133Y0088369D02*
X0101762Y0088369D01*
X0102745Y0089352D02*
X0112726Y0089352D01*
X0112396Y0090335D02*
X0103728Y0090335D01*
X0104711Y0091317D02*
X0112396Y0091317D01*
X0112402Y0092300D02*
X0105693Y0092300D01*
X0106676Y0093283D02*
X0112809Y0093283D01*
X0105755Y0095980D02*
X0123865Y0095980D01*
X0124259Y0096374D01*
X0125769Y0094266D02*
X0135122Y0094266D01*
X0135124Y0095248D02*
X0126562Y0095248D01*
X0126818Y0096231D02*
X0135125Y0096231D01*
X0135127Y0097214D02*
X0126681Y0097214D01*
X0126424Y0098197D02*
X0135129Y0098197D01*
X0135131Y0099179D02*
X0126424Y0099179D01*
X0126424Y0100162D02*
X0135132Y0100162D01*
X0135134Y0101145D02*
X0126424Y0101145D01*
X0126424Y0102128D02*
X0135136Y0102128D01*
X0135137Y0103110D02*
X0126424Y0103110D01*
X0126424Y0104093D02*
X0135139Y0104093D01*
X0135141Y0105076D02*
X0126424Y0105076D01*
X0126424Y0106059D02*
X0135142Y0106059D01*
X0135144Y0107041D02*
X0126424Y0107041D01*
X0126424Y0108024D02*
X0135146Y0108024D01*
X0135147Y0109007D02*
X0126424Y0109007D01*
X0126424Y0109990D02*
X0135149Y0109990D01*
X0123894Y0084438D02*
X0122131Y0084438D01*
X0122644Y0083455D02*
X0122911Y0083455D01*
X0122954Y0078541D02*
X0122463Y0078541D01*
X0121694Y0077559D02*
X0123955Y0077559D01*
X0118255Y0071662D02*
X0135083Y0071662D01*
X0117270Y0071662D02*
X0087256Y0071662D01*
X0083707Y0069602D02*
X0083707Y0073933D01*
X0105755Y0095980D01*
X0099043Y0115886D02*
X0093617Y0115886D01*
X0091188Y0119209D02*
X0085676Y0119209D01*
X0084219Y0120665D01*
X0084219Y0123815D02*
X0084219Y0123815D01*
X0080365Y0124731D02*
X0079987Y0124731D01*
X0079987Y0125714D02*
X0080384Y0125714D01*
X0080365Y0126697D02*
X0079987Y0126697D01*
X0079987Y0127680D02*
X0080365Y0127680D01*
X0075558Y0120665D02*
X0075046Y0120783D01*
X0075558Y0120665D02*
X0075558Y0119720D01*
X0081773Y0115886D02*
X0088758Y0115886D01*
X0084637Y0116869D02*
X0082755Y0116869D01*
X0088388Y0122766D02*
X0089148Y0122766D01*
X0088073Y0127680D02*
X0094617Y0127680D01*
X0094617Y0128662D02*
X0088648Y0128662D01*
X0088648Y0129645D02*
X0094560Y0129645D01*
X0094042Y0130628D02*
X0088648Y0130628D01*
X0088648Y0131611D02*
X0094042Y0131611D01*
X0094042Y0132593D02*
X0088073Y0132593D01*
X0088073Y0133576D02*
X0094042Y0133576D01*
X0105361Y0119996D02*
X0106936Y0118421D01*
X0107723Y0118421D01*
X0111660Y0134957D02*
X0091975Y0154642D01*
X0066778Y0154642D01*
X0068947Y0158145D02*
X0113244Y0158145D01*
X0112818Y0159128D02*
X0068748Y0159128D01*
X0069560Y0160111D02*
X0112411Y0160111D01*
X0112396Y0161093D02*
X0069967Y0161093D01*
X0070058Y0162076D02*
X0112396Y0162076D01*
X0112716Y0163059D02*
X0070005Y0163059D01*
X0069598Y0164042D02*
X0113124Y0164042D01*
X0113980Y0165025D02*
X0068840Y0165025D01*
X0067238Y0166007D02*
X0115304Y0166007D01*
X0114399Y0166990D02*
X0064742Y0166990D01*
X0064337Y0167973D02*
X0113416Y0167973D01*
X0114227Y0157162D02*
X0092577Y0157162D01*
X0079888Y0145862D02*
X0079888Y0136807D01*
X0079888Y0145862D02*
X0077014Y0148736D01*
X0064416Y0148736D01*
X0056148Y0157004D01*
X0056148Y0177476D01*
X0053589Y0180035D01*
X0062841Y0189287D01*
X0067566Y0189287D01*
X0069534Y0187319D01*
X0092762Y0187319D01*
X0092401Y0190576D02*
X0088913Y0190576D01*
X0089320Y0191559D02*
X0093384Y0191559D01*
X0094366Y0192542D02*
X0089349Y0192542D01*
X0089234Y0193525D02*
X0095349Y0193525D01*
X0096332Y0194507D02*
X0088827Y0194507D01*
X0087980Y0195490D02*
X0097220Y0195490D01*
X0098656Y0189594D02*
X0099935Y0189594D01*
X0092613Y0201387D02*
X0135306Y0201387D01*
X0135308Y0202370D02*
X0093880Y0202370D01*
X0094499Y0203352D02*
X0135310Y0203352D01*
X0135311Y0204335D02*
X0094861Y0204335D01*
X0094861Y0205318D02*
X0115423Y0205318D01*
X0114440Y0206301D02*
X0094672Y0206301D01*
X0090794Y0205035D02*
X0085991Y0209681D01*
X0085991Y0212437D02*
X0089928Y0212437D01*
X0090400Y0212909D01*
X0090400Y0213303D01*
X0091581Y0214484D01*
X0091581Y0214760D01*
X0097133Y0219130D01*
X0101562Y0219077D02*
X0135337Y0219077D01*
X0135338Y0220059D02*
X0114719Y0220059D01*
X0115584Y0221042D02*
X0135340Y0221042D01*
X0135342Y0222025D02*
X0115991Y0222025D01*
X0116121Y0223008D02*
X0135343Y0223008D01*
X0135345Y0223990D02*
X0121406Y0223990D01*
X0122275Y0224973D02*
X0135347Y0224973D01*
X0135349Y0225956D02*
X0122682Y0225956D01*
X0118747Y0227083D02*
X0112841Y0228264D01*
X0111266Y0228657D01*
X0108510Y0229051D01*
X0081345Y0229051D01*
X0075361Y0223461D01*
X0078117Y0217949D01*
X0082054Y0217752D02*
X0079298Y0222673D01*
X0084101Y0227083D01*
X0100636Y0227083D01*
X0112054Y0223146D01*
X0109389Y0220059D02*
X0101562Y0220059D01*
X0101562Y0221042D02*
X0108523Y0221042D01*
X0107454Y0222025D02*
X0101562Y0222025D01*
X0100902Y0223008D02*
X0104604Y0223008D01*
X0101754Y0223990D02*
X0090122Y0223990D01*
X0090136Y0223008D02*
X0093363Y0223008D01*
X0092703Y0222025D02*
X0090420Y0222025D01*
X0090420Y0221042D02*
X0092703Y0221042D01*
X0092703Y0220059D02*
X0090420Y0220059D01*
X0090012Y0219077D02*
X0092703Y0219077D01*
X0091679Y0218094D02*
X0089045Y0218094D01*
X0089042Y0217111D02*
X0090431Y0217111D01*
X0089378Y0216128D02*
X0088828Y0216128D01*
X0088825Y0215665D02*
X0088353Y0215193D01*
X0085991Y0215193D01*
X0083514Y0214701D02*
X0083514Y0214655D01*
X0082940Y0214081D01*
X0082940Y0212354D01*
X0082054Y0212354D01*
X0082054Y0209878D01*
X0082054Y0209878D01*
X0082054Y0207402D01*
X0082054Y0209878D01*
X0082054Y0209878D01*
X0082054Y0212354D01*
X0081168Y0212354D01*
X0081168Y0214701D01*
X0083514Y0214701D01*
X0083022Y0214163D02*
X0081168Y0214163D01*
X0081168Y0213180D02*
X0082940Y0213180D01*
X0082054Y0212197D02*
X0082054Y0212197D01*
X0082054Y0211214D02*
X0082054Y0211214D01*
X0082054Y0210232D02*
X0082054Y0210232D01*
X0082054Y0209249D02*
X0082054Y0209249D01*
X0082054Y0208266D02*
X0082054Y0208266D01*
X0080414Y0207283D02*
X0083694Y0207283D01*
X0087930Y0215193D02*
X0087930Y0215193D01*
X0088467Y0215193D01*
X0087930Y0215193D01*
X0088467Y0215145D02*
X0088623Y0215145D01*
X0085991Y0217949D02*
X0086463Y0218421D01*
X0086070Y0223146D01*
X0085676Y0218264D02*
X0085991Y0217949D01*
X0097133Y0210862D02*
X0104101Y0210862D01*
X0104180Y0210941D01*
X0104967Y0210941D01*
X0106030Y0209878D01*
X0118904Y0210272D01*
X0122465Y0215145D02*
X0135330Y0215145D01*
X0135328Y0214163D02*
X0130115Y0214163D01*
X0130436Y0213180D02*
X0135327Y0213180D01*
X0135325Y0212197D02*
X0130436Y0212197D01*
X0130436Y0211214D02*
X0135323Y0211214D01*
X0135322Y0210232D02*
X0126877Y0210232D01*
X0126877Y0209780D02*
X0130436Y0209780D01*
X0130436Y0207122D01*
X0130334Y0206743D01*
X0130138Y0206403D01*
X0129860Y0206125D01*
X0129519Y0205928D01*
X0129140Y0205827D01*
X0126877Y0205827D01*
X0126877Y0209779D01*
X0126877Y0209249D02*
X0125892Y0209249D01*
X0125892Y0208266D02*
X0126877Y0208266D01*
X0126877Y0207283D02*
X0125892Y0207283D01*
X0125892Y0206301D02*
X0126877Y0206301D01*
X0130035Y0206301D02*
X0135315Y0206301D01*
X0135316Y0207283D02*
X0130436Y0207283D01*
X0130436Y0208266D02*
X0135318Y0208266D01*
X0135320Y0209249D02*
X0130436Y0209249D01*
X0126877Y0211214D02*
X0125892Y0211214D01*
X0125892Y0212197D02*
X0126877Y0212197D01*
X0126877Y0213180D02*
X0125892Y0213180D01*
X0125892Y0214163D02*
X0126877Y0214163D01*
X0122385Y0205318D02*
X0135313Y0205318D01*
X0135332Y0216128D02*
X0101562Y0216128D01*
X0101562Y0217111D02*
X0135333Y0217111D01*
X0135335Y0218094D02*
X0101562Y0218094D01*
X0100796Y0215145D02*
X0115343Y0215145D01*
X0114360Y0214163D02*
X0107497Y0214163D01*
X0108442Y0213180D02*
X0114278Y0213180D01*
X0114278Y0207283D02*
X0106764Y0207283D01*
X0103170Y0207283D02*
X0101201Y0207283D01*
X0101562Y0208266D02*
X0101890Y0208266D01*
X0101479Y0214163D02*
X0102437Y0214163D01*
X0085282Y0192831D02*
X0085282Y0192437D01*
X0080558Y0197161D01*
X0058904Y0197161D01*
X0054180Y0192043D01*
X0049534Y0192043D01*
X0049455Y0192122D01*
X0049928Y0191650D01*
X0049455Y0192122D02*
X0048707Y0191374D01*
X0039101Y0191374D01*
X0039101Y0181374D02*
X0048392Y0181374D01*
X0049495Y0182476D01*
X0050164Y0181807D01*
X0052211Y0181807D01*
X0052605Y0181413D01*
X0052605Y0181020D01*
X0053589Y0180035D01*
X0062054Y0182949D02*
X0062841Y0182555D01*
X0061660Y0166453D01*
X0065991Y0162122D01*
X0064410Y0168956D02*
X0080052Y0168956D01*
X0078648Y0169938D02*
X0064482Y0169938D01*
X0064554Y0170921D02*
X0077725Y0170921D01*
X0077318Y0171904D02*
X0064626Y0171904D01*
X0064698Y0172887D02*
X0076920Y0172887D01*
X0076920Y0173869D02*
X0064770Y0173869D01*
X0064842Y0174852D02*
X0076920Y0174852D01*
X0077233Y0175835D02*
X0064914Y0175835D01*
X0064986Y0176818D02*
X0077640Y0176818D01*
X0078442Y0177800D02*
X0065058Y0177800D01*
X0065130Y0178783D02*
X0079554Y0178783D01*
X0085282Y0191650D02*
X0085282Y0192437D01*
X0068747Y0210193D02*
X0067999Y0210626D01*
X0067999Y0218894D02*
X0069140Y0225508D01*
X0069140Y0225902D01*
X0057393Y0202370D02*
X0055527Y0202370D01*
X0054544Y0201387D02*
X0059217Y0201387D01*
X0056395Y0200404D02*
X0054278Y0200404D01*
X0054278Y0199421D02*
X0055438Y0199421D01*
X0055031Y0198438D02*
X0054278Y0198438D01*
X0054278Y0197456D02*
X0054837Y0197456D01*
X0054786Y0196473D02*
X0053777Y0196473D01*
X0063818Y0186645D02*
X0066589Y0186645D01*
X0067571Y0185663D02*
X0065485Y0185663D01*
X0039101Y0171374D02*
X0036266Y0171374D01*
X0028589Y0179051D01*
X0028589Y0207791D01*
X0035282Y0214484D01*
X0035203Y0214484D01*
X0035676Y0221650D01*
X0050857Y0102128D02*
X0057809Y0102128D01*
X0056349Y0101145D02*
X0050333Y0101145D01*
X0049809Y0100162D02*
X0055650Y0100162D01*
X0055243Y0099179D02*
X0049285Y0099179D01*
X0048761Y0098197D02*
X0055231Y0098197D01*
X0055363Y0097214D02*
X0048471Y0097214D01*
X0048460Y0096231D02*
X0055770Y0096231D01*
X0056252Y0095248D02*
X0048012Y0095248D01*
X0047029Y0094266D02*
X0056107Y0094266D01*
X0055961Y0093283D02*
X0044119Y0093283D01*
X0044468Y0092300D02*
X0055816Y0092300D01*
X0055670Y0091317D02*
X0044468Y0091317D01*
X0044468Y0090335D02*
X0055525Y0090335D01*
X0055379Y0089352D02*
X0044072Y0089352D01*
X0043665Y0088369D02*
X0054760Y0088369D01*
X0053778Y0087386D02*
X0042703Y0087386D01*
X0041125Y0086403D02*
X0052795Y0086403D01*
X0051812Y0085421D02*
X0042644Y0085421D01*
X0043627Y0084438D02*
X0050829Y0084438D01*
X0050355Y0083455D02*
X0044048Y0083455D01*
X0044455Y0082472D02*
X0050046Y0082472D01*
X0050046Y0081490D02*
X0044468Y0081490D01*
X0044468Y0080507D02*
X0050046Y0080507D01*
X0050046Y0079524D02*
X0044144Y0079524D01*
X0043737Y0078541D02*
X0050046Y0078541D01*
X0050046Y0077559D02*
X0042876Y0077559D01*
X0041542Y0076576D02*
X0050046Y0076576D01*
X0050046Y0075593D02*
X0031148Y0075593D01*
X0031148Y0074610D02*
X0050046Y0074610D01*
X0049967Y0073628D02*
X0031148Y0073628D01*
X0031148Y0072645D02*
X0049652Y0072645D01*
X0049730Y0071662D02*
X0031148Y0071662D01*
X0031148Y0070679D02*
X0050271Y0070679D01*
X0051254Y0069696D02*
X0031148Y0069696D01*
X0031148Y0068714D02*
X0052237Y0068714D01*
X0053220Y0067731D02*
X0031148Y0067731D01*
X0031148Y0066748D02*
X0054202Y0066748D01*
X0055185Y0065765D02*
X0031321Y0065765D01*
X0032304Y0064783D02*
X0055655Y0064783D01*
X0056062Y0063800D02*
X0033189Y0063800D01*
X0033510Y0062817D02*
X0056788Y0062817D01*
X0058313Y0061834D02*
X0033611Y0061834D01*
X0033730Y0060852D02*
X0067973Y0060852D01*
X0066990Y0061834D02*
X0061070Y0061834D01*
X0062595Y0062817D02*
X0066007Y0062817D01*
X0065025Y0063800D02*
X0063321Y0063800D01*
X0063728Y0064783D02*
X0064042Y0064783D01*
X0059692Y0065665D02*
X0057329Y0067240D01*
X0052605Y0071965D01*
X0052605Y0082201D01*
X0052999Y0082594D01*
X0052999Y0082988D01*
X0057723Y0087713D01*
X0059298Y0098343D01*
X0056320Y0078541D02*
X0055164Y0078541D01*
X0057723Y0074720D02*
X0077408Y0055035D01*
X0075835Y0052990D02*
X0034679Y0052990D01*
X0034560Y0053972D02*
X0074852Y0053972D01*
X0073869Y0054955D02*
X0034442Y0054955D01*
X0034323Y0055938D02*
X0072887Y0055938D01*
X0071904Y0056921D02*
X0034204Y0056921D01*
X0034086Y0057903D02*
X0070921Y0057903D01*
X0069938Y0058886D02*
X0033967Y0058886D01*
X0033848Y0059869D02*
X0068956Y0059869D01*
X0076818Y0052007D02*
X0034797Y0052007D01*
X0034916Y0051024D02*
X0077800Y0051024D01*
X0078783Y0050041D02*
X0035035Y0050041D01*
X0035153Y0049058D02*
X0079766Y0049058D01*
X0080749Y0048076D02*
X0035272Y0048076D01*
X0035390Y0047093D02*
X0081732Y0047093D01*
X0082714Y0046110D02*
X0035509Y0046110D01*
X0035628Y0045127D02*
X0083697Y0045127D01*
X0084680Y0044145D02*
X0035746Y0044145D01*
X0035865Y0043162D02*
X0085663Y0043162D01*
X0086333Y0042179D02*
X0035983Y0042179D01*
X0037471Y0041196D02*
X0086512Y0041196D01*
X0086919Y0040214D02*
X0040650Y0040214D01*
X0043830Y0039231D02*
X0087855Y0039231D01*
X0092946Y0039231D02*
X0112776Y0039231D01*
X0112396Y0040214D02*
X0093881Y0040214D01*
X0094288Y0041196D02*
X0112396Y0041196D01*
X0112396Y0042179D02*
X0094467Y0042179D01*
X0094744Y0043162D02*
X0112759Y0043162D01*
X0113166Y0044145D02*
X0095727Y0044145D01*
X0096710Y0045127D02*
X0114083Y0045127D01*
X0115552Y0046110D02*
X0097692Y0046110D01*
X0098675Y0047093D02*
X0114296Y0047093D01*
X0113313Y0048076D02*
X0099658Y0048076D01*
X0096351Y0052007D02*
X0084056Y0052007D01*
X0083073Y0052990D02*
X0097334Y0052990D01*
X0095368Y0051024D02*
X0085039Y0051024D01*
X0086021Y0050041D02*
X0094385Y0050041D01*
X0093403Y0049058D02*
X0087004Y0049058D01*
X0087987Y0048076D02*
X0092420Y0048076D01*
X0091437Y0047093D02*
X0088970Y0047093D01*
X0082090Y0053972D02*
X0113095Y0053972D01*
X0113911Y0054955D02*
X0081108Y0054955D01*
X0079967Y0065765D02*
X0082343Y0065765D01*
X0080810Y0066748D02*
X0079967Y0066748D01*
X0079967Y0067731D02*
X0080080Y0067731D01*
X0072446Y0030386D02*
X0094102Y0030386D01*
X0095125Y0020390D02*
X0119140Y0020390D01*
X0128196Y0011335D01*
X0083065Y0029403D02*
X0075625Y0029403D01*
X0052605Y0071965D02*
X0052211Y0072358D01*
X0037077Y0086403D02*
X0031148Y0086403D01*
X0031148Y0085421D02*
X0035558Y0085421D01*
X0034575Y0084438D02*
X0031148Y0084438D01*
X0031148Y0083455D02*
X0034154Y0083455D01*
X0033747Y0082472D02*
X0031148Y0082472D01*
X0031148Y0081490D02*
X0033734Y0081490D01*
X0033734Y0080507D02*
X0031148Y0080507D01*
X0031148Y0079524D02*
X0034058Y0079524D01*
X0034465Y0078541D02*
X0031148Y0078541D01*
X0031148Y0077559D02*
X0035326Y0077559D01*
X0036660Y0076576D02*
X0031148Y0076576D01*
X0031148Y0087386D02*
X0035499Y0087386D01*
X0034537Y0088369D02*
X0031148Y0088369D01*
X0031148Y0089352D02*
X0034130Y0089352D01*
X0033734Y0090335D02*
X0031148Y0090335D01*
X0031876Y0091317D02*
X0033734Y0091317D01*
X0033734Y0092300D02*
X0032859Y0092300D01*
X0033841Y0093283D02*
X0034083Y0093283D01*
X0033314Y0096374D02*
X0045518Y0096374D01*
X0045518Y0097555D01*
X0045912Y0096768D02*
X0045518Y0096374D01*
X0033314Y0096374D02*
X0028589Y0091650D01*
X0028589Y0064878D01*
X0030951Y0062516D01*
D23*
X0057723Y0074720D03*
X0059692Y0065665D03*
X0071896Y0069996D03*
X0083707Y0069602D03*
X0090400Y0042437D03*
X0095125Y0020390D03*
X0128196Y0011335D03*
X0134495Y0045587D03*
X0126227Y0081020D03*
X0105361Y0119996D03*
X0101818Y0112909D03*
X0091188Y0119209D03*
X0067172Y0127083D03*
X0054967Y0115272D03*
X0059298Y0098343D03*
X0030164Y0121571D03*
X0046699Y0164484D03*
X0062841Y0182555D03*
X0058904Y0197161D03*
X0060085Y0205429D03*
X0069140Y0225902D03*
X0086070Y0223146D03*
X0090794Y0205035D03*
X0085282Y0192437D03*
X0100847Y0193618D03*
X0104967Y0210941D03*
X0112054Y0223146D03*
X0118747Y0227083D03*
X0066778Y0154642D03*
X0065991Y0162122D03*
X0040794Y0208579D03*
X0035676Y0221571D03*
D24*
X0105361Y0119996D02*
X0107723Y0119996D01*
X0107723Y0121571D01*
M02*
