G75*
%MOIN*%
%OFA0B0*%
%FSLAX25Y25*%
%IPPOS*%
%LPD*%
%AMOC8*
5,1,8,0,0,1.08239X$1,22.5*
%
%ADD10C,0.00300*%
%ADD11R,0.00591X0.01181*%
%ADD12R,0.01181X0.01181*%
%ADD13C,0.00800*%
%ADD14C,0.00600*%
%ADD15C,0.00200*%
%ADD16R,0.00787X0.00787*%
%ADD17C,0.00500*%
%ADD18R,0.05512X0.02559*%
%ADD19C,0.00197*%
D10*
X0052991Y0069911D02*
X0055460Y0069911D01*
X0054226Y0071145D02*
X0054226Y0068677D01*
X0129741Y0048588D02*
X0132210Y0048588D01*
X0130975Y0047354D02*
X0130975Y0049823D01*
D11*
X0130636Y0039996D03*
X0125912Y0039996D03*
D12*
X0128274Y0039996D03*
D13*
X0084062Y0139091D02*
X0069888Y0139091D01*
X0069888Y0146177D01*
X0084062Y0146177D01*
X0084062Y0139091D01*
X0093353Y0144130D02*
X0093353Y0158303D01*
X0100440Y0158303D01*
X0100440Y0144130D01*
X0093353Y0144130D01*
X0103077Y0151295D02*
X0103077Y0165469D01*
X0110164Y0165469D01*
X0110164Y0151295D01*
X0103077Y0151295D01*
X0093550Y0161689D02*
X0079377Y0161689D01*
X0079377Y0168776D01*
X0093550Y0168776D01*
X0093550Y0161689D01*
X0097762Y0168224D02*
X0111936Y0168224D01*
X0111936Y0175311D01*
X0097762Y0175311D01*
X0097762Y0168224D01*
X0099022Y0179051D02*
X0113196Y0179051D01*
X0113196Y0186138D01*
X0099022Y0186138D01*
X0099022Y0179051D01*
X0095400Y0179248D02*
X0081227Y0179248D01*
X0081227Y0186335D01*
X0095400Y0186335D01*
X0095400Y0179248D01*
X0079180Y0179406D02*
X0065007Y0179406D01*
X0065007Y0186492D01*
X0079180Y0186492D01*
X0079180Y0179406D01*
X0077408Y0176256D02*
X0077408Y0169169D01*
X0063235Y0169169D01*
X0063235Y0176256D01*
X0077408Y0176256D01*
X0063314Y0153264D02*
X0063314Y0139091D01*
X0056227Y0139091D01*
X0056227Y0153264D01*
X0063314Y0153264D01*
X0058156Y0156059D02*
X0054219Y0156059D01*
X0054219Y0164720D02*
X0058156Y0164720D01*
X0060794Y0169406D02*
X0046621Y0169406D01*
X0046621Y0176492D01*
X0060794Y0176492D01*
X0060794Y0169406D01*
X0061070Y0179406D02*
X0046896Y0179406D01*
X0046896Y0186492D01*
X0061070Y0186492D01*
X0061070Y0179406D01*
D14*
X0065325Y0100846D02*
X0102325Y0100846D01*
X0102401Y0100844D01*
X0102477Y0100838D01*
X0102552Y0100829D01*
X0102627Y0100815D01*
X0102701Y0100798D01*
X0102774Y0100777D01*
X0102846Y0100753D01*
X0102917Y0100724D01*
X0102986Y0100693D01*
X0103053Y0100658D01*
X0103118Y0100619D01*
X0103182Y0100577D01*
X0103243Y0100532D01*
X0103302Y0100484D01*
X0103358Y0100433D01*
X0103412Y0100379D01*
X0103463Y0100323D01*
X0103511Y0100264D01*
X0103556Y0100203D01*
X0103598Y0100139D01*
X0103637Y0100074D01*
X0103672Y0100007D01*
X0103703Y0099938D01*
X0103732Y0099867D01*
X0103756Y0099795D01*
X0103777Y0099722D01*
X0103794Y0099648D01*
X0103808Y0099573D01*
X0103817Y0099498D01*
X0103823Y0099422D01*
X0103825Y0099346D01*
X0103825Y0086946D01*
X0103823Y0086870D01*
X0103817Y0086794D01*
X0103808Y0086719D01*
X0103794Y0086644D01*
X0103777Y0086570D01*
X0103756Y0086497D01*
X0103732Y0086425D01*
X0103703Y0086354D01*
X0103672Y0086285D01*
X0103637Y0086218D01*
X0103598Y0086153D01*
X0103556Y0086089D01*
X0103511Y0086028D01*
X0103463Y0085969D01*
X0103412Y0085913D01*
X0103358Y0085859D01*
X0103302Y0085808D01*
X0103243Y0085760D01*
X0103182Y0085715D01*
X0103118Y0085673D01*
X0103053Y0085634D01*
X0102986Y0085599D01*
X0102917Y0085568D01*
X0102846Y0085539D01*
X0102774Y0085515D01*
X0102701Y0085494D01*
X0102627Y0085477D01*
X0102552Y0085463D01*
X0102477Y0085454D01*
X0102401Y0085448D01*
X0102325Y0085446D01*
X0065325Y0085446D01*
X0065249Y0085448D01*
X0065173Y0085454D01*
X0065098Y0085463D01*
X0065023Y0085477D01*
X0064949Y0085494D01*
X0064876Y0085515D01*
X0064804Y0085539D01*
X0064733Y0085568D01*
X0064664Y0085599D01*
X0064597Y0085634D01*
X0064532Y0085673D01*
X0064468Y0085715D01*
X0064407Y0085760D01*
X0064348Y0085808D01*
X0064292Y0085859D01*
X0064238Y0085913D01*
X0064187Y0085969D01*
X0064139Y0086028D01*
X0064094Y0086089D01*
X0064052Y0086153D01*
X0064013Y0086218D01*
X0063978Y0086285D01*
X0063947Y0086354D01*
X0063918Y0086425D01*
X0063894Y0086497D01*
X0063873Y0086570D01*
X0063856Y0086644D01*
X0063842Y0086719D01*
X0063833Y0086794D01*
X0063827Y0086870D01*
X0063825Y0086946D01*
X0063825Y0091146D01*
X0063825Y0095146D01*
X0063825Y0099346D01*
X0063827Y0099422D01*
X0063833Y0099498D01*
X0063842Y0099573D01*
X0063856Y0099648D01*
X0063873Y0099722D01*
X0063894Y0099795D01*
X0063918Y0099867D01*
X0063947Y0099938D01*
X0063978Y0100007D01*
X0064013Y0100074D01*
X0064052Y0100139D01*
X0064094Y0100203D01*
X0064139Y0100264D01*
X0064187Y0100323D01*
X0064238Y0100379D01*
X0064292Y0100433D01*
X0064348Y0100484D01*
X0064407Y0100532D01*
X0064468Y0100577D01*
X0064532Y0100619D01*
X0064597Y0100658D01*
X0064664Y0100693D01*
X0064733Y0100724D01*
X0064804Y0100753D01*
X0064876Y0100777D01*
X0064949Y0100798D01*
X0065023Y0100815D01*
X0065098Y0100829D01*
X0065173Y0100838D01*
X0065249Y0100844D01*
X0065325Y0100846D01*
X0063825Y0095146D02*
X0063913Y0095144D01*
X0064002Y0095138D01*
X0064090Y0095128D01*
X0064177Y0095115D01*
X0064264Y0095097D01*
X0064350Y0095076D01*
X0064435Y0095051D01*
X0064518Y0095022D01*
X0064601Y0094989D01*
X0064681Y0094953D01*
X0064760Y0094914D01*
X0064838Y0094871D01*
X0064913Y0094824D01*
X0064986Y0094774D01*
X0065057Y0094721D01*
X0065126Y0094665D01*
X0065192Y0094606D01*
X0065255Y0094544D01*
X0065315Y0094480D01*
X0065373Y0094413D01*
X0065427Y0094343D01*
X0065479Y0094271D01*
X0065527Y0094197D01*
X0065572Y0094120D01*
X0065613Y0094042D01*
X0065651Y0093962D01*
X0065685Y0093881D01*
X0065716Y0093798D01*
X0065743Y0093713D01*
X0065766Y0093628D01*
X0065785Y0093542D01*
X0065801Y0093454D01*
X0065813Y0093367D01*
X0065821Y0093279D01*
X0065825Y0093190D01*
X0065825Y0093102D01*
X0065821Y0093013D01*
X0065813Y0092925D01*
X0065801Y0092838D01*
X0065785Y0092750D01*
X0065766Y0092664D01*
X0065743Y0092579D01*
X0065716Y0092494D01*
X0065685Y0092411D01*
X0065651Y0092330D01*
X0065613Y0092250D01*
X0065572Y0092172D01*
X0065527Y0092095D01*
X0065479Y0092021D01*
X0065427Y0091949D01*
X0065373Y0091879D01*
X0065315Y0091812D01*
X0065255Y0091748D01*
X0065192Y0091686D01*
X0065126Y0091627D01*
X0065057Y0091571D01*
X0064986Y0091518D01*
X0064913Y0091468D01*
X0064838Y0091421D01*
X0064760Y0091378D01*
X0064681Y0091339D01*
X0064601Y0091303D01*
X0064518Y0091270D01*
X0064435Y0091241D01*
X0064350Y0091216D01*
X0064264Y0091195D01*
X0064177Y0091177D01*
X0064090Y0091164D01*
X0064002Y0091154D01*
X0063913Y0091148D01*
X0063825Y0091146D01*
D15*
X0063825Y0086846D02*
X0103825Y0086846D01*
D16*
X0030833Y0090075D03*
X0030203Y0152673D03*
D17*
X0001266Y0052319D02*
X0001266Y0016098D01*
X0001266Y0016099D02*
X0001257Y0015964D01*
X0001252Y0015828D01*
X0001250Y0015693D01*
X0001252Y0015558D01*
X0001258Y0015422D01*
X0001268Y0015287D01*
X0001282Y0015153D01*
X0001300Y0015018D01*
X0001322Y0014885D01*
X0001347Y0014752D01*
X0001376Y0014619D01*
X0001409Y0014488D01*
X0001445Y0014358D01*
X0001486Y0014229D01*
X0001530Y0014100D01*
X0001577Y0013974D01*
X0001629Y0013848D01*
X0001683Y0013725D01*
X0001742Y0013602D01*
X0001804Y0013482D01*
X0001869Y0013363D01*
X0001937Y0013246D01*
X0002009Y0013132D01*
X0002084Y0013019D01*
X0002163Y0012909D01*
X0002244Y0012800D01*
X0002328Y0012695D01*
X0002416Y0012591D01*
X0002506Y0012490D01*
X0002599Y0012392D01*
X0002695Y0012297D01*
X0002794Y0012204D01*
X0002895Y0012114D01*
X0002999Y0012027D01*
X0003105Y0011943D01*
X0003214Y0011862D01*
X0003325Y0011785D01*
X0003438Y0011710D01*
X0003553Y0011639D01*
X0003670Y0011571D01*
X0003789Y0011506D01*
X0003910Y0011445D01*
X0004032Y0011387D01*
X0004157Y0011333D01*
X0004282Y0011283D01*
X0004409Y0011236D01*
X0004537Y0011192D01*
X0004667Y0011153D01*
X0004797Y0011117D01*
X0004929Y0011084D01*
X0005061Y0011056D01*
X0005194Y0011031D01*
X0005328Y0011011D01*
X0005463Y0010994D01*
X0005597Y0010980D01*
X0016227Y0016098D02*
X0016227Y0052319D01*
X0019770Y0052319D02*
X0019770Y0016098D01*
X0016226Y0016099D02*
X0016217Y0015964D01*
X0016212Y0015828D01*
X0016210Y0015693D01*
X0016212Y0015558D01*
X0016218Y0015422D01*
X0016228Y0015287D01*
X0016242Y0015153D01*
X0016260Y0015018D01*
X0016282Y0014885D01*
X0016307Y0014752D01*
X0016336Y0014619D01*
X0016369Y0014488D01*
X0016405Y0014358D01*
X0016446Y0014229D01*
X0016490Y0014100D01*
X0016537Y0013974D01*
X0016589Y0013848D01*
X0016643Y0013725D01*
X0016702Y0013602D01*
X0016764Y0013482D01*
X0016829Y0013363D01*
X0016897Y0013246D01*
X0016969Y0013132D01*
X0017044Y0013019D01*
X0017123Y0012909D01*
X0017204Y0012800D01*
X0017288Y0012695D01*
X0017376Y0012591D01*
X0017466Y0012490D01*
X0017559Y0012392D01*
X0017655Y0012297D01*
X0017754Y0012204D01*
X0017855Y0012114D01*
X0017959Y0012027D01*
X0018065Y0011943D01*
X0018174Y0011862D01*
X0018285Y0011785D01*
X0018398Y0011710D01*
X0018513Y0011639D01*
X0018630Y0011571D01*
X0018749Y0011506D01*
X0018870Y0011445D01*
X0018992Y0011387D01*
X0019117Y0011333D01*
X0019242Y0011283D01*
X0019369Y0011236D01*
X0019497Y0011192D01*
X0019627Y0011153D01*
X0019757Y0011117D01*
X0019889Y0011084D01*
X0020021Y0011056D01*
X0020154Y0011031D01*
X0020288Y0011011D01*
X0020423Y0010994D01*
X0020557Y0010980D01*
X0022762Y0007437D02*
X0022919Y0007439D01*
X0023076Y0007445D01*
X0023233Y0007455D01*
X0023389Y0007468D01*
X0023545Y0007486D01*
X0023701Y0007507D01*
X0023856Y0007533D01*
X0024010Y0007562D01*
X0024164Y0007595D01*
X0024316Y0007632D01*
X0024468Y0007672D01*
X0024619Y0007717D01*
X0024768Y0007765D01*
X0024916Y0007817D01*
X0025063Y0007872D01*
X0025209Y0007932D01*
X0025353Y0007994D01*
X0025495Y0008061D01*
X0025636Y0008131D01*
X0025775Y0008204D01*
X0025912Y0008281D01*
X0026047Y0008361D01*
X0026179Y0008445D01*
X0026310Y0008532D01*
X0026439Y0008622D01*
X0026565Y0008715D01*
X0026689Y0008811D01*
X0026811Y0008911D01*
X0026930Y0009013D01*
X0027046Y0009119D01*
X0027160Y0009227D01*
X0027271Y0009338D01*
X0027379Y0009452D01*
X0027485Y0009568D01*
X0027587Y0009687D01*
X0027687Y0009809D01*
X0027783Y0009933D01*
X0027876Y0010059D01*
X0027966Y0010188D01*
X0028053Y0010319D01*
X0028137Y0010451D01*
X0028217Y0010587D01*
X0028294Y0010723D01*
X0028367Y0010862D01*
X0028437Y0011003D01*
X0028504Y0011145D01*
X0028566Y0011289D01*
X0028626Y0011435D01*
X0028681Y0011582D01*
X0028733Y0011730D01*
X0028781Y0011879D01*
X0028826Y0012030D01*
X0028866Y0012182D01*
X0028903Y0012334D01*
X0028936Y0012488D01*
X0028965Y0012642D01*
X0028991Y0012797D01*
X0029012Y0012953D01*
X0029030Y0013109D01*
X0029043Y0013265D01*
X0029053Y0013422D01*
X0029059Y0013579D01*
X0029061Y0013736D01*
X0029062Y0013736D02*
X0029062Y0051925D01*
X0029061Y0051925D02*
X0029046Y0052034D01*
X0029026Y0052143D01*
X0029003Y0052252D01*
X0028976Y0052359D01*
X0028945Y0052466D01*
X0028911Y0052571D01*
X0028873Y0052675D01*
X0028831Y0052778D01*
X0028786Y0052879D01*
X0028737Y0052978D01*
X0028685Y0053076D01*
X0028629Y0053172D01*
X0028570Y0053265D01*
X0028508Y0053357D01*
X0028443Y0053447D01*
X0028374Y0053534D01*
X0028303Y0053619D01*
X0028229Y0053701D01*
X0028151Y0053780D01*
X0028072Y0053857D01*
X0027989Y0053931D01*
X0027904Y0054002D01*
X0027817Y0054070D01*
X0027727Y0054135D01*
X0027635Y0054197D01*
X0027541Y0054255D01*
X0027445Y0054310D01*
X0027347Y0054362D01*
X0027247Y0054411D01*
X0027146Y0054455D01*
X0027043Y0054497D01*
X0026939Y0054534D01*
X0026833Y0054568D01*
X0026727Y0054599D01*
X0026619Y0054625D01*
X0026511Y0054648D01*
X0026402Y0054667D01*
X0026292Y0054682D01*
X0026182Y0054694D01*
X0026071Y0054701D01*
X0025960Y0054705D01*
X0025850Y0054704D01*
X0025739Y0054700D01*
X0025628Y0054692D01*
X0025518Y0054680D01*
X0025518Y0054681D02*
X0025518Y0058618D01*
X0082211Y0058618D01*
X0082211Y0003500D01*
X0022762Y0003500D01*
X0022762Y0007437D01*
X0024101Y0010980D02*
X0023967Y0010994D01*
X0023832Y0011011D01*
X0023698Y0011031D01*
X0023565Y0011056D01*
X0023433Y0011084D01*
X0023301Y0011117D01*
X0023171Y0011153D01*
X0023041Y0011192D01*
X0022913Y0011236D01*
X0022786Y0011283D01*
X0022661Y0011333D01*
X0022536Y0011387D01*
X0022414Y0011445D01*
X0022293Y0011506D01*
X0022174Y0011571D01*
X0022057Y0011639D01*
X0021942Y0011710D01*
X0021829Y0011785D01*
X0021718Y0011862D01*
X0021609Y0011943D01*
X0021503Y0012027D01*
X0021399Y0012114D01*
X0021298Y0012204D01*
X0021199Y0012297D01*
X0021103Y0012392D01*
X0021010Y0012490D01*
X0020920Y0012591D01*
X0020832Y0012695D01*
X0020748Y0012800D01*
X0020667Y0012909D01*
X0020588Y0013019D01*
X0020513Y0013132D01*
X0020441Y0013246D01*
X0020373Y0013363D01*
X0020308Y0013482D01*
X0020246Y0013602D01*
X0020187Y0013725D01*
X0020133Y0013848D01*
X0020081Y0013974D01*
X0020034Y0014100D01*
X0019990Y0014229D01*
X0019949Y0014358D01*
X0019913Y0014488D01*
X0019880Y0014619D01*
X0019851Y0014752D01*
X0019826Y0014885D01*
X0019804Y0015018D01*
X0019786Y0015153D01*
X0019772Y0015287D01*
X0019762Y0015422D01*
X0019756Y0015558D01*
X0019754Y0015693D01*
X0019756Y0015828D01*
X0019761Y0015964D01*
X0019770Y0016099D01*
X0016227Y0052319D02*
X0016229Y0052454D01*
X0016235Y0052589D01*
X0016244Y0052723D01*
X0016258Y0052857D01*
X0016275Y0052991D01*
X0016296Y0053125D01*
X0016321Y0053257D01*
X0016350Y0053389D01*
X0016382Y0053520D01*
X0016418Y0053650D01*
X0016458Y0053779D01*
X0016502Y0053906D01*
X0016549Y0054033D01*
X0016600Y0054158D01*
X0016654Y0054281D01*
X0016712Y0054403D01*
X0016773Y0054524D01*
X0016838Y0054642D01*
X0016906Y0054758D01*
X0016977Y0054873D01*
X0017051Y0054985D01*
X0017129Y0055096D01*
X0017210Y0055204D01*
X0017294Y0055309D01*
X0017381Y0055413D01*
X0017471Y0055513D01*
X0017563Y0055611D01*
X0017659Y0055707D01*
X0017757Y0055799D01*
X0017857Y0055889D01*
X0017961Y0055976D01*
X0018066Y0056060D01*
X0018174Y0056141D01*
X0018285Y0056219D01*
X0018397Y0056293D01*
X0018512Y0056364D01*
X0018628Y0056432D01*
X0018746Y0056497D01*
X0018867Y0056558D01*
X0018989Y0056616D01*
X0019112Y0056670D01*
X0019237Y0056721D01*
X0019364Y0056768D01*
X0019491Y0056812D01*
X0019620Y0056852D01*
X0019750Y0056888D01*
X0019881Y0056920D01*
X0020013Y0056949D01*
X0020145Y0056974D01*
X0020279Y0056995D01*
X0020413Y0057012D01*
X0020547Y0057026D01*
X0020681Y0057035D01*
X0020816Y0057041D01*
X0020951Y0057043D01*
X0024495Y0057043D02*
X0024360Y0057041D01*
X0024225Y0057035D01*
X0024091Y0057026D01*
X0023957Y0057012D01*
X0023823Y0056995D01*
X0023689Y0056974D01*
X0023557Y0056949D01*
X0023425Y0056920D01*
X0023294Y0056888D01*
X0023164Y0056852D01*
X0023035Y0056812D01*
X0022908Y0056768D01*
X0022781Y0056721D01*
X0022656Y0056670D01*
X0022533Y0056616D01*
X0022411Y0056558D01*
X0022290Y0056497D01*
X0022172Y0056432D01*
X0022056Y0056364D01*
X0021941Y0056293D01*
X0021829Y0056219D01*
X0021718Y0056141D01*
X0021610Y0056060D01*
X0021505Y0055976D01*
X0021401Y0055889D01*
X0021301Y0055799D01*
X0021203Y0055707D01*
X0021107Y0055611D01*
X0021015Y0055513D01*
X0020925Y0055413D01*
X0020838Y0055309D01*
X0020754Y0055204D01*
X0020673Y0055096D01*
X0020595Y0054985D01*
X0020521Y0054873D01*
X0020450Y0054758D01*
X0020382Y0054642D01*
X0020317Y0054524D01*
X0020256Y0054403D01*
X0020198Y0054281D01*
X0020144Y0054158D01*
X0020093Y0054033D01*
X0020046Y0053906D01*
X0020002Y0053779D01*
X0019962Y0053650D01*
X0019926Y0053520D01*
X0019894Y0053389D01*
X0019865Y0053257D01*
X0019840Y0053125D01*
X0019819Y0052991D01*
X0019802Y0052857D01*
X0019788Y0052723D01*
X0019779Y0052589D01*
X0019773Y0052454D01*
X0019771Y0052319D01*
X0005991Y0057043D02*
X0005856Y0057041D01*
X0005721Y0057035D01*
X0005587Y0057026D01*
X0005453Y0057012D01*
X0005319Y0056995D01*
X0005185Y0056974D01*
X0005053Y0056949D01*
X0004921Y0056920D01*
X0004790Y0056888D01*
X0004660Y0056852D01*
X0004531Y0056812D01*
X0004404Y0056768D01*
X0004277Y0056721D01*
X0004152Y0056670D01*
X0004029Y0056616D01*
X0003907Y0056558D01*
X0003786Y0056497D01*
X0003668Y0056432D01*
X0003552Y0056364D01*
X0003437Y0056293D01*
X0003325Y0056219D01*
X0003214Y0056141D01*
X0003106Y0056060D01*
X0003001Y0055976D01*
X0002897Y0055889D01*
X0002797Y0055799D01*
X0002699Y0055707D01*
X0002603Y0055611D01*
X0002511Y0055513D01*
X0002421Y0055413D01*
X0002334Y0055309D01*
X0002250Y0055204D01*
X0002169Y0055096D01*
X0002091Y0054985D01*
X0002017Y0054873D01*
X0001946Y0054758D01*
X0001878Y0054642D01*
X0001813Y0054524D01*
X0001752Y0054403D01*
X0001694Y0054281D01*
X0001640Y0054158D01*
X0001589Y0054033D01*
X0001542Y0053906D01*
X0001498Y0053779D01*
X0001458Y0053650D01*
X0001422Y0053520D01*
X0001390Y0053389D01*
X0001361Y0053257D01*
X0001336Y0053125D01*
X0001315Y0052991D01*
X0001298Y0052857D01*
X0001284Y0052723D01*
X0001275Y0052589D01*
X0001269Y0052454D01*
X0001267Y0052319D01*
X0070676Y0181846D02*
X0070681Y0182261D01*
X0070696Y0182677D01*
X0070722Y0183091D01*
X0070758Y0183505D01*
X0070803Y0183918D01*
X0070859Y0184330D01*
X0070925Y0184740D01*
X0071001Y0185149D01*
X0071087Y0185555D01*
X0071183Y0185959D01*
X0071289Y0186361D01*
X0071405Y0186760D01*
X0071530Y0187156D01*
X0071666Y0187549D01*
X0071810Y0187939D01*
X0071965Y0188324D01*
X0072128Y0188706D01*
X0072301Y0189084D01*
X0072484Y0189457D01*
X0072675Y0189826D01*
X0072875Y0190190D01*
X0073085Y0190549D01*
X0073302Y0190903D01*
X0073529Y0191251D01*
X0073764Y0191594D01*
X0074007Y0191931D01*
X0074259Y0192261D01*
X0074519Y0192586D01*
X0074786Y0192904D01*
X0075061Y0193215D01*
X0075344Y0193519D01*
X0075634Y0193817D01*
X0075932Y0194107D01*
X0076236Y0194390D01*
X0076547Y0194665D01*
X0076865Y0194932D01*
X0077190Y0195192D01*
X0077520Y0195444D01*
X0077857Y0195687D01*
X0078200Y0195922D01*
X0078548Y0196149D01*
X0078902Y0196366D01*
X0079261Y0196576D01*
X0079625Y0196776D01*
X0079994Y0196967D01*
X0080367Y0197150D01*
X0080745Y0197323D01*
X0081127Y0197486D01*
X0081512Y0197641D01*
X0081902Y0197785D01*
X0082295Y0197921D01*
X0082691Y0198046D01*
X0083090Y0198162D01*
X0083492Y0198268D01*
X0083896Y0198364D01*
X0084302Y0198450D01*
X0084711Y0198526D01*
X0085121Y0198592D01*
X0085533Y0198648D01*
X0085946Y0198693D01*
X0086360Y0198729D01*
X0086774Y0198755D01*
X0087190Y0198770D01*
X0087605Y0198775D01*
X0088020Y0198770D01*
X0088436Y0198755D01*
X0088850Y0198729D01*
X0089264Y0198693D01*
X0089677Y0198648D01*
X0090089Y0198592D01*
X0090499Y0198526D01*
X0090908Y0198450D01*
X0091314Y0198364D01*
X0091718Y0198268D01*
X0092120Y0198162D01*
X0092519Y0198046D01*
X0092915Y0197921D01*
X0093308Y0197785D01*
X0093698Y0197641D01*
X0094083Y0197486D01*
X0094465Y0197323D01*
X0094843Y0197150D01*
X0095216Y0196967D01*
X0095585Y0196776D01*
X0095949Y0196576D01*
X0096308Y0196366D01*
X0096662Y0196149D01*
X0097010Y0195922D01*
X0097353Y0195687D01*
X0097690Y0195444D01*
X0098020Y0195192D01*
X0098345Y0194932D01*
X0098663Y0194665D01*
X0098974Y0194390D01*
X0099278Y0194107D01*
X0099576Y0193817D01*
X0099866Y0193519D01*
X0100149Y0193215D01*
X0100424Y0192904D01*
X0100691Y0192586D01*
X0100951Y0192261D01*
X0101203Y0191931D01*
X0101446Y0191594D01*
X0101681Y0191251D01*
X0101908Y0190903D01*
X0102125Y0190549D01*
X0102335Y0190190D01*
X0102535Y0189826D01*
X0102726Y0189457D01*
X0102909Y0189084D01*
X0103082Y0188706D01*
X0103245Y0188324D01*
X0103400Y0187939D01*
X0103544Y0187549D01*
X0103680Y0187156D01*
X0103805Y0186760D01*
X0103921Y0186361D01*
X0104027Y0185959D01*
X0104123Y0185555D01*
X0104209Y0185149D01*
X0104285Y0184740D01*
X0104351Y0184330D01*
X0104407Y0183918D01*
X0104452Y0183505D01*
X0104488Y0183091D01*
X0104514Y0182677D01*
X0104529Y0182261D01*
X0104534Y0181846D01*
X0104529Y0181431D01*
X0104514Y0181015D01*
X0104488Y0180601D01*
X0104452Y0180187D01*
X0104407Y0179774D01*
X0104351Y0179362D01*
X0104285Y0178952D01*
X0104209Y0178543D01*
X0104123Y0178137D01*
X0104027Y0177733D01*
X0103921Y0177331D01*
X0103805Y0176932D01*
X0103680Y0176536D01*
X0103544Y0176143D01*
X0103400Y0175753D01*
X0103245Y0175368D01*
X0103082Y0174986D01*
X0102909Y0174608D01*
X0102726Y0174235D01*
X0102535Y0173866D01*
X0102335Y0173502D01*
X0102125Y0173143D01*
X0101908Y0172789D01*
X0101681Y0172441D01*
X0101446Y0172098D01*
X0101203Y0171761D01*
X0100951Y0171431D01*
X0100691Y0171106D01*
X0100424Y0170788D01*
X0100149Y0170477D01*
X0099866Y0170173D01*
X0099576Y0169875D01*
X0099278Y0169585D01*
X0098974Y0169302D01*
X0098663Y0169027D01*
X0098345Y0168760D01*
X0098020Y0168500D01*
X0097690Y0168248D01*
X0097353Y0168005D01*
X0097010Y0167770D01*
X0096662Y0167543D01*
X0096308Y0167326D01*
X0095949Y0167116D01*
X0095585Y0166916D01*
X0095216Y0166725D01*
X0094843Y0166542D01*
X0094465Y0166369D01*
X0094083Y0166206D01*
X0093698Y0166051D01*
X0093308Y0165907D01*
X0092915Y0165771D01*
X0092519Y0165646D01*
X0092120Y0165530D01*
X0091718Y0165424D01*
X0091314Y0165328D01*
X0090908Y0165242D01*
X0090499Y0165166D01*
X0090089Y0165100D01*
X0089677Y0165044D01*
X0089264Y0164999D01*
X0088850Y0164963D01*
X0088436Y0164937D01*
X0088020Y0164922D01*
X0087605Y0164917D01*
X0087190Y0164922D01*
X0086774Y0164937D01*
X0086360Y0164963D01*
X0085946Y0164999D01*
X0085533Y0165044D01*
X0085121Y0165100D01*
X0084711Y0165166D01*
X0084302Y0165242D01*
X0083896Y0165328D01*
X0083492Y0165424D01*
X0083090Y0165530D01*
X0082691Y0165646D01*
X0082295Y0165771D01*
X0081902Y0165907D01*
X0081512Y0166051D01*
X0081127Y0166206D01*
X0080745Y0166369D01*
X0080367Y0166542D01*
X0079994Y0166725D01*
X0079625Y0166916D01*
X0079261Y0167116D01*
X0078902Y0167326D01*
X0078548Y0167543D01*
X0078200Y0167770D01*
X0077857Y0168005D01*
X0077520Y0168248D01*
X0077190Y0168500D01*
X0076865Y0168760D01*
X0076547Y0169027D01*
X0076236Y0169302D01*
X0075932Y0169585D01*
X0075634Y0169875D01*
X0075344Y0170173D01*
X0075061Y0170477D01*
X0074786Y0170788D01*
X0074519Y0171106D01*
X0074259Y0171431D01*
X0074007Y0171761D01*
X0073764Y0172098D01*
X0073529Y0172441D01*
X0073302Y0172789D01*
X0073085Y0173143D01*
X0072875Y0173502D01*
X0072675Y0173866D01*
X0072484Y0174235D01*
X0072301Y0174608D01*
X0072128Y0174986D01*
X0071965Y0175368D01*
X0071810Y0175753D01*
X0071666Y0176143D01*
X0071530Y0176536D01*
X0071405Y0176932D01*
X0071289Y0177331D01*
X0071183Y0177733D01*
X0071087Y0178137D01*
X0071001Y0178543D01*
X0070925Y0178952D01*
X0070859Y0179362D01*
X0070803Y0179774D01*
X0070758Y0180187D01*
X0070722Y0180601D01*
X0070696Y0181015D01*
X0070681Y0181431D01*
X0070676Y0181846D01*
X0068703Y0181846D02*
X0068709Y0182310D01*
X0068726Y0182773D01*
X0068754Y0183237D01*
X0068794Y0183699D01*
X0068845Y0184160D01*
X0068908Y0184619D01*
X0068981Y0185078D01*
X0069066Y0185534D01*
X0069162Y0185987D01*
X0069269Y0186439D01*
X0069388Y0186887D01*
X0069517Y0187333D01*
X0069657Y0187775D01*
X0069808Y0188214D01*
X0069970Y0188649D01*
X0070142Y0189079D01*
X0070325Y0189506D01*
X0070518Y0189928D01*
X0070721Y0190345D01*
X0070935Y0190756D01*
X0071159Y0191163D01*
X0071392Y0191564D01*
X0071636Y0191959D01*
X0071889Y0192347D01*
X0072151Y0192730D01*
X0072423Y0193106D01*
X0072704Y0193475D01*
X0072994Y0193837D01*
X0073292Y0194192D01*
X0073600Y0194540D01*
X0073915Y0194880D01*
X0074239Y0195212D01*
X0074571Y0195536D01*
X0074911Y0195851D01*
X0075259Y0196159D01*
X0075614Y0196457D01*
X0075976Y0196747D01*
X0076345Y0197028D01*
X0076721Y0197300D01*
X0077104Y0197562D01*
X0077492Y0197815D01*
X0077887Y0198059D01*
X0078288Y0198292D01*
X0078695Y0198516D01*
X0079106Y0198730D01*
X0079523Y0198933D01*
X0079945Y0199126D01*
X0080372Y0199309D01*
X0080802Y0199481D01*
X0081237Y0199643D01*
X0081676Y0199794D01*
X0082118Y0199934D01*
X0082564Y0200063D01*
X0083012Y0200182D01*
X0083464Y0200289D01*
X0083917Y0200385D01*
X0084373Y0200470D01*
X0084832Y0200543D01*
X0085291Y0200606D01*
X0085752Y0200657D01*
X0086214Y0200697D01*
X0086678Y0200725D01*
X0087141Y0200742D01*
X0087605Y0200748D01*
X0088069Y0200742D01*
X0088532Y0200725D01*
X0088996Y0200697D01*
X0089458Y0200657D01*
X0089919Y0200606D01*
X0090378Y0200543D01*
X0090837Y0200470D01*
X0091293Y0200385D01*
X0091746Y0200289D01*
X0092198Y0200182D01*
X0092646Y0200063D01*
X0093092Y0199934D01*
X0093534Y0199794D01*
X0093973Y0199643D01*
X0094408Y0199481D01*
X0094838Y0199309D01*
X0095265Y0199126D01*
X0095687Y0198933D01*
X0096104Y0198730D01*
X0096515Y0198516D01*
X0096922Y0198292D01*
X0097323Y0198059D01*
X0097718Y0197815D01*
X0098106Y0197562D01*
X0098489Y0197300D01*
X0098865Y0197028D01*
X0099234Y0196747D01*
X0099596Y0196457D01*
X0099951Y0196159D01*
X0100299Y0195851D01*
X0100639Y0195536D01*
X0100971Y0195212D01*
X0101295Y0194880D01*
X0101610Y0194540D01*
X0101918Y0194192D01*
X0102216Y0193837D01*
X0102506Y0193475D01*
X0102787Y0193106D01*
X0103059Y0192730D01*
X0103321Y0192347D01*
X0103574Y0191959D01*
X0103818Y0191564D01*
X0104051Y0191163D01*
X0104275Y0190756D01*
X0104489Y0190345D01*
X0104692Y0189928D01*
X0104885Y0189506D01*
X0105068Y0189079D01*
X0105240Y0188649D01*
X0105402Y0188214D01*
X0105553Y0187775D01*
X0105693Y0187333D01*
X0105822Y0186887D01*
X0105941Y0186439D01*
X0106048Y0185987D01*
X0106144Y0185534D01*
X0106229Y0185078D01*
X0106302Y0184619D01*
X0106365Y0184160D01*
X0106416Y0183699D01*
X0106456Y0183237D01*
X0106484Y0182773D01*
X0106501Y0182310D01*
X0106507Y0181846D01*
X0106501Y0181382D01*
X0106484Y0180919D01*
X0106456Y0180455D01*
X0106416Y0179993D01*
X0106365Y0179532D01*
X0106302Y0179073D01*
X0106229Y0178614D01*
X0106144Y0178158D01*
X0106048Y0177705D01*
X0105941Y0177253D01*
X0105822Y0176805D01*
X0105693Y0176359D01*
X0105553Y0175917D01*
X0105402Y0175478D01*
X0105240Y0175043D01*
X0105068Y0174613D01*
X0104885Y0174186D01*
X0104692Y0173764D01*
X0104489Y0173347D01*
X0104275Y0172936D01*
X0104051Y0172529D01*
X0103818Y0172128D01*
X0103574Y0171733D01*
X0103321Y0171345D01*
X0103059Y0170962D01*
X0102787Y0170586D01*
X0102506Y0170217D01*
X0102216Y0169855D01*
X0101918Y0169500D01*
X0101610Y0169152D01*
X0101295Y0168812D01*
X0100971Y0168480D01*
X0100639Y0168156D01*
X0100299Y0167841D01*
X0099951Y0167533D01*
X0099596Y0167235D01*
X0099234Y0166945D01*
X0098865Y0166664D01*
X0098489Y0166392D01*
X0098106Y0166130D01*
X0097718Y0165877D01*
X0097323Y0165633D01*
X0096922Y0165400D01*
X0096515Y0165176D01*
X0096104Y0164962D01*
X0095687Y0164759D01*
X0095265Y0164566D01*
X0094838Y0164383D01*
X0094408Y0164211D01*
X0093973Y0164049D01*
X0093534Y0163898D01*
X0093092Y0163758D01*
X0092646Y0163629D01*
X0092198Y0163510D01*
X0091746Y0163403D01*
X0091293Y0163307D01*
X0090837Y0163222D01*
X0090378Y0163149D01*
X0089919Y0163086D01*
X0089458Y0163035D01*
X0088996Y0162995D01*
X0088532Y0162967D01*
X0088069Y0162950D01*
X0087605Y0162944D01*
X0087141Y0162950D01*
X0086678Y0162967D01*
X0086214Y0162995D01*
X0085752Y0163035D01*
X0085291Y0163086D01*
X0084832Y0163149D01*
X0084373Y0163222D01*
X0083917Y0163307D01*
X0083464Y0163403D01*
X0083012Y0163510D01*
X0082564Y0163629D01*
X0082118Y0163758D01*
X0081676Y0163898D01*
X0081237Y0164049D01*
X0080802Y0164211D01*
X0080372Y0164383D01*
X0079945Y0164566D01*
X0079523Y0164759D01*
X0079106Y0164962D01*
X0078695Y0165176D01*
X0078288Y0165400D01*
X0077887Y0165633D01*
X0077492Y0165877D01*
X0077104Y0166130D01*
X0076721Y0166392D01*
X0076345Y0166664D01*
X0075976Y0166945D01*
X0075614Y0167235D01*
X0075259Y0167533D01*
X0074911Y0167841D01*
X0074571Y0168156D01*
X0074239Y0168480D01*
X0073915Y0168812D01*
X0073600Y0169152D01*
X0073292Y0169500D01*
X0072994Y0169855D01*
X0072704Y0170217D01*
X0072423Y0170586D01*
X0072151Y0170962D01*
X0071889Y0171345D01*
X0071636Y0171733D01*
X0071392Y0172128D01*
X0071159Y0172529D01*
X0070935Y0172936D01*
X0070721Y0173347D01*
X0070518Y0173764D01*
X0070325Y0174186D01*
X0070142Y0174613D01*
X0069970Y0175043D01*
X0069808Y0175478D01*
X0069657Y0175917D01*
X0069517Y0176359D01*
X0069388Y0176805D01*
X0069269Y0177253D01*
X0069162Y0177705D01*
X0069066Y0178158D01*
X0068981Y0178614D01*
X0068908Y0179073D01*
X0068845Y0179532D01*
X0068794Y0179993D01*
X0068754Y0180455D01*
X0068726Y0180919D01*
X0068709Y0181382D01*
X0068703Y0181846D01*
D18*
X0030158Y0138230D03*
X0030158Y0132430D03*
X0030564Y0110318D03*
X0030564Y0104518D03*
X0128544Y0027954D03*
X0128544Y0022154D03*
D19*
X0085636Y0149287D02*
X0085638Y0149333D01*
X0085643Y0149379D01*
X0085652Y0149425D01*
X0085665Y0149470D01*
X0085681Y0149513D01*
X0085700Y0149555D01*
X0085723Y0149596D01*
X0085749Y0149634D01*
X0085778Y0149671D01*
X0085809Y0149705D01*
X0085843Y0149736D01*
X0085880Y0149765D01*
X0085918Y0149791D01*
X0085959Y0149814D01*
X0086001Y0149833D01*
X0086044Y0149849D01*
X0086089Y0149862D01*
X0086135Y0149871D01*
X0086181Y0149876D01*
X0086227Y0149878D01*
X0086227Y0150862D01*
X0085636Y0149287D02*
X0075794Y0149248D01*
X0075755Y0159681D02*
X0085558Y0159642D01*
X0085560Y0159593D01*
X0085566Y0159543D01*
X0085575Y0159495D01*
X0085589Y0159447D01*
X0085606Y0159401D01*
X0085627Y0159356D01*
X0085651Y0159313D01*
X0085678Y0159272D01*
X0085709Y0159233D01*
X0085743Y0159197D01*
X0085779Y0159163D01*
X0085818Y0159132D01*
X0085859Y0159105D01*
X0085902Y0159081D01*
X0085947Y0159060D01*
X0085993Y0159043D01*
X0086041Y0159029D01*
X0086089Y0159020D01*
X0086139Y0159014D01*
X0086188Y0159012D01*
X0086188Y0157949D01*
M02*
