G75*
%MOIN*%
%OFA0B0*%
%FSLAX25Y25*%
%IPPOS*%
%LPD*%
%AMOC8*
5,1,8,0,0,1.08239X$1,22.5*
%
%ADD10R,0.05918X0.06706*%
%ADD11R,0.06706X0.05918*%
%ADD12C,0.07400*%
%ADD13R,0.05524X0.05524*%
%ADD14C,0.07800*%
%ADD15R,0.06312X0.05131*%
%ADD16R,0.02375X0.02769*%
%ADD17R,0.02769X0.02375*%
%ADD18C,0.00190*%
%ADD19R,0.05524X0.02769*%
%ADD20R,0.02769X0.05524*%
%ADD21C,0.04800*%
D10*
X0118904Y0210272D03*
X0126384Y0210272D03*
D11*
X0099062Y0133579D03*
X0099062Y0126886D03*
D12*
X0039101Y0081374D03*
X0039101Y0091374D03*
X0039101Y0101374D03*
X0039101Y0111374D03*
X0039101Y0121374D03*
X0039101Y0131374D03*
X0039101Y0141374D03*
X0039101Y0151374D03*
X0039101Y0161374D03*
X0039101Y0171374D03*
X0039101Y0181374D03*
X0039101Y0191374D03*
X0117762Y0191217D03*
X0117762Y0181217D03*
X0117762Y0171217D03*
X0117762Y0161217D03*
X0117762Y0151217D03*
X0117762Y0141217D03*
X0117762Y0131217D03*
X0117762Y0121217D03*
X0117762Y0111217D03*
X0117762Y0101217D03*
X0117762Y0091217D03*
X0117762Y0081217D03*
X0117762Y0071217D03*
X0117762Y0061217D03*
X0117762Y0051217D03*
X0117762Y0041217D03*
D13*
X0097133Y0210862D03*
X0097133Y0219130D03*
X0067999Y0218894D03*
X0067999Y0210626D03*
D14*
X0082487Y0173972D03*
X0092723Y0173972D03*
D15*
X0058117Y0133618D03*
X0058117Y0125744D03*
X0049495Y0174602D03*
X0049495Y0182476D03*
X0049455Y0192122D03*
X0049455Y0199996D03*
D16*
X0082054Y0209878D03*
X0082054Y0217752D03*
D17*
X0078117Y0217949D03*
X0078117Y0215193D03*
X0078117Y0212437D03*
X0078117Y0209681D03*
X0085991Y0209681D03*
X0085991Y0212437D03*
X0085991Y0215193D03*
D18*
X0087280Y0216857D02*
X0084702Y0216857D01*
X0084702Y0219041D01*
X0087280Y0219041D01*
X0087280Y0216857D01*
X0087280Y0217046D02*
X0084702Y0217046D01*
X0084702Y0217235D02*
X0087280Y0217235D01*
X0087280Y0217424D02*
X0084702Y0217424D01*
X0084702Y0217613D02*
X0087280Y0217613D01*
X0087280Y0217802D02*
X0084702Y0217802D01*
X0084702Y0217991D02*
X0087280Y0217991D01*
X0087280Y0218180D02*
X0084702Y0218180D01*
X0084702Y0218369D02*
X0087280Y0218369D01*
X0087280Y0218558D02*
X0084702Y0218558D01*
X0084702Y0218747D02*
X0087280Y0218747D01*
X0087280Y0218936D02*
X0084702Y0218936D01*
D19*
X0084219Y0136413D03*
X0084219Y0133264D03*
X0084219Y0130114D03*
X0084219Y0126965D03*
X0084219Y0123815D03*
X0084219Y0120665D03*
X0075558Y0120665D03*
X0075558Y0123815D03*
X0075558Y0126965D03*
X0075558Y0130114D03*
X0075558Y0133264D03*
X0075558Y0136413D03*
D20*
X0079888Y0136807D03*
X0079888Y0120272D03*
D21*
X0091188Y0119209D03*
X0101818Y0112909D03*
X0105361Y0119996D03*
X0126227Y0081020D03*
X0134495Y0045587D03*
X0128196Y0011335D03*
X0095125Y0020390D03*
X0090400Y0042437D03*
X0083707Y0069602D03*
X0071896Y0069996D03*
X0059692Y0065665D03*
X0057723Y0074720D03*
X0059298Y0098343D03*
X0054967Y0115272D03*
X0067172Y0127083D03*
X0066778Y0154642D03*
X0065991Y0162122D03*
X0062841Y0182555D03*
X0058904Y0197161D03*
X0060085Y0205429D03*
X0069140Y0225902D03*
X0086070Y0223146D03*
X0090794Y0205035D03*
X0085282Y0192437D03*
X0100847Y0193618D03*
X0104967Y0210941D03*
X0112054Y0223146D03*
X0118747Y0227083D03*
X0046699Y0164484D03*
X0040794Y0208579D03*
X0035676Y0221571D03*
X0030164Y0121571D03*
M02*
